<?xml version="1.0" encoding="UTF-8"?>
<svg width="30px" height="30px" viewBox="0 0 30 30" version="1.1" xmlns="http://www.w3.org/2000/svg" xmlns:xlink="http://www.w3.org/1999/xlink">
    <!-- Generator: Sketch 52.5 (67469) - http://www.bohemiancoding.com/sketch -->
    <title>cwa-external</title>
    <desc>Created with Sketch.</desc>
    <defs>
        <circle id="path-1" cx="15" cy="15" r="15"></circle>
    </defs>
    <g id="Finalized-Copy-3" stroke="none" stroke-width="1" fill="none" fill-rule="evenodd">
        <g id="external-links" transform="translate(-90.000000, -385.000000)">
            <g id="external-link" transform="translate(62.000000, 325.000000)">
                <g id="cwa" transform="translate(28.000000, 60.000000)">
                    <g id="cwa-external">
                        <mask id="mask-2" fill="white">
                            <use xlink:href="#path-1"></use>
                        </mask>
                        <use id="Mask" fill="#00BBE5" xlink:href="#path-1"></use>
                        <path d="M16.7382931,13.4018625 C16.7382931,11.9570201 16.1585242,11.3545845 14.4840868,11.3545845 C12.7245084,11.3545845 12.0704102,12.025788 11.4696939,12.025788 C10.9547942,12.025788 10.5790932,11.6618911 10.5790932,11.002149 C10.5790932,10.6604585 10.6757213,10.4104585 10.9115481,10.1604585 C11.3838773,9.65974212 12.9616866,9 15.1395365,9 C18.1323062,9 19.6344348,10.3989971 19.6344348,13.0265043 L19.6344348,16.745702 C19.6344348,18.8051576 20,19.1346705 20,19.77149 C20,20.4083095 19.5486181,20.8975645 18.7127509,20.8975645 C18.0181093,20.8975645 17.565376,20.5250716 17.2923846,19.9613181 C17.2153524,19.8022923 16.0294615,21 13.7874181,21 C11.4163119,21 10,19.487106 10,17.4627507 C10,15.267192 11.8987769,14.1411175 14.7746469,14.1411175 C15.9544564,14.1411175 16.7382931,14.3459885 16.7382931,14.3459885 L16.7382931,13.4018625 L16.7382931,13.4018625 Z M16.7741935,16.3212404 C16.7741935,16.3212404 16.1018724,16.0985915 15.1350799,16.0985915 C13.7480867,16.0985915 13.0645161,16.554948 13.0645161,17.3865637 C13.0645161,18.1827914 13.6216956,18.8028169 14.6506911,18.8028169 C16.0065828,18.8028169 16.7741935,17.5384367 16.7741935,17.5384367 L16.7741935,16.3212404 L16.7741935,16.3212404 Z" id="Fill-1" fill="#FFFFFF" mask="url(#mask-2)"></path>
                    </g>
                </g>
            </g>
        </g>
    </g>
</svg>