<?xml version="1.0" encoding="UTF-8"?>
<svg width="6px" height="7px" viewBox="0 0 6 7" version="1.1" xmlns="http://www.w3.org/2000/svg" xmlns:xlink="http://www.w3.org/1999/xlink">
    <!-- Generator: Sketch 52.5 (67469) - http://www.bohemiancoding.com/sketch -->
    <title>icon-field-address</title>
    <desc>Created with Sketch.</desc>
    <g id="rough" stroke="none" stroke-width="1" fill="none" fill-rule="evenodd">
        <g id="Artboard" transform="translate(-237.000000, -44.000000)" fill="#2B333D">
            <path d="M242.167956,47.0000072 L240.281242,47.0000072 L240.281242,47.3750063 L242.343737,47.3750063 C242.421862,47.3750063 242.488268,47.4101624 242.542956,47.4804748 C242.597643,47.5507871 242.624987,47.6328181 242.624987,47.7265679 L242.624987,48.8984401 C242.624987,48.9921899 242.597643,49.074221 242.542956,49.1445333 C242.488268,49.2148456 242.421862,49.2500018 242.343737,49.2500018 L240.281242,49.2500018 L240.281242,50.5624987 C240.281242,50.6171861 240.263664,50.6621078 240.228508,50.697264 C240.193352,50.7324201 240.14843,50.7499982 240.093743,50.7499982 L239.906243,50.7499982 C239.851556,50.7499982 239.806634,50.7324201 239.771478,50.697264 C239.736322,50.6621078 239.718744,50.6171861 239.718744,50.5624987 L239.718744,49.2500018 L237.832029,49.2500018 C237.722655,49.2500018 237.632811,49.2031269 237.562499,49.1093771 L237.058594,48.4765661 C237.019531,48.4296912 237,48.3750038 237,48.312504 C237,48.2500042 237.019531,48.1953168 237.058594,48.1484419 L237.562499,47.5156309 C237.632811,47.4218811 237.722655,47.3750063 237.832029,47.3750063 L239.718744,47.3750063 L239.718744,47.0000072 L237.656248,47.0000072 C237.578124,47.0000072 237.511718,46.964851 237.45703,46.8945387 C237.402343,46.8242263 237.374999,46.7421953 237.374999,46.6484455 L237.374999,45.4765733 C237.374999,45.3828235 237.402343,45.3007925 237.45703,45.2304801 C237.511718,45.1601678 237.578124,45.1250116 237.656248,45.1250116 L239.718744,45.1250116 L239.718744,44.9375121 C239.718744,44.8828246 239.736322,44.8379029 239.771478,44.8027468 C239.806634,44.7675906 239.851556,44.7500125 239.906243,44.7500125 L240.093743,44.7500125 C240.14843,44.7500125 240.193352,44.7675906 240.228508,44.8027468 C240.263664,44.8379029 240.281242,44.8828246 240.281242,44.9375121 L240.281242,45.1250116 L242.167956,45.1250116 C242.277331,45.1250116 242.367175,45.1718865 242.437487,45.2656363 L242.941392,45.8984473 C242.980454,45.9453222 242.999986,46.0000096 242.999986,46.0625094 C242.999986,46.1250092 242.980454,46.1796966 242.941392,46.2265715 L242.437487,46.8593825 C242.367175,46.9531323 242.277331,47.0000072 242.167956,47.0000072 Z M242.062488,48.6875031 L242.062488,47.9375049 L237.937498,47.9375049 L237.64453,48.312504 L237.937498,48.6875031 L242.062488,48.6875031 Z M237.937498,45.6875103 L237.937498,46.4375085 L242.062488,46.4375085 L242.355456,46.0625094 L242.062488,45.6875103 L237.937498,45.6875103 Z" id="icon-field-address"></path>
        </g>
    </g>
</svg>