<?xml version="1.0" encoding="UTF-8"?>
<svg width="25px" height="19px" viewBox="0 0 25 19" version="1.1" xmlns="http://www.w3.org/2000/svg" xmlns:xlink="http://www.w3.org/1999/xlink">
    <!-- Generator: Sketch 52.6 (67491) - http://www.bohemiancoding.com/sketch -->
    <title></title>
    <desc>Created with Sketch.</desc>
    <g id="experiment" stroke="none" stroke-width="1" fill="none" fill-rule="evenodd">
        <g id="initial-copy-4" transform="translate(-23.000000, -681.000000)" fill="#FFFFFF">
            <g id="sidebar-copy">
                <g id="Group-3-Copy-6" transform="translate(0.000000, 660.000000)">
                    <path d="M44.2499493,29.2500209 C43.3905764,29.2500209 42.6549013,28.9440322 42.0429233,28.3320543 C41.4309454,27.7200764 41.1249568,26.9844013 41.1249568,26.1250283 C41.1249568,25.2656554 41.4309454,24.5299802 42.0429233,23.9180023 C42.6549013,23.3060244 43.3905764,23.0000358 44.2499493,23.0000358 C45.1093223,23.0000358 45.8449974,23.3060244 46.4569753,23.9180023 C47.0689532,24.5299802 47.3749419,25.2656554 47.3749419,26.1250283 C47.3749419,26.9844013 47.0689532,27.7200764 46.4569753,28.3320543 C45.8449974,28.9440322 45.1093223,29.2500209 44.2499493,29.2500209 Z M44.2499493,24.2500328 C43.7291174,24.2500328 43.2864098,24.4323242 42.9218275,24.7969065 C42.5572452,25.1614887 42.3749538,25.6041964 42.3749538,26.1250283 C42.3749538,26.6458602 42.5572452,27.0885679 42.9218275,27.4531501 C43.2864098,27.8177324 43.7291174,28.0000238 44.2499493,28.0000238 C44.7707812,28.0000238 45.2134889,27.8177324 45.5780712,27.4531501 C45.9426534,27.0885679 46.1249449,26.6458602 46.1249449,26.1250283 C46.1249449,25.6041964 45.9426534,25.1614887 45.5780712,24.7969065 C45.2134889,24.4323242 44.7707812,24.2500328 44.2499493,24.2500328 Z M35.4999702,30.5000179 C34.7187221,30.5000179 33.9895569,30.3047058 33.3124754,29.9140818 C32.6353939,29.5234577 32.1015408,28.9896046 31.7109167,28.3125231 C31.3202927,27.6354416 31.1249806,26.9062764 31.1249806,26.1250283 C31.1249806,25.3437802 31.3202927,24.614615 31.7109167,23.9375335 C32.1015408,23.260452 32.6353939,22.7265989 33.3124754,22.3359748 C33.9895569,21.9453508 34.7187221,21.7500387 35.4999702,21.7500387 C36.2812183,21.7500387 37.0103835,21.9453508 37.687465,22.3359748 C38.3645465,22.7265989 38.8983996,23.260452 39.2890237,23.9375335 C39.6796477,24.614615 39.8749598,25.3437802 39.8749598,26.1250283 C39.8749598,26.9062764 39.6796477,27.6354416 39.2890237,28.3125231 C38.8983996,28.9896046 38.3645465,29.5234577 37.687465,29.9140818 C37.0103835,30.3047058 36.2812183,30.5000179 35.4999702,30.5000179 Z M35.4999702,23.0000358 C34.6405972,23.0000358 33.9049221,23.3060244 33.2929442,23.9180023 C32.6809663,24.5299802 32.3749776,25.2656554 32.3749776,26.1250283 C32.3749776,26.9844013 32.6809663,27.7200764 33.2929442,28.3320543 C33.9049221,28.9440322 34.6405972,29.2500209 35.4999702,29.2500209 C36.3593431,29.2500209 37.0950183,28.9440322 37.7069962,28.3320543 C38.3189741,27.7200764 38.6249627,26.9844013 38.6249627,26.1250283 C38.6249627,25.2656554 38.3189741,24.5299802 37.7069962,23.9180023 C37.0950183,23.3060244 36.3593431,23.0000358 35.4999702,23.0000358 Z M45.0311975,30.5000179 C45.8384874,30.5000179 46.5351001,30.8060065 47.1210362,31.4179844 C47.7069723,32.0299623 47.9999404,32.7656375 47.9999404,33.6250104 C47.9999404,33.8073019 47.9413468,33.9570409 47.8241596,34.0742281 C47.7069723,34.1914153 47.5572333,34.2500089 47.3749419,34.2500089 C47.1926505,34.2500089 47.0429114,34.1914153 46.9257242,34.0742281 C46.808537,33.9570409 46.7499434,33.8073019 46.7499434,33.6250104 C46.7499434,33.1041785 46.5806731,32.6614709 46.2421321,32.2968886 C45.903591,31.9323063 45.4999464,31.7500149 45.0311975,31.7500149 L43.4687012,31.7500149 C43.2603686,31.7500149 43.0520353,31.7890773 42.8437027,31.8672021 C42.5572452,31.5547029 42.2317248,31.2682454 41.8671425,31.0078292 C42.3619332,30.6692881 42.8957857,30.5000179 43.4687012,30.5000179 L45.0311975,30.5000179 Z M26.7499911,29.2500209 C25.8906181,29.2500209 25.154943,28.9440322 24.5429651,28.3320543 C23.9309872,27.7200764 23.6249985,26.9844013 23.6249985,26.1250283 C23.6249985,25.2656554 23.9309872,24.5299802 24.5429651,23.9180023 C25.154943,23.3060244 25.8906181,23.0000358 26.7499911,23.0000358 C27.609364,23.0000358 28.3450391,23.3060244 28.957017,23.9180023 C29.568995,24.5299802 29.8749836,25.2656554 29.8749836,26.1250283 C29.8749836,26.9844013 29.568995,27.7200764 28.957017,28.3320543 C28.3450391,28.9440322 27.609364,29.2500209 26.7499911,29.2500209 Z M26.7499911,24.2500328 C26.2291592,24.2500328 25.7864515,24.4323242 25.4218692,24.7969065 C25.057287,25.1614887 24.8749955,25.6041964 24.8749955,26.1250283 C24.8749955,26.6458602 25.057287,27.0885679 25.4218692,27.4531501 C25.7864515,27.8177324 26.2291592,28.0000238 26.7499911,28.0000238 C27.270823,28.0000238 27.7135306,27.8177324 28.0781129,27.4531501 C28.4426952,27.0885679 28.6249866,26.6458602 28.6249866,26.1250283 C28.6249866,25.6041964 28.4426952,25.1614887 28.0781129,24.7969065 C27.7135306,24.4323242 27.270823,24.2500328 26.7499911,24.2500328 Z M38.6249627,31.281266 C39.3541279,31.281266 40.03772,31.4375156 40.6757391,31.7500149 C41.3137582,32.0625142 41.8280801,32.5182424 42.2187042,33.1171991 C42.7395361,33.8724055 42.9999523,34.7057372 42.9999523,35.6171932 L42.9999523,37.3750015 C42.9999523,37.8958334 42.8176609,38.3385411 42.4530786,38.7031233 C42.0884964,39.0677056 41.6457887,39.249997 41.1249568,39.249997 L29.8749836,39.249997 C29.3541517,39.249997 28.911444,39.0677056 28.5468618,38.7031233 C28.1822795,38.3385411 27.9999881,37.8958334 27.9999881,37.3750015 L27.9999881,35.6171932 C27.9999881,34.7057372 28.2604043,33.8724055 28.7812362,33.1171991 C29.1718603,32.5182424 29.6861822,32.0625142 30.3242013,31.7500149 C30.9622204,31.4375156 31.6458125,31.281266 32.3749776,31.281266 C32.7916435,31.281266 33.273413,31.3593908 33.8202867,31.5156405 C34.4192434,31.6718901 34.9791383,31.7500149 35.4999702,31.7500149 C36.0208021,31.7500149 36.580697,31.6718901 37.1796537,31.5156405 C37.7265274,31.3593908 38.2082969,31.281266 38.6249627,31.281266 Z M41.7499553,37.3750015 L41.7499553,35.6171932 C41.7499553,34.9661529 41.5676639,34.3671962 41.2030816,33.8203225 C40.9166241,33.4036566 40.5520413,33.0846473 40.1093342,32.8632935 C39.6666271,32.6419397 39.1718364,32.531263 38.6249627,32.531263 C38.3124635,32.531263 37.9218394,32.5963672 37.4530905,32.7265751 C36.776009,32.9088665 36.1249687,33.0000119 35.4999702,33.0000119 C34.8749717,33.0000119 34.2239314,32.9088665 33.5468499,32.7265751 C33.078101,32.5963672 32.6874769,32.531263 32.3749776,32.531263 C31.828104,32.531263 31.3268033,32.6419397 30.871075,32.8632935 C30.4153467,33.0846473 30.057275,33.4036566 29.7968588,33.8203225 C29.4322765,34.3671962 29.2499851,34.9661529 29.2499851,35.6171932 L29.2499851,37.3750015 C29.2499851,37.5572929 29.3085787,37.7070319 29.4257659,37.8242192 C29.5429532,37.9414064 29.6926922,38 29.8749836,38 L41.1249568,38 C41.3072482,38 41.4569872,37.9414064 41.5741745,37.8242192 C41.6913617,37.7070319 41.7499553,37.5572929 41.7499553,37.3750015 Z M29.1327979,31.0078292 C28.7682156,31.2682454 28.4426952,31.5547029 28.1562377,31.8672021 C27.9479051,31.7890773 27.7395718,31.7500149 27.5312392,31.7500149 L25.9687429,31.7500149 C25.499994,31.7500149 25.0963494,31.9323063 24.7578083,32.2968886 C24.4192673,32.6614709 24.249997,33.1041785 24.249997,33.6250104 C24.249997,33.8073019 24.1914034,33.9570409 24.0742162,34.0742281 C23.957029,34.1914153 23.8072899,34.2500089 23.6249985,34.2500089 C23.4427071,34.2500089 23.2929681,34.1914153 23.1757808,34.0742281 C23.0585936,33.9570409 23,33.8073019 23,33.6250104 C23,32.7656375 23.2929681,32.0299623 23.8789042,31.4179844 C24.4648403,30.8060065 25.161453,30.5000179 25.9687429,30.5000179 L27.5312392,30.5000179 C28.1041547,30.5000179 28.6380072,30.6692881 29.1327979,31.0078292 Z" id=""></path>
                </g>
            </g>
        </g>
    </g>
</svg>