<?xml version="1.0" encoding="UTF-8"?>
<svg width="13px" height="15px" viewBox="0 0 13 15" version="1.1" xmlns="http://www.w3.org/2000/svg" xmlns:xlink="http://www.w3.org/1999/xlink">
    <!-- Generator: Sketch 52.5 (67469) - http://www.bohemiancoding.com/sketch -->
    <title>icon-copy</title>
    <desc>Created with Sketch.</desc>
    <g id="experiment" stroke="none" stroke-width="1" fill="none" fill-rule="evenodd">
        <g id="initial-copy-6" transform="translate(-564.000000, -149.000000)" fill="#2B333D">
            <g id="sub-content" transform="translate(462.000000, 90.000000)">
                <g id="Tools" transform="translate(20.000000, 49.000000)">
                    <g id="cut-copy-paste" transform="translate(59.000000, 1.000000)">
                        <path d="M34.8671592,11.5547124 C35.1223668,11.80992 35.2499708,12.1198154 35.2499708,12.4843977 L35.2499708,19.8125052 C35.2499708,20.1770875 35.1223668,20.4869829 34.8671592,20.7421905 C34.6119516,20.9973981 34.3020562,21.1250021 33.9374739,21.1250021 L31.7499791,21.1250021 L31.7499791,22.437499 C31.7499791,22.8020813 31.6223751,23.1119767 31.3671676,23.3671842 C31.11196,23.6223918 30.8020646,23.7499958 30.4374823,23.7499958 L24.3124969,23.7499958 C23.9479145,23.7499958 23.6380192,23.6223918 23.3828116,23.3671842 C23.127604,23.1119767 23,22.8020813 23,22.437499 L23,13.6875198 C23,13.3229375 23.127604,13.0130421 23.3828116,12.7578345 C23.6380192,12.5026269 23.9479145,12.3750229 24.3124969,12.3750229 L26.4999917,12.3750229 L26.4999917,11.0625261 C26.4999917,10.6979438 26.6275957,10.3880484 26.8828032,10.1328408 C27.1380108,9.87763321 27.4479062,9.75002921 27.8124885,9.75002921 L32.5156023,9.75002921 C32.8801846,9.75002921 33.19008,9.87763321 33.4452876,10.1328408 L34.8671592,11.5547124 Z M30.2734202,22.437499 C30.3098783,22.437499 30.3463368,22.4192697 30.3827949,22.3828116 C30.419253,22.3463535 30.4374823,22.309895 30.4374823,22.2734368 L30.4374823,21.1250021 L27.8124885,21.1250021 C27.4479062,21.1250021 27.1380108,20.9973981 26.8828032,20.7421905 C26.6275957,20.4869829 26.4999917,20.1770875 26.4999917,19.8125052 L26.4999917,13.6875198 L24.476559,13.6875198 C24.4401009,13.6875198 24.4036423,13.7057491 24.3671842,13.7422072 C24.3307261,13.7786653 24.3124969,13.8151238 24.3124969,13.8515819 L24.3124969,22.2734368 C24.3124969,22.309895 24.3307261,22.3463535 24.3671842,22.3828116 C24.4036423,22.4192697 24.4401009,22.437499 24.476559,22.437499 L30.2734202,22.437499 Z M33.7734118,19.8125052 C33.8098699,19.8125052 33.8463284,19.794276 33.8827866,19.7578178 C33.9192447,19.7213597 33.9374739,19.6849012 33.9374739,19.6484431 L33.9374739,14.1250188 L31.5312297,14.1250188 C31.3489383,14.1250188 31.193991,14.061217 31.066387,13.933613 C30.938783,13.806009 30.8749812,13.6510617 30.8749812,13.4687703 L30.8749812,11.0625261 L27.9765506,11.0625261 C27.9400925,11.0625261 27.903634,11.0807553 27.8671759,11.1172134 C27.8307178,11.1536716 27.8124885,11.1901301 27.8124885,11.2265882 L27.8124885,19.6484431 C27.8124885,19.6849012 27.8307178,19.7213597 27.8671759,19.7578178 C27.903634,19.794276 27.9400925,19.8125052 27.9765506,19.8125052 L33.7734118,19.8125052 Z M33.9374739,12.8125219 L33.9374739,12.5390851 C33.9374739,12.5026269 33.9192447,12.4661684 33.8827866,12.4297103 L32.5702897,11.1172134 C32.5338316,11.0807553 32.4973731,11.0625261 32.4609149,11.0625261 L32.1874781,11.0625261 L32.1874781,12.8125219 L33.9374739,12.8125219 Z" id="icon-copy"></path>
                    </g>
                </g>
            </g>
        </g>
    </g>
</svg>