<?xml version="1.0" encoding="UTF-8"?>
<svg width="20px" height="20px" viewBox="0 0 20 20" version="1.1" xmlns="http://www.w3.org/2000/svg" xmlns:xlink="http://www.w3.org/1999/xlink">
    <!-- Generator: Sketch 52.5 (67469) - http://www.bohemiancoding.com/sketch -->
    <title>icon-success</title>
    <desc>Created with Sketch.</desc>
    <g id="popup-/-alert-icons" stroke="none" stroke-width="1" fill="none" fill-rule="evenodd">
        <g id="initial-copy" transform="translate(-1193.000000, -195.000000)" fill="#85D280">
            <g id="Rectangle" transform="translate(1180.000000, 179.000000)">
                <g id="icon-success" transform="translate(13.000000, 16.000000)">
                    <path d="M18.2923688,3.28124203 C18.6569511,3.41144985 18.9434091,3.63280369 19.1517418,3.94530294 C19.3600744,4.2578022 19.464241,4.60936386 19.464241,4.99998793 C19.464241,7.6822734 18.9694503,10.143205 17.9798695,12.3827828 C17.1204966,14.2577784 15.9746662,15.8983994 14.5423777,17.3046461 C13.3444637,18.4765183 12.0944667,19.3228706 10.7923867,19.8437025 C10.3236378,20.0520352 9.85488892,20.0520352 9.38614004,19.8437025 C7.90176858,19.2447458 6.53458434,18.2812063 5.28458732,16.9530844 C3.90438247,15.520796 2.82365569,13.8411125 2.04240755,11.9140339 C1.15699279,9.75258096 0.714285714,7.44789896 0.714285714,4.99998793 C0.714285714,4.60936386 0.818452331,4.2578022 1.02678497,3.94530294 C1.23511761,3.63280369 1.52157565,3.41144985 1.88615792,3.28124203 L9.38614004,0.156249478 C9.85488892,-0.0520831595 10.3236378,-0.0520831595 10.7923867,0.156249478 L18.2923688,3.28124203 Z M10.0892634,18.1249566 C11.3653022,17.6041247 12.550195,16.7447518 13.6439424,15.5468378 C14.8418564,14.270799 15.7793542,12.7864275 16.4564357,11.0937234 C17.211642,9.19268607 17.5892455,7.16144091 17.5892455,4.99998793 L10.0892634,1.87499538 L2.58928124,4.99998793 C2.58928124,7.1093579 2.95386351,9.10154065 3.68302864,10.9765362 C4.36011016,12.6952821 5.28458732,14.1926741 6.45645952,15.468713 C7.57624872,16.6926682 8.78718333,17.5780829 10.0892634,18.1249566 Z M9.11270319,14.1015287 C9.03457838,14.2056953 8.93041176,14.2577784 8.80020394,14.2577784 C8.66999611,14.2577784 8.55280889,14.2056953 8.44864227,14.1015287 L4.89396325,10.5468497 C4.81583844,10.4426831 4.77677603,10.3254959 4.77677603,10.195288 C4.77677603,10.0650802 4.82885904,9.9609136 4.93302566,9.88278879 L5.79239861,8.98435343 C5.89656522,8.90622862 6.01375244,8.86716621 6.14396027,8.86716621 C6.27416809,8.86716621 6.37833471,8.90622862 6.45645952,8.98435343 L8.80020394,11.3671602 L14.3080033,5.89842329 C14.4121699,5.79425667 14.5293571,5.74217366 14.659565,5.74217366 C14.7897728,5.74217366 14.8939394,5.79425667 14.9720642,5.89842329 L15.8704996,6.75779624 C15.9486244,6.86196286 15.9876868,6.97915008 15.9876868,7.1093579 C15.9876868,7.23956573 15.9486244,7.34373234 15.8704996,7.42185716 L9.11270319,14.1015287 Z"></path>
                </g>
            </g>
        </g>
    </g>
</svg>