<?xml version="1.0" encoding="UTF-8"?>
<svg width="14px" height="15px" viewBox="0 0 14 15" version="1.1" xmlns="http://www.w3.org/2000/svg" xmlns:xlink="http://www.w3.org/1999/xlink">
    <!-- Generator: Sketch 52.5 (67469) - http://www.bohemiancoding.com/sketch -->
    <title>icon-field-faq</title>
    <desc>Created with Sketch.</desc>
    <g id="rough" stroke="none" stroke-width="1" fill="none" fill-rule="evenodd">
        <g id="Artboard" transform="translate(-164.000000, -83.000000)" fill="#2B333D">
            <path d="M170.999983,93.046882 C171.218733,93.046882 171.401024,93.1197987 171.546857,93.2656315 C171.69269,93.4114644 171.765606,93.5937557 171.765606,93.8125052 C171.765606,94.0312547 171.69269,94.2135461 171.546857,94.3593789 C171.401024,94.5052118 171.218733,94.5781284 170.999983,94.5781284 C170.781234,94.5781284 170.598942,94.5052118 170.45311,94.3593789 C170.307277,94.2135461 170.23436,94.0312547 170.23436,93.8125052 C170.23436,93.5937557 170.307277,93.4114644 170.45311,93.2656315 C170.598942,93.1197987 170.781234,93.046882 170.999983,93.046882 Z M170.781234,92.3906336 C170.690088,92.3906336 170.612614,92.3587325 170.548813,92.2949307 C170.485011,92.2311289 170.45311,92.1536549 170.45311,92.0625094 C170.45311,91.5885523 170.580714,91.1875115 170.835921,90.8593873 C170.999983,90.6770959 171.282535,90.4583464 171.683575,90.2031388 C171.99347,90.0026186 172.193991,89.8476709 172.285136,89.7382962 C172.467428,89.5560048 172.558573,89.3463702 172.558573,89.1093914 C172.558573,88.8177253 172.430969,88.5716322 172.175762,88.3711119 C171.902325,88.1341332 171.510399,88.015644 170.999983,88.015644 C170.617172,88.015644 170.302719,88.0794458 170.056626,88.2070498 C169.810533,88.3346538 169.578112,88.535174 169.359362,88.8086109 C169.322904,88.8632983 169.259102,88.8997564 169.167956,88.9179856 C169.076811,88.9362149 168.99478,88.9179856 168.921863,88.8632983 L168.566395,88.6172051 C168.493479,88.5625177 168.447906,88.4896011 168.429677,88.3984556 C168.411448,88.3073101 168.429677,88.2252791 168.484364,88.1523625 C168.812489,87.7513216 169.149727,87.4505411 169.496081,87.2500209 C169.91535,87.0312714 170.416652,86.9218966 170.999983,86.9218966 C171.747377,86.9218966 172.376282,87.1224169 172.886698,87.5234577 C173.397113,87.9244986 173.652321,88.453143 173.652321,89.1093914 C173.652321,89.5651196 173.524717,89.9479312 173.269509,90.2578262 C173.105447,90.4583464 172.822896,90.6862107 172.421855,90.9414183 C172.11196,91.1419385 171.902325,91.2968862 171.79295,91.406261 C171.628888,91.6067812 171.546857,91.8255306 171.546857,92.0625094 C171.546857,92.1536549 171.514956,92.2311289 171.451154,92.2949307 C171.387352,92.3587325 171.309878,92.3906336 171.218733,92.3906336 L170.781234,92.3906336 Z M170.999983,84.8437766 C169.924465,84.8437766 168.935535,85.108099 168.033194,85.6367435 C167.130852,86.1653879 166.415359,86.8808811 165.886714,87.7832227 C165.35807,88.6855643 165.093747,89.6744944 165.093747,90.7500125 C165.093747,91.8255306 165.35807,92.8144607 165.886714,93.7168023 C166.415359,94.6191439 167.130852,95.3346371 168.033194,95.8632816 C168.935535,96.391926 169.924465,96.6562484 170.999983,96.6562484 C172.075501,96.6562484 173.064432,96.391926 173.966773,95.8632816 C174.869115,95.3346371 175.584608,94.6191439 176.113252,93.7168023 C176.641897,92.8144607 176.906219,91.8255306 176.906219,90.7500125 C176.906219,89.6744944 176.641897,88.6855643 176.113252,87.7832227 C175.584608,86.8808811 174.864557,86.1653879 173.953101,85.6367435 C173.041645,85.108099 172.057273,84.8437766 170.999983,84.8437766 Z M170.999983,83.9687787 C172.221335,83.9687787 173.35154,84.2741166 174.3906,84.8847921 C175.42966,85.4954676 176.254528,86.3203356 176.865204,87.3593956 C177.475879,88.3984556 177.781217,89.5286611 177.781217,90.7500125 C177.781217,91.9713639 177.475879,93.1015694 176.865204,94.1406294 C176.254528,95.1796895 175.42966,96.0045574 174.3906,96.6152329 C173.35154,97.2259084 172.221335,97.5312463 170.999983,97.5312463 C169.778632,97.5312463 168.648426,97.2259084 167.609366,96.6152329 C166.570306,96.0045574 165.745438,95.1796895 165.134763,94.1406294 C164.524087,93.1015694 164.218749,91.9713639 164.218749,90.7500125 C164.218749,89.5286611 164.524087,88.3984556 165.134763,87.3593956 C165.745438,86.3203356 166.570306,85.4954676 167.609366,84.8847921 C168.648426,84.2741166 169.778632,83.9687787 170.999983,83.9687787 Z" id="icon-field-faq"></path>
        </g>
    </g>
</svg>