<?xml version="1.0" encoding="UTF-8"?>
<svg width="18px" height="15px" viewBox="0 0 18 15" version="1.1" xmlns="http://www.w3.org/2000/svg" xmlns:xlink="http://www.w3.org/1999/xlink">
    <!-- Generator: Sketch 52.5 (67469) - http://www.bohemiancoding.com/sketch -->
    <title>icon-field-iframe</title>
    <desc>Created with Sketch.</desc>
    <g id="rough" stroke="none" stroke-width="1" fill="none" fill-rule="evenodd">
        <g id="Artboard" transform="translate(-144.000000, -20.000000)" fill="#2B333D">
            <path d="M150.972656,27.9140625 L149.386719,26.3007812 C149.295572,26.2278642 149.25,26.1276048 149.25,26 C149.25,25.8723952 149.295572,25.7721358 149.386719,25.6992188 L150.972656,24.0859375 C151.063803,24.0130205 151.168619,23.9765625 151.287109,23.9765625 C151.4056,23.9765625 151.510416,24.0130205 151.601562,24.0859375 L151.902344,24.4140625 C151.99349,24.4869795 152.039062,24.5872389 152.039062,24.7148438 C152.039062,24.8424486 151.99349,24.942708 151.902344,25.015625 L150.917969,26 L151.902344,26.984375 C151.99349,27.057292 152.039062,27.1575514 152.039062,27.2851562 C152.039062,27.4127611 151.99349,27.5130205 151.902344,27.5859375 L151.601562,27.9140625 C151.510416,27.9869795 151.4056,28.0234375 151.287109,28.0234375 C151.168619,28.0234375 151.063803,27.9869795 150.972656,27.9140625 Z M153.597656,27.5859375 C153.50651,27.5130205 153.460938,27.4127611 153.460938,27.2851562 C153.460938,27.1575514 153.50651,27.057292 153.597656,26.984375 L154.582031,26 L153.597656,25.015625 C153.50651,24.942708 153.460938,24.8424486 153.460938,24.7148438 C153.460938,24.5872389 153.50651,24.4869795 153.597656,24.4140625 L153.898438,24.0859375 C153.989584,24.0130205 154.0944,23.9765625 154.212891,23.9765625 C154.331381,23.9765625 154.436197,24.0130205 154.527344,24.0859375 L156.113281,25.6992188 C156.204428,25.7721358 156.25,25.8723952 156.25,26 C156.25,26.1276048 156.204428,26.2278642 156.113281,26.3007812 L154.527344,27.9140625 C154.436197,27.9869795 154.331381,28.0234375 154.212891,28.0234375 C154.0944,28.0234375 153.989584,27.9869795 153.898438,27.9140625 L153.597656,27.5859375 Z M161.0625,32.125 C161.190105,32.125 161.294921,32.1660152 161.376953,32.2480469 C161.458985,32.3300785 161.5,32.4348952 161.5,32.5625 L161.5,33 C161.5,33.4739607 161.326825,33.8841129 160.980469,34.2304688 C160.634113,34.5768246 160.223961,34.75 159.75,34.75 L145.75,34.75 C145.276039,34.75 144.865887,34.5768246 144.519531,34.2304688 C144.173175,33.8841129 144,33.4739607 144,33 L144,32.5625 C144,32.4348952 144.041015,32.3300785 144.123047,32.2480469 C144.205079,32.1660152 144.309895,32.125 144.4375,32.125 L150.972656,32.125 C150.972656,32.3255218 151.063801,32.5214834 151.246094,32.7128906 C151.428386,32.9042978 151.63802,33 151.875,33 L153.542969,33 C153.798178,33 154.007812,32.9225268 154.171875,32.7675781 C154.335938,32.6126294 154.427083,32.3984389 154.445312,32.125 L161.0625,32.125 Z M159.75,22.0625 L159.75,31.25 L145.75,31.25 L145.75,22.0625 C145.75,21.6979148 145.877603,21.3880221 146.132812,21.1328125 C146.388022,20.8776029 146.697915,20.75 147.0625,20.75 L158.4375,20.75 C158.802085,20.75 159.111978,20.8776029 159.367188,21.1328125 C159.622397,21.3880221 159.75,21.6979148 159.75,22.0625 Z M158,29.5 L158,22.5 L147.5,22.5 L147.5,29.5 L158,29.5 Z" id="icon-field-iframe"></path>
        </g>
    </g>
</svg>