<?xml version="1.0" encoding="UTF-8"?>
<svg width="14px" height="11px" viewBox="0 0 14 11" version="1.1" xmlns="http://www.w3.org/2000/svg" xmlns:xlink="http://www.w3.org/1999/xlink">
    <!-- Generator: Sketch 52.5 (67469) - http://www.bohemiancoding.com/sketch -->
    <title>icon-field-name</title>
    <desc>Created with Sketch.</desc>
    <g id="experiment" stroke="none" stroke-width="1" fill="none" fill-rule="evenodd">
        <g id="initial-copy-6" transform="translate(-120.000000, -196.000000)" fill="#2B333D">
            <g id="Aside-content" transform="translate(90.000000, 90.000000)">
                <g id="drags" transform="translate(20.000000, 94.000000)">
                    <g id="drag">
                        <path d="M22.6874698,12.500025 C23.0520521,12.500025 23.3619474,12.627629 23.617155,12.8828366 C23.8723626,13.1380442 23.9999666,13.4479396 23.9999666,13.8125219 L23.9999666,21.6875031 C23.9999666,22.0520855 23.8723626,22.3619808 23.617155,22.6171884 C23.3619474,22.872396 23.0520521,23 22.6874698,23 L11.3124969,23 C10.9479145,23 10.6380192,22.872396 10.3828116,22.6171884 C10.127604,22.3619808 10,22.0520855 10,21.6875031 L10,13.8125219 C10,13.4479396 10.127604,13.1380442 10.3828116,12.8828366 C10.6380192,12.627629 10.9479145,12.500025 11.3124969,12.500025 L22.6874698,12.500025 Z M22.5234076,21.6875031 C22.5598657,21.6875031 22.5963243,21.6692739 22.6327824,21.6328158 C22.6692405,21.5963577 22.6874698,21.5598991 22.6874698,21.523441 L22.6874698,13.976584 C22.6874698,13.9401259 22.6692405,13.9036674 22.6327824,13.8672093 C22.5963243,13.8307512 22.5598657,13.8125219 22.5234076,13.8125219 L11.476559,13.8125219 C11.4401009,13.8125219 11.4036423,13.8307512 11.3671842,13.8672093 C11.3307261,13.9036674 11.3124969,13.9401259 11.3124969,13.976584 L11.3124969,21.523441 C11.3124969,21.5598991 11.3307261,21.5963577 11.3671842,21.6328158 C11.4036423,21.6692739 11.4401009,21.6875031 11.476559,21.6875031 L22.5234076,21.6875031 Z M18.2031054,16.8750146 C18.11196,16.8750146 18.0344859,16.8431135 17.9706841,16.7793117 C17.9068823,16.7155099 17.8749812,16.6380359 17.8749812,16.5468904 L17.8749812,15.890642 C17.8749812,15.7994965 17.9068823,15.7220224 17.9706841,15.6582206 C18.0344859,15.5944188 18.11196,15.5625177 18.2031054,15.5625177 L21.0468487,15.5625177 C21.1379941,15.5625177 21.2154682,15.5944188 21.27927,15.6582206 C21.3430718,15.7220224 21.3749729,15.7994965 21.3749729,15.890642 L21.3749729,16.5468904 C21.3749729,16.6380359 21.3430718,16.7155099 21.27927,16.7793117 C21.2154682,16.8431135 21.1379941,16.8750146 21.0468487,16.8750146 L18.2031054,16.8750146 Z M18.2031054,19.0625094 C18.11196,19.0625094 18.0344859,19.0306083 17.9706841,18.9668065 C17.9068823,18.9030047 17.8749812,18.8255306 17.8749812,18.7343852 L17.8749812,18.0781367 C17.8749812,17.9869913 17.9068823,17.9095172 17.9706841,17.8457154 C18.0344859,17.7819136 18.11196,17.7500125 18.2031054,17.7500125 L21.0468487,17.7500125 C21.1379941,17.7500125 21.2154682,17.7819136 21.27927,17.8457154 C21.3430718,17.9095172 21.3749729,17.9869913 21.3749729,18.0781367 L21.3749729,18.7343852 C21.3749729,18.8255306 21.3430718,18.9030047 21.27927,18.9668065 C21.2154682,19.0306083 21.1379941,19.0625094 21.0468487,19.0625094 L18.2031054,19.0625094 Z M13.2812422,16.4375156 C13.2812422,16.018246 13.4316324,15.6582206 13.732413,15.3574401 C14.0331935,15.0566596 14.3932188,14.9062693 14.8124885,14.9062693 C15.2317582,14.9062693 15.5917835,15.0566596 15.8925641,15.3574401 C16.1933446,15.6582206 16.3437349,16.018246 16.3437349,16.4375156 C16.3437349,16.8567853 16.1933446,17.2168107 15.8925641,17.5175912 C15.5917835,17.8183717 15.2317582,17.968762 14.8124885,17.968762 C14.3932188,17.968762 14.0331935,17.8183717 13.732413,17.5175912 C13.4316324,17.2168107 13.2812422,16.8567853 13.2812422,16.4375156 Z M16.9999833,20.046882 C16.9999833,20.1380275 16.9680822,20.2155016 16.9042804,20.2793034 C16.8404786,20.3431052 16.7630046,20.3750063 16.6718591,20.3750063 L12.953118,20.3750063 C12.8619725,20.3750063 12.7844984,20.3431052 12.7206966,20.2793034 C12.6568948,20.2155016 12.6249937,20.1380275 12.6249937,20.046882 L12.6249937,18.8984473 C12.6249937,18.7526144 12.6660093,18.620453 12.7480403,18.5019638 C12.8300714,18.3834747 12.9440035,18.3060006 13.0898364,18.2695425 L13.472648,18.1601678 C13.8554596,18.4700627 14.3020729,18.6250104 14.8124885,18.6250104 C15.3229041,18.6250104 15.7695175,18.4700627 16.1523291,18.1601678 L16.5351407,18.2695425 C16.6809735,18.3060006 16.7949057,18.3834747 16.8769367,18.5019638 C16.9589678,18.620453 16.9999833,18.7526144 16.9999833,18.8984473 L16.9999833,20.046882 Z" id="icon-field-name"></path>
                    </g>
                </g>
            </g>
        </g>
    </g>
</svg>