<?xml version="1.0" encoding="UTF-8"?>
<svg width="9px" height="13px" viewBox="0 0 9 13" version="1.1" xmlns="http://www.w3.org/2000/svg" xmlns:xlink="http://www.w3.org/1999/xlink">
    <!-- Generator: Sketch 52.6 (67491) - http://www.bohemiancoding.com/sketch -->
    <title>icon-field-form</title>
    <desc>Created with Sketch.</desc>
    <g id="rough" stroke="none" stroke-width="1" fill="none" fill-rule="evenodd">
        <g id="Artboard" transform="translate(-82.000000, -64.000000)" fill="#2B333D">
            <path d="M90.6718543,66.7968946 C90.8906037,67.0156439 90.9999785,67.2812685 90.9999785,67.5937677 L90.9999785,75.3749991 C90.9999785,75.6874982 90.8906037,75.9531228 90.6718543,76.1718722 C90.453105,76.3906216 90.1874804,76.4999964 89.8749812,76.4999964 L83.1249973,76.4999964 C82.8124982,76.4999964 82.5468736,76.3906216 82.3281242,76.1718722 C82.1093749,75.9531228 82,75.6874982 82,75.3749991 L82,65.6250224 C82,65.3125232 82.1093749,65.0468986 82.3281242,64.8281493 C82.5468736,64.6093999 82.8124982,64.500025 83.1249973,64.500025 L87.9062359,64.500025 C88.2187351,64.500025 88.4843597,64.6093999 88.703109,64.8281493 L90.6718543,66.7968946 Z M90.1327931,67.3359558 L88.1640478,65.3672105 C88.1171729,65.3203356 88.0624857,65.2812731 87.9999857,65.2500232 L87.9999857,67.5000179 L90.2499803,67.5000179 C90.2187305,67.4375179 90.179668,67.3828307 90.1327931,67.3359558 Z M89.8749812,75.7499982 C89.9843561,75.7499982 90.0741995,75.714842 90.1445118,75.6445297 C90.2148242,75.5742174 90.2499803,75.484374 90.2499803,75.3749991 L90.2499803,68.2500161 L87.8124861,68.2500161 C87.6562364,68.2500161 87.5234245,68.1953288 87.4140496,68.085954 C87.3046747,67.9765791 87.2499875,67.8437672 87.2499875,67.6875174 L87.2499875,65.2500232 L83.1249973,65.2500232 C83.0156225,65.2500232 82.925779,65.2851794 82.8554667,65.3554917 C82.7851544,65.4258041 82.7499982,65.5156475 82.7499982,65.6250224 L82.7499982,75.3749991 C82.7499982,75.484374 82.7851544,75.5742174 82.8554667,75.6445297 C82.925779,75.714842 83.0156225,75.7499982 83.1249973,75.7499982 L89.8749812,75.7499982 Z M88.7499839,70.2187614 C88.7499839,70.2968861 88.7226401,70.3632924 88.6679529,70.4179797 C88.6132656,70.4726669 88.5468593,70.5000107 88.4687346,70.5000107 L84.531244,70.5000107 C84.4531193,70.5000107 84.3867129,70.4726669 84.3320257,70.4179797 C84.2773384,70.3632924 84.2499946,70.2968861 84.2499946,70.2187614 L84.2499946,70.0312618 C84.2499946,69.9531372 84.2773384,69.8867308 84.3320257,69.8320436 C84.3867129,69.7773563 84.4531193,69.7500125 84.531244,69.7500125 L88.4687346,69.7500125 C88.5468593,69.7500125 88.6132656,69.7773563 88.6679529,69.8320436 C88.7226401,69.8867308 88.7499839,69.9531372 88.7499839,70.0312618 L88.7499839,70.2187614 Z M88.7499839,71.7187578 C88.7499839,71.7968825 88.7226401,71.8632888 88.6679529,71.9179761 C88.6132656,71.9726633 88.5468593,72.0000072 88.4687346,72.0000072 L84.531244,72.0000072 C84.4531193,72.0000072 84.3867129,71.9726633 84.3320257,71.9179761 C84.2773384,71.8632888 84.2499946,71.7968825 84.2499946,71.7187578 L84.2499946,71.5312583 C84.2499946,71.4531336 84.2773384,71.3867272 84.3320257,71.33204 C84.3867129,71.2773527 84.4531193,71.2500089 84.531244,71.2500089 L88.4687346,71.2500089 C88.5468593,71.2500089 88.6132656,71.2773527 88.6679529,71.33204 C88.7226401,71.3867272 88.7499839,71.4531336 88.7499839,71.5312583 L88.7499839,71.7187578 Z M88.7499839,73.2187542 C88.7499839,73.2968789 88.7226401,73.3632853 88.6679529,73.4179725 C88.6132656,73.4726598 88.5468593,73.5000036 88.4687346,73.5000036 L84.531244,73.5000036 C84.4531193,73.5000036 84.3867129,73.4726598 84.3320257,73.4179725 C84.2773384,73.3632853 84.2499946,73.2968789 84.2499946,73.2187542 L84.2499946,73.0312547 C84.2499946,72.95313 84.2773384,72.8867237 84.3320257,72.8320364 C84.3867129,72.7773492 84.4531193,72.7500054 84.531244,72.7500054 L88.4687346,72.7500054 C88.5468593,72.7500054 88.6132656,72.7773492 88.6679529,72.8320364 C88.7226401,72.8867237 88.7499839,72.95313 88.7499839,73.0312547 L88.7499839,73.2187542 Z" id="icon-field-form"></path>
        </g>
    </g>
</svg>