<?xml version="1.0" encoding="UTF-8"?>
<svg width="18px" height="15px" viewBox="0 0 18 15" version="1.1" xmlns="http://www.w3.org/2000/svg" xmlns:xlink="http://www.w3.org/1999/xlink">
    <!-- Generator: Sketch 52.5 (67469) - http://www.bohemiancoding.com/sketch -->
    <title>icon-field-instruction</title>
    <desc>Created with Sketch.</desc>
    <g id="rough" stroke="none" stroke-width="1" fill="none" fill-rule="evenodd">
        <g id="Artboard" transform="translate(-54.000000, -20.000000)" fill="#2B333D">
            <path d="M59.6875,30.375 C60.252607,30.375 60.7675758,30.5117174 61.2324219,30.7851562 C61.6972679,31.0585951 62.0664049,31.4322893 62.3398438,31.90625 C62.6132826,32.3802107 62.75,32.8997368 62.75,33.4648438 C62.75,33.8111996 62.6223971,34.1119779 62.3671875,34.3671875 C62.1119779,34.6223971 61.8020852,34.75 61.4375,34.75 L55.3125,34.75 C54.9479148,34.75 54.6380221,34.6223971 54.3828125,34.3671875 C54.1276029,34.1119779 54,33.8111996 54,33.4648438 C54,32.8997368 54.1367174,32.3802107 54.4101562,31.90625 C54.6835951,31.4322893 55.0527321,31.0585951 55.5175781,30.7851562 C55.9824242,30.5117174 56.497393,30.375 57.0625,30.375 C57.135417,30.375 57.1992185,30.3841145 57.2539062,30.4023438 C57.6367207,30.5299486 58.0104148,30.59375 58.375,30.59375 C58.7395852,30.59375 59.1132793,30.5299486 59.4960938,30.4023438 C59.5507815,30.3841145 59.614583,30.375 59.6875,30.375 Z M58.375,29.5 C57.6458297,29.5 57.0260442,29.2447942 56.515625,28.734375 C56.0052058,28.2239558 55.75,27.6041703 55.75,26.875 C55.75,26.1458297 56.0052058,25.5260442 56.515625,25.015625 C57.0260442,24.5052058 57.6458297,24.25 58.375,24.25 C59.1041703,24.25 59.7239558,24.5052058 60.234375,25.015625 C60.7447942,25.5260442 61,26.1458297 61,26.875 C61,27.6041703 60.7447942,28.2239558 60.234375,28.734375 C59.7239558,29.2447942 59.1041703,29.5 58.375,29.5 Z M70.1875,20.75 C70.5520852,20.75 70.8619779,20.8821601 71.1171875,21.1464844 C71.3723971,21.4108086 71.5,21.7343731 71.5,22.1171875 L71.5,30.7578125 C71.5,31.1406269 71.3723971,31.4641914 71.1171875,31.7285156 C70.8619779,31.9928399 70.5520852,32.125 70.1875,32.125 L63.4882812,32.125 C63.3242179,31.4322882 62.9687527,30.8489607 62.421875,30.375 L64.5,30.375 L64.5,28.625 L68,28.625 L68,30.375 L69.75,30.375 L69.75,22.5 L60.125,22.5 L60.125,23.8671875 C59.559893,23.5390609 58.9765655,23.375 58.375,23.375 L58.375,22.1171875 C58.375,21.7343731 58.5026029,21.4108086 58.7578125,21.1464844 C59.0130221,20.8821601 59.3229148,20.75 59.6875,20.75 L70.1875,20.75 Z" id="icon-field-instruction"></path>
        </g>
    </g>
</svg>