<?xml version="1.0" encoding="UTF-8"?>
<svg width="20px" height="20px" viewBox="0 0 20 20" version="1.1" xmlns="http://www.w3.org/2000/svg" xmlns:xlink="http://www.w3.org/1999/xlink">
    <!-- Generator: Sketch 52.5 (67469) - http://www.bohemiancoding.com/sketch -->
    <title>icon-info</title>
    <desc>Created with Sketch.</desc>
    <g id="popup-/-alert-icons" stroke="none" stroke-width="1" fill="none" fill-rule="evenodd">
        <g id="Desktop-HD-Copy" transform="translate(-495.000000, -190.000000)" fill="#4285F4">
            <g id="Group-3-Copy-2" transform="translate(480.000000, 30.000000)">
                <g id="Rectangle-Copy-3" transform="translate(0.000000, 144.000000)">
                    <g id="icon-info" transform="translate(15.000000, 15.000000)">
                        <path d="M18.2030816,4.26565822 C18.5676639,4.39326189 18.8541219,4.61018865 19.0624546,4.91643792 C19.2707872,5.22268719 19.3749538,5.56721762 19.3749538,5.95002921 C19.3749538,8.57866897 18.8801631,10.990382 17.8905823,13.1851682 C17.0312094,15.0226638 15.885379,16.6304725 14.4530905,18.0085942 C13.2551765,19.157029 12.0051795,19.9864543 10.7030995,20.4968695 C10.2343506,20.7010355 9.76560172,20.7010355 9.29685283,20.4968695 C7.81248137,19.909892 6.44529713,18.9656232 5.19530011,17.6640638 C3.81509527,16.2604211 2.73436848,14.6143313 1.95312034,12.7257943 C1.06770559,10.6075704 0.62499851,8.34898201 0.62499851,5.95002921 C0.62499851,5.56721762 0.729165127,5.22268719 0.937497765,4.91643792 C1.1458304,4.61018865 1.43228845,4.39326189 1.79687072,4.26565822 L9.29685283,1.20316552 C9.76560172,0.998999539 10.2343506,0.998999539 10.7030995,1.20316552 L18.2030816,4.26565822 Z M9.99997616,18.8124985 C11.276015,18.3020833 12.4609078,17.4598978 13.5546552,16.2859421 C14.7525692,15.035424 15.690067,13.58074 16.3671485,11.92189 C17.1223548,10.0588734 17.4999583,8.06825313 17.4999583,5.95002921 L9.99997616,2.88753651 L2.49999404,5.95002921 C2.49999404,8.01721178 2.8645763,9.96955087 3.59374143,11.8070465 C4.27082295,13.4914175 5.19530011,14.9588617 6.36717232,16.2093797 C7.48696151,17.4088559 8.69789613,18.2765623 9.99997616,18.8124985 Z" id="-copy-3"></path>
                        <path d="M8.74999787,14.8750013 L8.74999787,11.7250088 L8.30357036,11.7250088 C8.18452314,11.7250088 8.08035661,11.6812589 7.99107111,11.5937591 C7.90178561,11.5062593 7.85714286,11.4041761 7.85714286,11.2875098 L7.85714286,10.2375123 C7.85714286,10.120846 7.90178561,10.0187628 7.99107111,9.93126304 C8.08035661,9.84376325 8.18452314,9.80001335 8.30357036,9.80001335 L10.8035644,9.80001335 C10.9226116,9.80001335 11.0267782,9.84376325 11.1160637,9.93126304 C11.2053492,10.0187628 11.2499919,10.120846 11.2499919,10.2375123 L11.2499919,14.8750013 L11.6964194,14.8750013 C11.8154666,14.8750013 11.9196332,14.9187511 12.0089187,15.0062509 C12.0982042,15.0937507 12.1428469,15.1958339 12.1428469,15.3125002 L12.1428469,16.3624977 C12.1428469,16.479164 12.0982042,16.5812472 12.0089187,16.668747 C11.9196332,16.7562468 11.8154666,16.7999967 11.6964194,16.7999967 L8.30357036,16.7999967 C8.18452314,16.7999967 8.08035661,16.7562468 7.99107111,16.668747 C7.90178561,16.5812472 7.85714286,16.479164 7.85714286,16.3624977 L7.85714286,15.3125002 C7.85714286,15.1958339 7.90178561,15.0937507 7.99107111,15.0062509 C8.08035661,14.9187511 8.18452314,14.8750013 8.30357036,14.8750013 L8.74999787,14.8750013 Z M9.99999489,5.60002337 C10.4464224,5.60002337 10.8258858,5.753148 11.138385,6.05939727 C11.4508843,6.36564654 11.6071339,6.73752065 11.6071339,7.17501961 C11.6071339,7.61251857 11.4508843,7.98439268 11.138385,8.29064195 C10.8258858,8.59689122 10.4464224,8.75001585 9.99999489,8.75001585 C9.55356738,8.75001585 9.174104,8.59689122 8.86160475,8.29064195 C8.54910549,7.98439268 8.39285587,7.61251857 8.39285587,7.17501961 C8.39285587,6.73752065 8.54910549,6.36564654 8.86160475,6.05939727 C9.174104,5.753148 9.55356738,5.60002337 9.99999489,5.60002337 Z" id=""></path>
                    </g>
                </g>
            </g>
        </g>
    </g>
</svg>