<?xml version="1.0" encoding="UTF-8"?>
<svg width="14px" height="15px" viewBox="0 0 14 15" version="1.1" xmlns="http://www.w3.org/2000/svg" xmlns:xlink="http://www.w3.org/1999/xlink">
    <!-- Generator: Sketch 52.5 (67469) - http://www.bohemiancoding.com/sketch -->
    <title>icon-field-state</title>
    <desc>Created with Sketch.</desc>
    <g id="rough" stroke="none" stroke-width="1" fill="none" fill-rule="evenodd">
        <g id="Artboard" transform="translate(-194.000000, -20.000000)" fill="#2B333D">
            <path d="M206.714813,22.2539319 C207.097625,23.5117414 207.216114,24.8698112 207.070281,26.3281409 C206.88799,28.0781367 206.322887,29.6367268 205.374973,31.003911 C204.244767,32.6445321 202.640604,33.8932272 200.562484,34.7499958 C198.484364,33.8932272 196.880201,32.6445321 195.749996,31.003911 C194.802081,29.6367268 194.236979,28.0781367 194.054687,26.3281409 C193.908855,24.8698112 194.027344,23.5117414 194.410155,22.2539319 C194.446613,22.1263279 194.51953,22.0169531 194.628905,21.9258077 C194.738279,21.8346622 194.856769,21.7890892 194.984373,21.7890892 C195.03906,21.7890892 195.084633,21.7982037 195.121091,21.8164329 C195.649736,21.9622658 196.17838,22.0351824 196.707025,22.0351824 C197.381502,22.0351824 198.014964,21.9349221 198.607411,21.7344019 C199.199858,21.5338816 199.723945,21.25133 200.179673,20.8867476 C200.289048,20.7956022 200.416652,20.7500292 200.562484,20.7500292 C200.708317,20.7500292 200.835921,20.7956022 200.945296,20.8867476 C201.401024,21.25133 201.925111,21.5338816 202.517558,21.7344019 C203.110004,21.9349221 203.743466,22.0351824 204.417944,22.0351824 C204.946588,22.0351824 205.475233,21.9622658 206.003878,21.8164329 C206.040336,21.7982037 206.085909,21.7890892 206.140596,21.7890892 C206.2682,21.7890892 206.386689,21.8346622 206.496064,21.9258077 C206.605439,22.0169531 206.678355,22.1263279 206.714813,22.2539319 Z M195.503903,23.2383045 C195.376299,23.894553 195.312497,24.5963743 195.312497,25.3437683 L205.812472,25.3437683 C205.812472,24.5963743 205.74867,23.894553 205.621066,23.2383045 C205.220025,23.3112212 204.818985,23.3476793 204.417944,23.3476793 C202.977843,23.3476793 201.69269,22.9739821 200.562484,22.2265882 C199.432279,22.9739821 198.147126,23.3476793 196.707025,23.3476793 C196.305984,23.3476793 195.904944,23.3112212 195.503903,23.2383045 Z M200.562484,33.3281242 C202.932271,32.2161476 204.509089,30.5299539 205.292942,28.2695425 C205.475233,27.7773562 205.611952,27.2395969 205.703097,26.6562651 L195.421872,26.6562651 C195.513017,27.2395969 195.649736,27.7773562 195.832027,28.2695425 C196.615879,30.5299539 198.192698,32.2161476 200.562484,33.3281242 Z" id="icon-field-state"></path>
        </g>
    </g>
</svg>