<?xml version="1.0" encoding="UTF-8"?>
<svg width="9px" height="6px" viewBox="0 0 9 6" version="1.1" xmlns="http://www.w3.org/2000/svg" xmlns:xlink="http://www.w3.org/1999/xlink">
    <!-- Generator: Sketch 52.5 (67469) - http://www.bohemiancoding.com/sketch -->
    <title></title>
    <desc>Created with Sketch.</desc>
    <g id="experiment" stroke="none" stroke-width="1" fill="none" fill-rule="evenodd">
        <g id="initial-copy-6" transform="translate(-1211.000000, -33.000000)" fill="#2B333D">
            <g id="header-copy" transform="translate(70.000000, 0.000000)">
                <g id="acc-details" transform="translate(646.000000, 16.000000)">
                    <g id="Acc" transform="translate(320.000000, 0.000000)">
                        <g id="acc-dd" transform="translate(66.000000, 0.000000)">
                            <g id="Group-6" transform="translate(10.000000, 10.000000)">
                                <path d="M103.15624,12.2656315 L99.1093747,8.24610985 C99.0364581,8.17319322 99,8.09571959 99,8.01368853 C99,7.93165748 99.0273437,7.85418384 99.0820311,7.78126721 L99.6289048,7.23439351 C99.7018214,7.17970615 99.7838524,7.15236246 99.8749979,7.15236246 C99.9661434,7.15236246 100.03906,7.17970615 100.093747,7.23439351 L103.37499,10.488292 L106.656232,7.23439351 C106.710919,7.17970615 106.783836,7.15236246 106.874981,7.15236246 C106.966127,7.15236246 107.048158,7.17970615 107.121074,7.23439351 L107.667948,7.78126721 C107.722635,7.85418384 107.749979,7.93165748 107.749979,8.01368853 C107.749979,8.09571959 107.722635,8.17319322 107.667948,8.24610985 L103.621083,12.2656315 C103.548166,12.3203189 103.466135,12.3476626 103.37499,12.3476626 C103.283844,12.3476626 103.201813,12.3203189 103.128896,12.2656315 L103.15624,12.2656315 Z" id=""></path>
                            </g>
                        </g>
                    </g>
                </g>
            </g>
        </g>
    </g>
</svg>