<?xml version="1.0" encoding="UTF-8"?>
<svg width="11px" height="13px" viewBox="0 0 11 13" version="1.1" xmlns="http://www.w3.org/2000/svg" xmlns:xlink="http://www.w3.org/1999/xlink">
    <!-- Generator: Sketch 52.6 (67491) - http://www.bohemiancoding.com/sketch -->
    <title></title>
    <desc>Created with Sketch.</desc>
    <g id="rough" stroke="none" stroke-width="1" fill="none" fill-rule="evenodd">
        <g id="oo-copy" transform="translate(-67.000000, -271.000000)" fill="#2B333D">
            <path d="M71.4999893,275.906265 L71.4999893,280.968752 C71.4999893,281.046877 71.4726455,281.113283 71.4179582,281.167971 C71.363271,281.222658 71.2968646,281.250002 71.2187399,281.250002 L70.6562413,281.250002 C70.5781166,281.250002 70.5117103,281.222658 70.457023,281.167971 C70.4023358,281.113283 70.374992,281.046877 70.374992,280.968752 L70.374992,275.906265 C70.374992,275.82814 70.4023358,275.761734 70.457023,275.707046 C70.5117103,275.652359 70.5781166,275.625015 70.6562413,275.625015 L71.2187399,275.625015 C71.2968646,275.625015 71.363271,275.652359 71.4179582,275.707046 C71.4726455,275.761734 71.4999893,275.82814 71.4999893,275.906265 Z M73.281235,275.625015 L73.8437337,275.625015 C73.9218584,275.625015 73.9882647,275.652359 74.042952,275.707046 C74.0976392,275.761734 74.124983,275.82814 74.124983,275.906265 L74.124983,280.968752 C74.124983,281.046877 74.0976392,281.113283 74.042952,281.167971 C73.9882647,281.222658 73.9218584,281.250002 73.8437337,281.250002 L73.281235,281.250002 C73.2031103,281.250002 73.136704,281.222658 73.0820167,281.167971 C73.0273295,281.113283 72.9999857,281.046877 72.9999857,280.968752 L72.9999857,275.906265 C72.9999857,275.82814 73.0273295,275.761734 73.0820167,275.707046 C73.136704,275.652359 73.2031103,275.625015 73.281235,275.625015 Z M76.9374763,273.375021 C77.0937261,273.375021 77.226538,273.429708 77.3359129,273.539083 C77.4452877,273.648458 77.499975,273.781269 77.499975,273.937519 L77.499975,274.218769 C77.499975,274.296893 77.4726312,274.3633 77.4179439,274.417987 C77.3632567,274.472674 77.2968503,274.500018 77.2187256,274.500018 L76.7499768,274.500018 L76.7499768,282.374999 C76.7499768,282.687498 76.6406019,282.953123 76.4218525,283.171872 C76.2031032,283.390622 75.9374786,283.499996 75.6249794,283.499996 L68.8749955,283.499996 C68.5624964,283.499996 68.2968718,283.390622 68.0781224,283.171872 C67.8593731,282.953123 67.7499982,282.687498 67.7499982,282.374999 L67.7499982,274.500018 L67.2812493,274.500018 C67.2031246,274.500018 67.1367183,274.472674 67.0820311,274.417987 C67.0273438,274.3633 67,274.296893 67,274.218769 L67,273.937519 C67,273.781269 67.0546873,273.648458 67.1640621,273.539083 C67.273437,273.429708 67.4062489,273.375021 67.5624987,273.375021 L69.2968695,273.375021 L70.0937426,272.039086 C70.2031175,271.867212 70.3437421,271.734399 70.5156166,271.64065 C70.6874911,271.5469 70.8749906,271.500025 71.0781153,271.500025 L73.4218597,271.500025 C73.6249843,271.500025 73.8124839,271.5469 73.9843583,271.64065 C74.1562328,271.734399 74.2968575,271.867212 74.4062323,272.039086 L75.2031054,273.375021 L76.9374763,273.375021 Z M70.6093664,273.375021 L73.8906086,273.375021 L73.4687346,272.695335 C73.4374848,272.64846 73.3984222,272.625022 73.3515474,272.625022 L71.1484276,272.625022 C71.1015527,272.625022 71.0624902,272.64846 71.0312404,272.695335 L70.6093664,273.375021 Z M75.6249794,274.500018 L68.8749955,274.500018 L68.8749955,282.234374 C68.8749955,282.265624 68.8906206,282.296874 68.9218704,282.328124 C68.9531202,282.359374 68.9843704,282.374999 69.0156202,282.374999 L75.4843548,282.374999 C75.5156046,282.374999 75.5468547,282.359374 75.5781045,282.328124 C75.6093544,282.296874 75.6249794,282.265624 75.6249794,282.234374 L75.6249794,274.500018 Z" id=""></path>
        </g>
    </g>
</svg>