<?xml version="1.0" encoding="UTF-8"?>
<svg width="16px" height="15px" viewBox="0 0 16 15" version="1.1" xmlns="http://www.w3.org/2000/svg" xmlns:xlink="http://www.w3.org/1999/xlink">
    <!-- Generator: Sketch 55 (78076) - https://sketchapp.com -->
    <title>icon-notifications</title>
    <desc>Created with Sketch.</desc>
    <g id="rough" stroke="none" stroke-width="1" fill="none" fill-rule="evenodd">
        <g id="Artboard" transform="translate(-205.000000, -219.000000)" fill="#2B333D" fill-rule="nonzero">
            <path d="M219.874965,224.808611 C220.148401,224.954444 220.362593,225.164079 220.517541,225.437516 C220.672489,225.710952 220.749962,226.002619 220.749962,226.312514 C220.749962,226.622409 220.672489,226.914075 220.517541,227.187511 C220.362593,227.460948 220.148401,227.670583 219.874965,227.816416 L219.874965,232 C219.874965,232.182291 219.811163,232.355468 219.683559,232.51953 C219.519497,232.756509 219.291633,232.874998 218.999967,232.874998 C218.799446,232.874998 218.617155,232.811196 218.453093,232.683592 L216.12888,230.824222 C215.545548,230.350264 214.898414,229.990239 214.187478,229.744146 C213.476542,229.498053 212.747377,229.375006 211.999983,229.375006 L211.23436,229.375006 C211.161444,229.666672 211.124985,229.958338 211.124985,230.250004 C211.124985,231.033857 211.361964,231.735678 211.835921,232.355468 C211.963525,232.537759 212.013655,232.738279 211.986311,232.957029 C211.958968,233.175778 211.863265,233.362627 211.699203,233.517575 C211.535141,233.672522 211.343735,233.749996 211.124985,233.749996 L208.199211,233.749996 C208.035149,233.749996 207.884759,233.70898 207.74804,233.626949 C207.611322,233.544918 207.506505,233.430986 207.433588,233.285153 C206.97786,232.31901 206.749996,231.307293 206.749996,230.250004 L206.749996,229.375006 C206.25781,229.375006 205.843097,229.206387 205.505858,228.869148 C205.16862,228.531909 205,228.117197 205,227.62501 L205,225.000017 C205,224.50783 205.16862,224.093118 205.505858,223.755879 C205.843097,223.41864 206.25781,223.250021 206.749996,223.250021 L211.999983,223.250021 C212.747377,223.250021 213.476542,223.126974 214.187478,222.880881 C214.898414,222.634788 215.545548,222.274763 216.12888,221.800806 L218.453093,219.941435 C218.617155,219.813831 218.799446,219.750029 218.999967,219.750029 C219.291633,219.750029 219.519497,219.868518 219.683559,220.105497 C219.811163,220.269559 219.874965,220.442736 219.874965,220.625027 L219.874965,224.808611 Z M208.499992,232.437499 L210.332019,232.437499 C209.985665,231.763021 209.812489,231.033857 209.812489,230.250004 C209.812489,229.994797 209.839832,229.70313 209.89452,229.375006 L208.11718,229.375006 L208.11718,229.429694 C208.080722,229.739589 208.062493,230.013025 208.062493,230.250004 C208.062493,231.015627 208.208326,231.744792 208.499992,232.437499 Z M211.562484,228.062509 L211.562484,224.562518 L206.749996,224.562518 C206.622392,224.562518 206.517575,224.603533 206.435543,224.685564 C206.353512,224.767595 206.312497,224.872413 206.312497,225.000017 L206.312497,227.62501 C206.312497,227.752614 206.353512,227.857432 206.435543,227.939463 C206.517575,228.021494 206.622392,228.062509 206.749996,228.062509 L211.562484,228.062509 Z M218.562468,231.097658 L218.562468,221.527369 L216.94919,222.839866 C215.764297,223.78778 214.406228,224.343768 212.874981,224.50783 L212.874981,228.117197 C214.406228,228.281259 215.764297,228.837247 216.94919,229.785162 L218.562468,231.097658 Z" id="icon-notifications"></path>
        </g>
    </g>
</svg>