<?xml version="1.0" encoding="UTF-8"?>
<svg width="14px" height="15px" viewBox="0 0 14 15" version="1.1" xmlns="http://www.w3.org/2000/svg" xmlns:xlink="http://www.w3.org/1999/xlink">
    <!-- Generator: Sketch 52.5 (67469) - http://www.bohemiancoding.com/sketch -->
    <title>icon-field-patch</title>
    <desc>Created with Sketch.</desc>
    <g id="rough" stroke="none" stroke-width="1" fill="none" fill-rule="evenodd">
        <g id="Artboard" transform="translate(-284.000000, -83.000000)" fill="#2B333D">
            <path d="M284.218749,87.2500209 C284.164062,87.2500209 284.113932,87.2272346 284.068359,87.1816616 C284.022786,87.1360887 284,87.0859588 284,87.0312714 L284,86.5937724 C284,86.5390851 284.022786,86.4889551 284.068359,86.4433822 C284.113932,86.3978092 284.164062,86.3750229 284.218749,86.3750229 L286.624994,86.3750229 L286.624994,83.9687787 C286.624994,83.9140913 286.64778,83.8639614 286.693353,83.8183884 C286.738926,83.7728155 286.789056,83.7500292 286.843743,83.7500292 L287.281242,83.7500292 C287.33593,83.7500292 287.386059,83.7728155 287.431632,83.8183884 C287.477205,83.8639614 287.499992,83.9140913 287.499992,83.9687787 L287.499992,86.3750229 L289.906236,86.3750229 C289.960923,86.3750229 290.011053,86.3978092 290.056626,86.4433822 C290.102199,86.4889551 290.124985,86.5390851 290.124985,86.5937724 L290.124985,87.0312714 C290.124985,87.0859588 290.102199,87.1360887 290.056626,87.1816616 C290.011053,87.2272346 289.960923,87.2500209 289.906236,87.2500209 L287.499992,87.2500209 L287.499992,89.6562651 C287.499992,89.7109525 287.477205,89.7610824 287.431632,89.8066554 C287.386059,89.8522283 287.33593,89.8750146 287.281242,89.8750146 L286.843743,89.8750146 C286.789056,89.8750146 286.738926,89.8522283 286.693353,89.8066554 C286.64778,89.7610824 286.624994,89.7109525 286.624994,89.6562651 L286.624994,87.2500209 L284.218749,87.2500209 Z M297.343718,84.4062776 C297.52601,84.4427357 297.680957,84.5429961 297.808561,84.7070582 C297.936165,84.8711203 297.999967,85.0442968 297.999967,85.2265882 C297.999967,87.5052284 297.425749,89.619807 296.277314,91.5703231 C295.183567,93.4479229 293.688779,94.9427107 291.79295,96.0546874 C289.860663,97.1848929 287.755199,97.7499958 285.476559,97.7499958 C285.294268,97.7499958 285.121091,97.686194 284.957029,97.55859 C284.792967,97.430986 284.692707,97.2760388 284.656248,97.0937474 L284.027344,94.3320352 C283.972656,94.131515 283.990886,93.9401092 284.082031,93.7578178 C284.173177,93.5755265 284.31901,93.4388081 284.51953,93.3476626 L287.472648,92.0898531 C287.654939,92.0169364 287.83723,92.0032646 288.019522,92.0488375 C288.201813,92.0944105 288.35676,92.1901134 288.484364,92.3359462 L289.687486,93.8125052 C290.635401,93.3385482 291.483055,92.7278722 292.230449,91.9804783 C292.977843,91.2330844 293.588519,90.3854302 294.062476,89.4375156 L292.585917,88.2343935 C292.440084,88.1067895 292.344381,87.9518422 292.298808,87.7695509 C292.253235,87.5872595 292.266907,87.4049685 292.339824,87.2226772 L293.597633,84.2695592 C293.688779,84.069039 293.825497,83.9232057 294.007789,83.8320603 C294.19008,83.7409148 294.381486,83.7226855 294.582006,83.7773729 L297.343718,84.4062776 Z M285.503903,96.8749979 C287.600252,96.8749979 289.550768,96.3463535 291.355451,95.2890642 C293.105447,94.2682334 294.499975,92.8737055 295.539035,91.1054804 C296.596324,89.3190265 297.124969,87.36851 297.124969,85.2539319 L294.3906,84.6250271 L293.132791,87.5781451 L295.12888,89.1914225 C294.472631,90.6132941 293.716123,91.7526144 292.859354,92.6093831 C292.002585,93.4661517 290.863265,94.2226605 289.441393,94.8789089 L287.828116,92.8828199 L284.874998,94.1406294 L285.503903,96.8749979 Z" id="icon-field-patch"></path>
        </g>
    </g>
</svg>