<?xml version="1.0" encoding="UTF-8"?>
<svg width="16px" height="15px" viewBox="0 0 16 15" version="1.1" xmlns="http://www.w3.org/2000/svg" xmlns:xlink="http://www.w3.org/1999/xlink">
    <!-- Generator: Sketch 52.5 (67469) - http://www.bohemiancoding.com/sketch -->
    <title>icon-field-postal</title>
    <desc>Created with Sketch.</desc>
    <g id="rough" stroke="none" stroke-width="1" fill="none" fill-rule="evenodd">
        <g id="Artboard" transform="translate(-114.000000, -20.000000)" fill="#2B333D">
            <path d="M121.875,20.75 C122.494795,20.75 123.069008,20.9049464 123.597656,21.2148438 C124.126305,21.5247411 124.545571,21.9440078 124.855469,22.4726562 C125.165366,23.0013047 125.320312,23.5755177 125.320312,24.1953125 C125.320312,24.869795 124.91016,25.8268167 124.089844,27.0664062 C123.561195,27.8502643 122.932295,28.6796831 122.203125,29.5546875 C122.111979,29.664063 122.002605,29.71875 121.875,29.71875 C121.747395,29.71875 121.638021,29.664063 121.546875,29.5546875 C120.817705,28.6796831 120.188805,27.8502643 119.660156,27.0664062 C118.83984,25.8268167 118.429688,24.869795 118.429688,24.1953125 C118.429688,23.5755177 118.584634,23.0013047 118.894531,22.4726562 C119.204429,21.9440078 119.623695,21.5247411 120.152344,21.2148438 C120.680992,20.9049464 121.255205,20.75 121.875,20.75 Z M121.875,25.34375 C122.184897,25.34375 122.453775,25.2298188 122.681641,25.0019531 C122.909506,24.7740874 123.023438,24.5052099 123.023438,24.1953125 C123.023438,23.8854151 122.909506,23.6165376 122.681641,23.3886719 C122.453775,23.1608062 122.184897,23.046875 121.875,23.046875 C121.565103,23.046875 121.296225,23.1608062 121.068359,23.3886719 C120.840494,23.6165376 120.726562,23.8854151 120.726562,24.1953125 C120.726562,24.5052099 120.840494,24.7740874 121.068359,25.0019531 C121.296225,25.2298188 121.565103,25.34375 121.875,25.34375 Z M114.546875,26.65625 L117.800781,25.34375 C117.928386,25.7447937 118.11979,26.1731748 118.375,26.6289062 L118.375,33 L114.601562,34.7226562 C114.455728,34.777344 114.319011,34.759115 114.191406,34.6679688 C114.063801,34.5768225 114,34.4583341 114,34.3125 L114,27.4765625 C114,27.2942699 114.05013,27.1302091 114.150391,26.984375 C114.250652,26.8385409 114.382812,26.729167 114.546875,26.65625 Z M121.875,30.59375 C122.276044,30.59375 122.61328,30.4388036 122.886719,30.1289062 C123.488284,29.3997359 124.026039,28.69792 124.5,28.0234375 L124.5,34.75 L119.25,33 L119.25,28.0234375 C119.723961,28.69792 120.261716,29.3997359 120.863281,30.1289062 C121.13672,30.4388036 121.473956,30.59375 121.875,30.59375 Z M129.148438,25.1523438 C129.294272,25.097656 129.430989,25.115885 129.558594,25.2070312 C129.686199,25.2981775 129.75,25.4166659 129.75,25.5625 L129.75,32.3984375 C129.75,32.5807301 129.69987,32.7447909 129.599609,32.890625 C129.499348,33.0364591 129.367188,33.145833 129.203125,33.21875 L125.375,34.75 L125.375,26.875 L129.148438,25.1523438 Z" id="icon-field-postal"></path>
        </g>
    </g>
</svg>