<?xml version="1.0" encoding="UTF-8"?>
<svg width="14px" height="11px" viewBox="0 0 14 11" version="1.1" xmlns="http://www.w3.org/2000/svg" xmlns:xlink="http://www.w3.org/1999/xlink">
    <!-- Generator: Sketch 52.5 (67469) - http://www.bohemiancoding.com/sketch -->
    <title>icon-field-message</title>
    <desc>Created with Sketch.</desc>
    <g id="experiment" stroke="none" stroke-width="1" fill="none" fill-rule="evenodd">
        <g id="initial-copy-6" transform="translate(-120.000000, -286.000000)" fill="#2B333D">
            <g id="Aside-content" transform="translate(90.000000, 90.000000)">
                <g id="drags" transform="translate(20.000000, 94.000000)">
                    <g id="drag-copy-4" transform="translate(0.000000, 90.000000)">
                        <path d="M22.6874698,12.500025 C23.0520521,12.500025 23.3619474,12.627629 23.617155,12.8828366 C23.8723626,13.1380442 23.9999666,13.4479396 23.9999666,13.8125219 L23.9999666,21.6875031 C23.9999666,22.0520855 23.8723626,22.3619808 23.617155,22.6171884 C23.3619474,22.872396 23.0520521,23 22.6874698,23 L11.3124969,23 C10.9479145,23 10.6380192,22.872396 10.3828116,22.6171884 C10.127604,22.3619808 10,22.0520855 10,21.6875031 L10,13.8125219 C10,13.4479396 10.127604,13.1380442 10.3828116,12.8828366 C10.6380192,12.627629 10.9479145,12.500025 11.3124969,12.500025 L22.6874698,12.500025 Z M22.6874698,13.8125219 L11.3124969,13.8125219 L11.3124969,14.933613 C11.950516,15.4440286 13.1809819,16.410172 15.0038943,17.8320436 L15.2499875,18.050793 C15.6145698,18.360688 15.9062359,18.5794375 16.1249854,18.7070415 C16.4713389,18.9440202 16.7630046,19.0625094 16.9999833,19.0625094 C17.2369621,19.0625094 17.5286277,18.9440202 17.8749812,18.7070415 C18.0937307,18.5794375 18.3853968,18.360688 18.7499791,18.050793 L18.9960723,17.8320436 C20.8189848,16.4284012 22.0494506,15.4622574 22.6874698,14.933613 L22.6874698,13.8125219 Z M11.3124969,21.6875031 L22.6874698,21.6875031 L22.6874698,16.6015778 L19.5156023,19.1171968 C19.0598741,19.5000083 18.6861773,19.7734452 18.3945112,19.9375073 C17.9023249,20.2291734 17.4374823,20.3750063 16.9999833,20.3750063 C16.5624844,20.3750063 16.0885273,20.2291734 15.5781117,19.9375073 C15.3046749,19.7734452 14.9309777,19.5000083 14.4570206,19.1171968 L11.3124969,16.6015778 L11.3124969,21.6875031 Z" id="icon-field-message"></path>
                    </g>
                </g>
            </g>
        </g>
    </g>
</svg>