<?xml version="1.0" encoding="UTF-8"?>
<svg width="10px" height="11px" viewBox="0 0 10 11" version="1.1" xmlns="http://www.w3.org/2000/svg" xmlns:xlink="http://www.w3.org/1999/xlink">
    <!-- Generator: Sketch 52.5 (67469) - http://www.bohemiancoding.com/sketch -->
    <title>icon-phone-dull</title>
    <desc>Created with Sketch.</desc>
    <g id="Finalized" stroke="none" stroke-width="1" fill="none" fill-rule="evenodd" opacity="0.5">
        <g id="Call-Transfer" transform="translate(-122.000000, -252.000000)" fill="#2B333D">
            <g id="Aside-content" transform="translate(70.000000, 70.000000)">
                <g id="Group-7" transform="translate(20.000000, 99.000000)">
                    <g id="Indrakumar" transform="translate(0.000000, 54.000000)">
                        <g id="Group-6" transform="translate(22.000000, 0.000000)">
                            <g id="Tags" transform="translate(0.000000, 24.000000)">
                                <path d="M19.6288833,5.73830095 C19.7460705,5.75132185 19.8372162,5.80340486 19.9023201,5.89455057 C19.9674241,5.98569629 19.9999762,6.08335231 19.9999762,6.18751863 C19.9999762,7.82813971 19.5898209,9.35157358 18.7695103,10.7578202 C17.9622207,12.1250045 16.8749836,13.2122416 15.5077994,14.0195312 C14.1015527,14.8398417 12.5781189,15.249997 10.9374978,15.249997 C10.8333314,15.249997 10.7356754,15.2174449 10.6445297,15.152341 C10.553384,15.0872371 10.501301,14.9960914 10.4882801,14.8789042 L10.0195312,12.847659 C9.9934897,12.7434927 10.0065103,12.6393261 10.0585936,12.5351597 C10.1106769,12.4309934 10.1888017,12.3593789 10.2929681,12.3203165 L12.4804628,11.3828187 C12.5716086,11.3437563 12.6660093,11.337246 12.7636653,11.3632875 C12.8613213,11.389329 12.9492117,11.4414124 13.0273365,11.5195372 L13.9843655,12.6914094 C14.7525927,12.3398477 15.4329299,11.8645885 16.0253763,11.2656315 C16.6178227,10.6666745 17.0898268,9.98959299 17.4413885,9.23438636 L16.2695163,8.27735739 C16.1913915,8.19923258 16.1393082,8.11134216 16.1132667,8.01368615 C16.0872252,7.91603013 16.0937355,7.82162941 16.1327979,7.7304837 L17.0702956,5.54298891 C17.109358,5.43882259 17.1809726,5.36069778 17.2851389,5.30861447 C17.3893052,5.25653116 17.4934718,5.24351056 17.5976381,5.26955207 L19.6288833,5.73830095 Z" id="icon-phone-dull"></path>
                            </g>
                        </g>
                    </g>
                </g>
            </g>
        </g>
    </g>
</svg>