<?xml version="1.0" encoding="UTF-8"?>
<svg width="14px" height="15px" viewBox="0 0 14 15" version="1.1" xmlns="http://www.w3.org/2000/svg" xmlns:xlink="http://www.w3.org/1999/xlink">
    <!-- Generator: Sketch 52.5 (67469) - http://www.bohemiancoding.com/sketch -->
    <title>icon-field-transfer</title>
    <desc>Created with Sketch.</desc>
    <g id="experiment" stroke="none" stroke-width="1" fill="none" fill-rule="evenodd" opacity="0.800000012">
        <g id="initial-copy-6" transform="translate(-281.000000, -464.000000)" fill="#000000">
            <g id="Aside-content" transform="translate(90.000000, 90.000000)">
                <g id="drags" transform="translate(20.000000, 94.000000)">
                    <g id="drag-copy-14" transform="translate(161.000000, 270.000000)">
                        <g id="icon-field-transfer" transform="translate(10.000000, 10.000000)">
                            <path d="M13.4804366,1.43362133 C13.6444987,1.45185059 13.7721027,1.5247668 13.8632482,1.6523708 C13.9543937,1.77997481 13.9999666,1.91669323 13.9999666,2.06252608 C13.9999666,4.3593956 13.4257492,6.49220302 12.2773145,8.46094832 C11.147109,10.3750063 9.62497705,11.8971382 7.71091912,13.0273437 C5.74217381,14.1757784 3.60936639,14.7499958 1.31249687,14.7499958 C1.16666402,14.7499958 1.0299456,14.7044229 0.902341599,14.6132774 C0.774737597,14.5221319 0.701821382,14.3945279 0.68359212,14.2304658 L0.0273436848,11.3867226 C-0.00911442253,11.2408897 0.00911442253,11.0950565 0.0820310544,10.9492236 C0.154947686,10.8033908 0.264322426,10.7031305 0.410155272,10.6484431 L3.47264797,9.33594624 C3.60025197,9.28125887 3.73241298,9.27214444 3.8691314,9.30860255 C4.00584982,9.34506066 4.12889641,9.41797729 4.23827115,9.52735203 L5.5781117,11.1679731 C6.65362983,10.6757868 7.6061018,10.0104239 8.43552676,9.17188413 C9.26495173,8.33334432 9.92575759,7.38543019 10.4179439,6.32814091 L8.77732282,4.98830035 C8.66794808,4.87892561 8.59503145,4.75587903 8.55857334,4.61916061 C8.52211524,4.48244218 8.53122966,4.35028118 8.58591703,4.22267718 L9.8984139,1.16018448 C9.95310127,1.01435163 10.0533616,0.904976893 10.1991944,0.832060261 C10.3450273,0.759143629 10.4908605,0.740914784 10.6366934,0.777372891 L13.4804366,1.43362133 Z" id=""></path>
                            <path d="M3.76776695,6.65810361 C3.76776695,6.52789549 3.81333966,6.41721887 3.90448538,6.32607315 C3.99563109,6.23492744 4.10630771,6.18935473 4.23651584,6.18935473 L11.2677491,6.18935473 L11.2677491,5.25185696 C11.2677491,5.12164884 11.3133218,5.01097222 11.4044675,4.91982651 C11.4956132,4.82868079 11.6062898,4.78310808 11.736498,4.78310808 C11.8667061,4.78310808 11.9773827,4.82868079 12.0685284,4.91982651 L13.6310247,6.48232278 C13.7221704,6.5734685 13.7677431,6.68414512 13.7677431,6.81435324 C13.7677431,6.94456136 13.7221704,7.05523798 13.6310247,7.1463837 L12.0685284,8.70887997 C11.9773827,8.80002569 11.8667061,8.8455984 11.736498,8.8455984 C11.6062898,8.8455984 11.4956132,8.80002569 11.4044675,8.70887997 C11.3133218,8.61773426 11.2677491,8.50705764 11.2677491,8.37684951 L11.2677491,7.43935175 L4.23651584,7.43935175 C4.10630771,7.43935175 3.99563109,7.39377904 3.90448538,7.30263333 C3.81333966,7.21148761 3.76776695,7.10081099 3.76776695,6.97060287 L3.76776695,6.65810361 Z M13.2989942,9.93934579 C13.4292024,9.93934579 13.539879,9.9849185 13.6310247,10.0760642 C13.7221704,10.1672099 13.7677431,10.2778865 13.7677431,10.4080947 L13.7677431,10.7205939 C13.7677431,10.850802 13.7221704,10.9614787 13.6310247,11.0526244 C13.539879,11.1437701 13.4292024,11.1893428 13.2989942,11.1893428 L6.26776099,11.1893428 L6.26776099,12.1268406 C6.26776099,12.2570487 6.22218828,12.3677253 6.13104257,12.458871 C6.03989685,12.5500167 5.92922023,12.5955895 5.79901211,12.5955895 C5.66880399,12.5955895 5.55812737,12.5500167 5.46698165,12.458871 L3.90448538,10.8963748 C3.81333966,10.805229 3.76776695,10.6945524 3.76776695,10.5643443 C3.76776695,10.4341362 3.81333966,10.3234596 3.90448538,10.2323138 L5.46698165,8.66981757 C5.55812737,8.57867185 5.66880399,8.53309914 5.79901211,8.53309914 C5.92922023,8.53309914 6.03989685,8.57867185 6.13104257,8.66981757 C6.22218828,8.76096328 6.26776099,8.8716399 6.26776099,9.00184802 L6.26776099,9.93934579 L13.2989942,9.93934579 Z" id="" stroke="#FFFFFF" stroke-width="0.3" transform="translate(8.767755, 8.689349) rotate(45.000000) translate(-8.767755, -8.689349) "></path>
                        </g>
                    </g>
                </g>
            </g>
        </g>
    </g>
</svg>