<?xml version="1.0" encoding="UTF-8"?>
<svg width="14px" height="15px" viewBox="0 0 14 15" version="1.1" xmlns="http://www.w3.org/2000/svg" xmlns:xlink="http://www.w3.org/1999/xlink">
    <!-- Generator: Sketch 52.5 (67469) - http://www.bohemiancoding.com/sketch -->
    <title>icon-search-dull</title>
    <desc>Created with Sketch.</desc>
    <g id="Finalized-Copy-5" stroke="none" stroke-width="1" fill="none" fill-rule="evenodd" opacity="0.400000006">
        <g id="search-view_more2" transform="translate(-1120.000000, -102.000000)" fill="#2B333D">
            <g id="peers-list" transform="translate(1090.000000, 0.000000)">
                <g id="search-container" transform="translate(20.000000, 90.000000)">
                    <path d="M23.9179356,25.5742174 C23.9726229,25.6289048 23.9999666,25.7018214 23.9999666,25.7929669 C23.9999666,25.8841123 23.9726229,25.9661434 23.9179356,26.03906 L23.2890308,26.6406211 C23.2161142,26.7135377 23.1340831,26.7499958 23.0429377,26.7499958 C22.9517922,26.7499958 22.8788755,26.7135377 22.8241882,26.6406211 L19.4882586,23.3320352 C19.4335713,23.2591186 19.4062276,23.1862024 19.4062276,23.1132857 L19.4062276,22.7304742 C18.895812,23.1679731 18.3215946,23.5097692 17.6835754,23.7558623 C17.0455563,24.0019555 16.380193,24.1250021 15.6874864,24.1250021 C14.6484264,24.1250021 13.6959549,23.8697945 12.8300714,23.3593789 C11.9641879,22.8489633 11.2760388,22.1608142 10.7656232,21.2949307 C10.2552076,20.4290472 10,19.4765757 10,18.4375156 C10,17.3984556 10.2552076,16.4459841 10.7656232,15.5801006 C11.2760388,14.7142171 11.9641879,14.026068 12.8300714,13.5156524 C13.6959549,13.0052368 14.6484264,12.7500292 15.6874864,12.7500292 C16.7265465,12.7500292 17.679018,13.0052368 18.5449015,13.5156524 C19.410785,14.026068 20.0989341,14.7142171 20.6093497,15.5801006 C21.1197653,16.4459841 21.3749729,17.3984556 21.3749729,18.4375156 C21.3749729,19.1302222 21.2519263,19.7955855 21.0058331,20.4336046 C20.75974,21.0716238 20.4179439,21.6458412 19.980445,22.1562568 L20.3632565,22.1562568 C20.454402,22.1562568 20.5273187,22.1836005 20.582006,22.2382878 L23.9179356,25.5742174 Z M15.6874864,22.8125052 C16.4713389,22.8125052 17.2005035,22.616542 17.8749812,22.224616 C18.5494589,21.83269 19.0826608,21.2994881 19.4745868,20.6250104 C19.8665128,19.9505327 20.062476,19.2213681 20.062476,18.4375156 C20.062476,17.6536632 19.8665128,16.9244986 19.4745868,16.2500209 C19.0826608,15.5755432 18.5494589,15.0423413 17.8749812,14.6504153 C17.2005035,14.2584893 16.4713389,14.0625261 15.6874864,14.0625261 C14.903634,14.0625261 14.1744694,14.2584893 13.4999917,14.6504153 C12.825514,15.0423413 12.2923121,15.5755432 11.9003861,16.2500209 C11.5084601,16.9244986 11.3124969,17.6536632 11.3124969,18.4375156 C11.3124969,19.2213681 11.5084601,19.9505327 11.9003861,20.6250104 C12.2923121,21.2994881 12.825514,21.83269 13.4999917,22.224616 C14.1744694,22.616542 14.903634,22.8125052 15.6874864,22.8125052 Z" id="icon-search-dull"></path>
                </g>
            </g>
        </g>
    </g>
</svg>