<?xml version="1.0" encoding="UTF-8"?>
<svg width="14px" height="15px" viewBox="0 0 14 15" version="1.1" xmlns="http://www.w3.org/2000/svg" xmlns:xlink="http://www.w3.org/1999/xlink">
    <!-- Generator: Sketch 52.5 (67469) - http://www.bohemiancoding.com/sketch -->
    <title></title>
    <desc>Created with Sketch.</desc>
    <g id="experiment" stroke="none" stroke-width="1" fill="none" fill-rule="evenodd">
        <g id="initial-copy-6" transform="translate(-1350.000000, -28.000000)" fill="#2B333D">
            <g id="header-copy" transform="translate(70.000000, 0.000000)">
                <g id="header-right" transform="translate(1280.000000, 28.000000)">
                    <path d="M13.9179356,13.5742174 C13.9726229,13.6289048 13.9999666,13.7018214 13.9999666,13.7929669 C13.9999666,13.8841123 13.9726229,13.9661434 13.9179356,14.03906 L13.2890308,14.6406211 C13.2161142,14.7135377 13.1340831,14.7499958 13.0429377,14.7499958 C12.9517922,14.7499958 12.8788755,14.7135377 12.8241882,14.6406211 L9.48825863,11.3320352 C9.43357126,11.2591186 9.40622757,11.1862024 9.40622757,11.1132857 L9.40622757,10.7304742 C8.89581198,11.1679731 8.3215946,11.5097692 7.68357543,11.7558623 C7.04555626,12.0019555 6.38019298,12.1250021 5.68748644,12.1250021 C4.64842642,12.1250021 3.69595487,11.8697945 2.83007138,11.3593789 C1.96418789,10.8489633 1.27603876,10.1608142 0.765623175,9.29493071 C0.255207586,8.42904722 0,7.47657567 0,6.43751565 C0,5.39845562 0.255207586,4.44598408 0.765623175,3.58010058 C1.27603876,2.71421709 1.96418789,2.02606797 2.83007138,1.51565238 C3.69595487,1.00523679 4.64842642,0.750029206 5.68748644,0.750029206 C6.72654646,0.750029206 7.67901801,1.00523679 8.5449015,1.51565238 C9.41078499,2.02606797 10.0989341,2.71421709 10.6093497,3.58010058 C11.1197653,4.44598408 11.3749729,5.39845562 11.3749729,6.43751565 C11.3749729,7.13022219 11.2519263,7.79558546 11.0058331,8.43360464 C10.75974,9.07162381 10.4179439,9.64584119 9.98044495,10.1562568 L10.3632565,10.1562568 C10.454402,10.1562568 10.5273187,10.1836005 10.582006,10.2382878 L13.9179356,13.5742174 Z M5.68748644,10.8125052 C6.47133888,10.8125052 7.20050353,10.616542 7.87498122,10.224616 C8.54945892,9.83268998 9.08266078,9.29948813 9.47458679,8.62501043 C9.8665128,7.95053273 10.062476,7.22136808 10.062476,6.43751565 C10.062476,5.65366321 9.8665128,4.92449856 9.47458679,4.25002086 C9.08266078,3.57554316 8.54945892,3.04234131 7.87498122,2.6504153 C7.20050353,2.25848929 6.47133888,2.06252608 5.68748644,2.06252608 C4.903634,2.06252608 4.17446935,2.25848929 3.49999166,2.6504153 C2.82551396,3.04234131 2.2923121,3.57554316 1.90038609,4.25002086 C1.50846008,4.92449856 1.31249687,5.65366321 1.31249687,6.43751565 C1.31249687,7.22136808 1.50846008,7.95053273 1.90038609,8.62501043 C2.2923121,9.29948813 2.82551396,9.83268998 3.49999166,10.224616 C4.17446935,10.616542 4.903634,10.8125052 5.68748644,10.8125052 Z" id=""></path>
                </g>
            </g>
        </g>
    </g>
</svg>