<?xml version="1.0" encoding="UTF-8"?>
<svg width="13px" height="13px" viewBox="0 0 13 13" version="1.1" xmlns="http://www.w3.org/2000/svg" xmlns:xlink="http://www.w3.org/1999/xlink">
    <!-- Generator: Sketch 52.5 (67469) - http://www.bohemiancoding.com/sketch -->
    <title>icon-field-dropdown</title>
    <desc>Created with Sketch.</desc>
    <g id="experiment" stroke="none" stroke-width="1" fill="none" fill-rule="evenodd">
        <g id="initial-copy-6" transform="translate(-281.000000, -510.000000)" fill="#2B333D">
            <g id="Aside-content" transform="translate(90.000000, 90.000000)">
                <g id="drags" transform="translate(20.000000, 94.000000)">
                    <g id="drag-copy-16" transform="translate(161.000000, 315.000000)">
                        <path d="M13.4179606,16.4375156 L18.8320102,16.4375156 C18.977843,16.4375156 19.0781034,16.5058749 19.1327907,16.6425933 C19.1874781,16.7793117 19.1601344,16.8932439 19.0507597,16.9843893 L16.3710786,19.6914141 C16.2981619,19.7461015 16.2161309,19.7734452 16.1249854,19.7734452 C16.0338399,19.7734452 15.9609233,19.7461015 15.9062359,19.6914141 L13.1992111,16.9843893 C13.0898364,16.8932439 13.0624927,16.7793117 13.1171801,16.6425933 C13.1718674,16.5058749 13.2721278,16.4375156 13.4179606,16.4375156 Z M22.2499708,12.937524 L22.2499708,22.562501 C22.2499708,22.9270834 22.1223668,23.2369787 21.8671592,23.4921863 C21.6119516,23.7473939 21.3020562,23.8749979 20.9374739,23.8749979 L11.3124969,23.8749979 C10.9479145,23.8749979 10.6380192,23.7473939 10.3828116,23.4921863 C10.127604,23.2369787 10,22.9270834 10,22.562501 L10,12.937524 C10,12.5729417 10.127604,12.2630463 10.3828116,12.0078387 C10.6380192,11.7526311 10.9479145,11.6250271 11.3124969,11.6250271 L20.9374739,11.6250271 C21.3020562,11.6250271 21.6119516,11.7526311 21.8671592,12.0078387 C22.1223668,12.2630463 22.2499708,12.5729417 22.2499708,12.937524 Z M20.9374739,22.3984389 L20.9374739,13.1015861 C20.9374739,13.065128 20.9192447,13.0286695 20.8827866,12.9922114 C20.8463284,12.9557533 20.8098699,12.937524 20.7734118,12.937524 L11.476559,12.937524 C11.4401009,12.937524 11.4036423,12.9557533 11.3671842,12.9922114 C11.3307261,13.0286695 11.3124969,13.065128 11.3124969,13.1015861 L11.3124969,22.3984389 C11.3124969,22.434897 11.3307261,22.4713556 11.3671842,22.5078137 C11.4036423,22.5442718 11.4401009,22.562501 11.476559,22.562501 L20.7734118,22.562501 C20.8098699,22.562501 20.8463284,22.5442718 20.8827866,22.5078137 C20.9192447,22.4713556 20.9374739,22.434897 20.9374739,22.3984389 Z" id="icon-field-dropdown"></path>
                    </g>
                </g>
            </g>
        </g>
    </g>
</svg>