<?xml version="1.0" encoding="UTF-8"?>
<svg width="16px" height="15px" viewBox="0 0 16 15" version="1.1" xmlns="http://www.w3.org/2000/svg" xmlns:xlink="http://www.w3.org/1999/xlink">
    <!-- Generator: Sketch 52.5 (67469) - http://www.bohemiancoding.com/sketch -->
    <title></title>
    <desc>Created with Sketch.</desc>
    <g id="Finalized" stroke="none" stroke-width="1" fill="none" fill-rule="evenodd">
        <g id="Form-Settings-edit" transform="translate(-378.000000, -137.000000)" fill="#2B333D">
            <g id="Aside-content" transform="translate(70.000000, 70.000000)">
                <g id="Forms-list" transform="translate(20.000000, 65.000000)">
                    <path d="M302.437466,10.6250104 C302.802048,10.6250104 303.111943,10.7526144 303.367151,11.007822 C303.622358,11.2630296 303.749962,11.572925 303.749962,11.9375073 L303.749962,15.437499 C303.749962,15.8020813 303.622358,16.1119767 303.367151,16.3671842 C303.111943,16.6223918 302.802048,16.7499958 302.437466,16.7499958 L289.312497,16.7499958 C288.947915,16.7499958 288.638019,16.6223918 288.382812,16.3671842 C288.127604,16.1119767 288,15.8020813 288,15.437499 L288,11.9375073 C288,11.572925 288.127604,11.2630296 288.382812,11.007822 C288.638019,10.7526144 288.947915,10.6250104 289.312497,10.6250104 L291.828116,10.6250104 L290.570306,9.36720093 C290.315099,9.09376408 290.192052,8.77931171 290.201167,8.4238438 C290.210281,8.0683759 290.337885,7.76303795 290.583978,7.50783036 C290.830071,7.25262278 291.135409,7.12501878 291.499992,7.12501878 L293.249987,7.12501878 L293.249987,4.06252608 C293.249987,3.69794375 293.377591,3.38804838 293.632799,3.13284079 C293.888007,2.87763321 294.197902,2.75002921 294.562484,2.75002921 L297.187478,2.75002921 C297.55206,2.75002921 297.861956,2.87763321 298.117163,3.13284079 C298.372371,3.38804838 298.499975,3.69794375 298.499975,4.06252608 L298.499975,7.12501878 L300.249971,7.12501878 C300.632782,7.12501878 300.947235,7.25262278 301.193328,7.50783036 C301.439421,7.76303795 301.567025,8.0683759 301.57614,8.4238438 C301.585254,8.77931171 301.453093,9.09376408 301.179656,9.36720093 L299.921847,10.6250104 L302.437466,10.6250104 Z M291.499992,8.43751565 L295.874981,12.8125052 L300.249971,8.43751565 L297.187478,8.43751565 L297.187478,4.06252608 L294.562484,4.06252608 L294.562484,8.43751565 L291.499992,8.43751565 Z M302.437466,15.437499 L302.437466,11.9375073 L298.60935,11.9375073 L296.804667,13.7421905 C296.549459,13.9973981 296.239564,14.1250021 295.874981,14.1250021 C295.510399,14.1250021 295.200504,13.9973981 294.945296,13.7421905 L293.140613,11.9375073 L289.312497,11.9375073 L289.312497,15.437499 L302.437466,15.437499 Z M300.031221,13.6875031 C300.031221,13.5052118 300.095023,13.3502645 300.222627,13.2226605 C300.350231,13.0950565 300.505178,13.0312547 300.68747,13.0312547 C300.869761,13.0312547 301.024708,13.0950565 301.152312,13.2226605 C301.279916,13.3502645 301.343718,13.5052118 301.343718,13.6875031 C301.343718,13.8697945 301.279916,14.0247418 301.152312,14.1523458 C301.024708,14.2799498 300.869761,14.3437516 300.68747,14.3437516 C300.505178,14.3437516 300.350231,14.2799498 300.222627,14.1523458 C300.095023,14.0247418 300.031221,13.8697945 300.031221,13.6875031 Z" id=""></path>
                </g>
            </g>
        </g>
    </g>
</svg>