<?xml version="1.0" encoding="UTF-8"?>
<svg width="13px" height="15px" viewBox="0 0 13 15" version="1.1" xmlns="http://www.w3.org/2000/svg" xmlns:xlink="http://www.w3.org/1999/xlink">
    <!-- Generator: Sketch 52.5 (67469) - http://www.bohemiancoding.com/sketch -->
    <title>icon-field-appointment</title>
    <desc>Created with Sketch.</desc>
    <g id="rough" stroke="none" stroke-width="1" fill="none" fill-rule="evenodd">
        <g id="Artboard" transform="translate(-214.000000, -20.000000)" fill="#2B333D">
            <g id="icon-field-appointment" transform="translate(214.000000, 20.000000)">
                <path d="M10.9374739,2.50002503 C11.3020562,2.50002503 11.6119516,2.62762904 11.8671592,2.88283662 C12.1223668,3.13804421 12.2499708,3.44793958 12.2499708,3.8125219 L12.2499708,13.437499 C12.2499708,13.8020813 12.1223668,14.1119767 11.8671592,14.3671842 C11.6119516,14.6223918 11.3020562,14.7499958 10.9374739,14.7499958 L1.31249687,14.7499958 C0.947914546,14.7499958 0.638019173,14.6223918 0.382811587,14.3671842 C0.127604002,14.1119767 0,13.8020813 0,13.437499 L0,3.8125219 C0,3.44793958 0.127604002,3.13804421 0.382811587,2.88283662 C0.638019173,2.62762904 0.947914546,2.50002503 1.31249687,2.50002503 L2.62499374,2.50002503 L2.62499374,1.07815342 C2.62499374,0.987007947 2.65689485,0.909533895 2.72069664,0.845732103 C2.78449843,0.781930311 2.86197248,0.750029206 2.95311796,0.750029206 L4.04686535,0.750029206 C4.13801083,0.750029206 4.21548488,0.781930311 4.27928667,0.845732103 C4.34308846,0.909533895 4.37498957,0.987007947 4.37498957,1.07815342 L4.37498957,2.50002503 L7.87498122,2.50002503 L7.87498122,1.07815342 C7.87498122,0.987007947 7.90688233,0.909533895 7.97068412,0.845732103 C8.03448591,0.781930311 8.11195997,0.750029206 8.20310544,0.750029206 L9.29685283,0.750029206 C9.38799831,0.750029206 9.46547236,0.781930311 9.52927416,0.845732103 C9.59307595,0.909533895 9.62497705,0.987007947 9.62497705,1.07815342 L9.62497705,2.50002503 L10.9374739,2.50002503 Z M10.7734118,13.437499 C10.8098699,13.437499 10.8463284,13.4192697 10.8827866,13.3828116 C10.9192447,13.3463535 10.9374739,13.309895 10.9374739,13.2734368 L10.9374739,5.12501878 L1.31249687,5.12501878 L1.31249687,13.2734368 C1.31249687,13.309895 1.33072613,13.3463535 1.36718424,13.3828116 C1.40364235,13.4192697 1.44010087,13.437499 1.47655898,13.437499 L10.7734118,13.437499 Z" id="icon-field-state-copy"></path>
                <path d="M6.19999285,6.34376229 C6.72342916,6.34376229 7.20780294,6.47462142 7.65311438,6.73633948 C8.09842582,6.99805755 8.45194066,7.35157239 8.71365873,7.79688383 C8.9753768,8.24219527 9.10623592,8.72656905 9.10623592,9.25000536 C9.10623592,9.77344168 8.9753768,10.2578155 8.71365873,10.7031269 C8.45194066,11.1484383 8.09842582,11.5019532 7.65311438,11.7636712 C7.20780294,12.0253893 6.72342916,12.1562484 6.19999285,12.1562484 C5.67655654,12.1562484 5.19218275,12.0253893 4.74687131,11.7636712 C4.30155987,11.5019532 3.94804503,11.1484383 3.68632697,10.7031269 C3.4246089,10.2578155 3.29374978,9.77344168 3.29374978,9.25000536 C3.29374978,8.72656905 3.4246089,8.24219527 3.68632697,7.79688383 C3.94804503,7.35157239 4.30155987,6.99805755 4.74687131,6.73633948 C5.19218275,6.47462142 5.67655654,6.34376229 6.19999285,6.34376229 Z M6.19999285,11.5937498 C6.62186684,11.5937498 7.01249085,11.4882813 7.37186505,11.2773443 C7.73123926,11.0664073 8.01639477,10.7812518 8.22733176,10.4218776 C8.43826876,10.0625034 8.54373726,9.67187936 8.54373726,9.25000536 C8.54373726,8.82813137 8.43826876,8.43750736 8.22733176,8.07813316 C8.01639477,7.71875896 7.73123926,7.43360345 7.37186505,7.22266645 C7.01249085,7.01172945 6.62186684,6.90626095 6.19999285,6.90626095 C5.77811885,6.90626095 5.38749484,7.01172945 5.02812064,7.22266645 C4.66874644,7.43360345 4.38359093,7.71875896 4.17265393,8.07813316 C3.96171693,8.43750736 3.85624844,8.82813137 3.85624844,9.25000536 C3.85624844,9.67187936 3.96171693,10.0625034 4.17265393,10.4218776 C4.38359093,10.7812518 4.66874644,11.0664073 5.02812064,11.2773443 C5.38749484,11.4882813 5.77811885,11.5937498 6.19999285,11.5937498 Z M5.93046224,9.64844191 C5.89139989,9.61719193 5.87186863,9.57812958 5.87186863,9.53125469 L5.87186863,7.60938428 C5.87186863,7.57032193 5.88554053,7.53711876 5.91288416,7.50977514 C5.94022778,7.48243151 5.97343095,7.46875961 6.01249329,7.46875961 L6.3874924,7.46875961 C6.42655475,7.46875961 6.45975791,7.48243151 6.48710154,7.50977514 C6.51444516,7.53711876 6.52811707,7.57032193 6.52811707,7.60938428 L6.52811707,9.27344281 L7.31327144,9.83594147 C7.34452143,9.85937891 7.36209951,9.8906289 7.36600569,9.92969124 C7.36991187,9.96875359 7.36014633,10.0039098 7.33670889,10.0351597 L7.12577189,10.3398465 C7.10233445,10.3710965 7.07108446,10.3906276 7.03202211,10.3984401 C6.99295977,10.4062527 6.9578036,10.3984401 6.92655362,10.3750027 L5.93046224,9.64844191 Z" id=""></path>
            </g>
        </g>
    </g>
</svg>