<?xml version="1.0" encoding="UTF-8"?>
<svg width="16px" height="15px" viewBox="0 0 16 15" version="1.1" xmlns="http://www.w3.org/2000/svg" xmlns:xlink="http://www.w3.org/1999/xlink">
    <!-- Generator: Sketch 52.5 (67469) - http://www.bohemiancoding.com/sketch -->
    <title>icon-field-hidden</title>
    <desc>Created with Sketch.</desc>
    <g id="rough" stroke="none" stroke-width="1" fill="none" fill-rule="evenodd">
        <g id="Artboard" transform="translate(-274.000000, -56.000000)" fill="#2B333D">
            <path d="M281.464826,66.5664121 C280.735661,66.4934954 280.093084,66.2291734 279.537096,65.7734452 C278.981108,65.317717 278.584625,64.7526144 278.347646,64.0781367 C278.110667,63.403659 278.083323,62.7109525 278.265615,62.0000167 L281.464826,66.5664121 Z M281.874981,67.4687537 L282.093731,67.4687537 L282.968729,68.7265632 C282.604146,68.7630213 282.239564,68.7812505 281.874981,68.7812505 C280.252589,68.7812505 278.757801,68.3802097 277.390617,67.5781284 C276.041662,66.794276 274.975258,65.7369871 274.191406,64.406261 C274.063802,64.2057407 274,63.9869913 274,63.7500125 C274,63.5130338 274.063802,63.2942843 274.191406,63.0937641 C274.884112,61.9088712 275.813798,60.933613 276.980462,60.1679898 L277.718741,61.2343935 C276.716139,61.890642 275.914058,62.7291818 275.312497,63.7500125 C275.986975,64.880218 276.902988,65.7825596 278.060537,66.4570373 C279.218086,67.131515 280.489568,67.4687537 281.874981,67.4687537 Z M289.558557,64.406261 C289.102828,65.1901134 288.542283,65.8828199 287.87692,66.484381 C287.211557,67.0859421 286.46872,67.5781284 285.64841,67.96094 L286.960907,69.8476542 C287.015594,69.9205709 287.033823,69.9980445 287.015594,70.0800755 C286.997365,70.1621066 286.951792,70.2304658 286.878876,70.2851532 L286.304658,70.6953085 C286.231742,70.7499958 286.14971,70.7682251 286.058565,70.7499958 C285.96742,70.7317666 285.903617,70.686194 285.867159,70.6132774 L276.789056,57.6523708 C276.734368,57.5794542 276.716139,57.5019805 276.734368,57.4199495 C276.752598,57.3379184 276.79817,57.2695592 276.871087,57.2148718 L277.445304,56.8047166 C277.518221,56.7500292 277.600252,56.7317999 277.691397,56.7500292 C277.782543,56.7682585 277.846345,56.813831 277.882803,56.8867476 L279.41405,59.0468987 C280.216131,58.8281493 281.036441,58.7187745 281.874981,58.7187745 C283.497373,58.7187745 284.992161,59.1198154 286.359346,59.9218966 C287.708301,60.7057491 288.774704,61.7630379 289.558557,63.0937641 C289.686161,63.2942843 289.749962,63.5130338 289.749962,63.7500125 C289.749962,63.9869913 289.686161,64.2057407 289.558557,64.406261 Z M288.437466,63.7500125 C287.817675,62.7109525 286.98825,61.8632983 285.94919,61.2070498 C284.91013,60.5508014 283.77081,60.1679898 282.53123,60.0586151 C282.239564,60.3502812 282.093731,60.7057491 282.093731,61.1250188 C282.093731,61.5442885 282.244121,61.9043138 282.544902,62.2050943 C282.845682,62.5058749 283.205707,62.6562651 283.624977,62.6562651 C284.044247,62.6562651 284.404272,62.5058749 284.705053,62.2050943 C285.005833,61.9043138 285.156223,61.5442885 285.156223,61.1250188 C285.575493,61.9088712 285.693983,62.7474106 285.511691,63.6406378 C285.3294,64.533865 284.873672,65.2630296 284.144507,65.8281326 L284.882787,66.8671926 C285.63018,66.5390684 286.309216,66.1106838 286.919891,65.5820394 C287.530567,65.053395 288.036425,64.4427191 288.437466,63.7500125 Z" id="icon-field-hidden"></path>
        </g>
    </g>
</svg>