<?xml version="1.0" encoding="UTF-8"?>
<svg width="13px" height="15px" viewBox="0 0 13 15" version="1.1" xmlns="http://www.w3.org/2000/svg" xmlns:xlink="http://www.w3.org/1999/xlink">
    <!-- Generator: Sketch 52.5 (67469) - http://www.bohemiancoding.com/sketch -->
    <title>icon-calendar</title>
    <desc>Created with Sketch.</desc>
    <g id="Finalized" stroke="none" stroke-width="1" fill="none" fill-rule="evenodd">
        <g id="decision-intersection" transform="translate(-770.000000, -631.000000)" fill="#2B333D">
            <g id="sub-content" transform="translate(452.000000, 85.000000)">
                <g id="field---decision-tree" transform="translate(20.000000, 454.000000)">
                    <g id="field---oncall-schedule" transform="translate(58.000000, 90.000000)">
                        <path d="M250.937474,4.50002503 C251.302056,4.50002503 251.611952,4.62762904 251.867159,4.88283662 C252.122367,5.13804421 252.249971,5.44793958 252.249971,5.8125219 L252.249971,15.437499 C252.249971,15.8020813 252.122367,16.1119767 251.867159,16.3671842 C251.611952,16.6223918 251.302056,16.7499958 250.937474,16.7499958 L241.312497,16.7499958 C240.947915,16.7499958 240.638019,16.6223918 240.382812,16.3671842 C240.127604,16.1119767 240,15.8020813 240,15.437499 L240,5.8125219 C240,5.44793958 240.127604,5.13804421 240.382812,4.88283662 C240.638019,4.62762904 240.947915,4.50002503 241.312497,4.50002503 L242.624994,4.50002503 L242.624994,3.07815342 C242.624994,2.98700795 242.656895,2.9095339 242.720697,2.8457321 C242.784498,2.78193031 242.861972,2.75002921 242.953118,2.75002921 L243.171867,2.75002921 C243.263013,2.75002921 243.340487,2.78193031 243.404289,2.8457321 C243.468091,2.9095339 243.499992,2.98700795 243.499992,3.07815342 L243.499992,4.50002503 L248.749979,4.50002503 L248.749979,3.07815342 C248.749979,2.98700795 248.78188,2.9095339 248.845682,2.8457321 C248.909484,2.78193031 248.986958,2.75002921 249.078103,2.75002921 L249.296853,2.75002921 C249.387998,2.75002921 249.465472,2.78193031 249.529274,2.8457321 C249.593076,2.9095339 249.624977,2.98700795 249.624977,3.07815342 L249.624977,4.50002503 L250.937474,4.50002503 Z M241.312497,5.37502295 C241.184893,5.37502295 241.080076,5.41603847 240.998044,5.49806953 C240.916013,5.58010058 240.874998,5.6849179 240.874998,5.8125219 L240.874998,7.12501878 L251.374973,7.12501878 L251.374973,5.8125219 C251.374973,5.6849179 251.333957,5.58010058 251.251926,5.49806953 C251.169895,5.41603847 251.065078,5.37502295 250.937474,5.37502295 L241.312497,5.37502295 Z M250.937474,15.8749979 C251.065078,15.8749979 251.169895,15.8339824 251.251926,15.7519513 C251.333957,15.6699203 251.374973,15.565103 251.374973,15.437499 L251.374973,8.00001669 L240.874998,8.00001669 L240.874998,15.437499 C240.874998,15.565103 240.916013,15.6699203 240.998044,15.7519513 C241.080076,15.8339824 241.184893,15.8749979 241.312497,15.8749979 L250.937474,15.8749979 Z M242.953118,11.5000083 C242.861972,11.5000083 242.784498,11.4681072 242.720697,11.4043054 C242.656895,11.3405037 242.624994,11.2630296 242.624994,11.1718841 L242.624994,10.0781367 C242.624994,9.98699126 242.656895,9.90951721 242.720697,9.84571541 C242.784498,9.78191362 242.861972,9.75001252 242.953118,9.75001252 L244.046865,9.75001252 C244.138011,9.75001252 244.215485,9.78191362 244.279287,9.84571541 C244.343088,9.90951721 244.37499,9.98699126 244.37499,10.0781367 L244.37499,11.1718841 C244.37499,11.2630296 244.343088,11.3405037 244.279287,11.4043054 C244.215485,11.4681072 244.138011,11.5000083 244.046865,11.5000083 L242.953118,11.5000083 Z M245.578112,11.5000083 C245.486966,11.5000083 245.409492,11.4681072 245.34569,11.4043054 C245.281889,11.3405037 245.249987,11.2630296 245.249987,11.1718841 L245.249987,10.0781367 C245.249987,9.98699126 245.281889,9.90951721 245.34569,9.84571541 C245.409492,9.78191362 245.486966,9.75001252 245.578112,9.75001252 L246.671859,9.75001252 C246.763005,9.75001252 246.840479,9.78191362 246.90428,9.84571541 C246.968082,9.90951721 246.999983,9.98699126 246.999983,10.0781367 L246.999983,11.1718841 C246.999983,11.2630296 246.968082,11.3405037 246.90428,11.4043054 C246.840479,11.4681072 246.763005,11.5000083 246.671859,11.5000083 L245.578112,11.5000083 Z M248.203105,11.5000083 C248.11196,11.5000083 248.034486,11.4681072 247.970684,11.4043054 C247.906882,11.3405037 247.874981,11.2630296 247.874981,11.1718841 L247.874981,10.0781367 C247.874981,9.98699126 247.906882,9.90951721 247.970684,9.84571541 C248.034486,9.78191362 248.11196,9.75001252 248.203105,9.75001252 L249.296853,9.75001252 C249.387998,9.75001252 249.465472,9.78191362 249.529274,9.84571541 C249.593076,9.90951721 249.624977,9.98699126 249.624977,10.0781367 L249.624977,11.1718841 C249.624977,11.2630296 249.593076,11.3405037 249.529274,11.4043054 C249.465472,11.4681072 249.387998,11.5000083 249.296853,11.5000083 L248.203105,11.5000083 Z M245.578112,14.1250021 C245.486966,14.1250021 245.409492,14.093101 245.34569,14.0292992 C245.281889,13.9654974 245.249987,13.8880233 245.249987,13.7968779 L245.249987,12.7031305 C245.249987,12.611985 245.281889,12.5345109 245.34569,12.4707092 C245.409492,12.4069074 245.486966,12.3750063 245.578112,12.3750063 L246.671859,12.3750063 C246.763005,12.3750063 246.840479,12.4069074 246.90428,12.4707092 C246.968082,12.5345109 246.999983,12.611985 246.999983,12.7031305 L246.999983,13.7968779 C246.999983,13.8880233 246.968082,13.9654974 246.90428,14.0292992 C246.840479,14.093101 246.763005,14.1250021 246.671859,14.1250021 L245.578112,14.1250021 Z M242.953118,14.1250021 C242.861972,14.1250021 242.784498,14.093101 242.720697,14.0292992 C242.656895,13.9654974 242.624994,13.8880233 242.624994,13.7968779 L242.624994,12.7031305 C242.624994,12.611985 242.656895,12.5345109 242.720697,12.4707092 C242.784498,12.4069074 242.861972,12.3750063 242.953118,12.3750063 L244.046865,12.3750063 C244.138011,12.3750063 244.215485,12.4069074 244.279287,12.4707092 C244.343088,12.5345109 244.37499,12.611985 244.37499,12.7031305 L244.37499,13.7968779 C244.37499,13.8880233 244.343088,13.9654974 244.279287,14.0292992 C244.215485,14.093101 244.138011,14.1250021 244.046865,14.1250021 L242.953118,14.1250021 Z M248.203105,14.1250021 C248.11196,14.1250021 248.034486,14.093101 247.970684,14.0292992 C247.906882,13.9654974 247.874981,13.8880233 247.874981,13.7968779 L247.874981,12.7031305 C247.874981,12.611985 247.906882,12.5345109 247.970684,12.4707092 C248.034486,12.4069074 248.11196,12.3750063 248.203105,12.3750063 L249.296853,12.3750063 C249.387998,12.3750063 249.465472,12.4069074 249.529274,12.4707092 C249.593076,12.5345109 249.624977,12.611985 249.624977,12.7031305 L249.624977,13.7968779 C249.624977,13.8880233 249.593076,13.9654974 249.529274,14.0292992 C249.465472,14.093101 249.387998,14.1250021 249.296853,14.1250021 L248.203105,14.1250021 Z" id="icon-calendar"></path>
                    </g>
                </g>
            </g>
        </g>
    </g>
</svg>