<?xml version="1.0" encoding="UTF-8"?>
<svg width="13px" height="15px" viewBox="0 0 13 15" version="1.1" xmlns="http://www.w3.org/2000/svg" xmlns:xlink="http://www.w3.org/1999/xlink">
    <!-- Generator: Sketch 52.5 (67469) - http://www.bohemiancoding.com/sketch -->
    <title>icon-field-company</title>
    <desc>Created with Sketch.</desc>
    <g id="experiment" stroke="none" stroke-width="1" fill="none" fill-rule="evenodd">
        <g id="initial-copy-6" transform="translate(-120.000000, -329.000000)" fill="#2B333D">
            <g id="Aside-content" transform="translate(90.000000, 90.000000)">
                <g id="drags" transform="translate(20.000000, 94.000000)">
                    <g id="drag-copy-7" transform="translate(0.000000, 135.000000)">
                        <path d="M13.4999917,14.7968946 L13.4999917,13.7031472 C13.4999917,13.6120017 13.5318928,13.5345276 13.5956946,13.4707258 C13.6594963,13.4069241 13.7369704,13.3750229 13.8281159,13.3750229 L14.9218633,13.3750229 C15.0130087,13.3750229 15.0904828,13.4069241 15.1542846,13.4707258 C15.2180864,13.5345276 15.2499875,13.6120017 15.2499875,13.7031472 L15.2499875,14.7968946 C15.2499875,14.88804 15.2180864,14.9655141 15.1542846,15.0293159 C15.0904828,15.0931177 15.0130087,15.1250188 14.9218633,15.1250188 L13.8281159,15.1250188 C13.7369704,15.1250188 13.6594963,15.0931177 13.5956946,15.0293159 C13.5318928,14.9655141 13.4999917,14.88804 13.4999917,14.7968946 Z M18.4218549,15.1250188 L17.3281075,15.1250188 C17.2369621,15.1250188 17.159488,15.0931177 17.0956862,15.0293159 C17.0318844,14.9655141 16.9999833,14.88804 16.9999833,14.7968946 L16.9999833,13.7031472 C16.9999833,13.6120017 17.0318844,13.5345276 17.0956862,13.4707258 C17.159488,13.4069241 17.2369621,13.3750229 17.3281075,13.3750229 L18.4218549,13.3750229 C18.5130004,13.3750229 18.5904744,13.4069241 18.6542762,13.4707258 C18.718078,13.5345276 18.7499791,13.6120017 18.7499791,13.7031472 L18.7499791,14.7968946 C18.7499791,14.88804 18.718078,14.9655141 18.6542762,15.0293159 C18.5904744,15.0931177 18.5130004,15.1250188 18.4218549,15.1250188 Z M14.9218633,17.7500125 L13.8281159,17.7500125 C13.7369704,17.7500125 13.6594963,17.7181114 13.5956946,17.6543096 C13.5318928,17.5905078 13.4999917,17.5130338 13.4999917,17.4218883 L13.4999917,16.3281409 C13.4999917,16.2369954 13.5318928,16.1595214 13.5956946,16.0957196 C13.6594963,16.0319178 13.7369704,16.0000167 13.8281159,16.0000167 L14.9218633,16.0000167 C15.0130087,16.0000167 15.0904828,16.0319178 15.1542846,16.0957196 C15.2180864,16.1595214 15.2499875,16.2369954 15.2499875,16.3281409 L15.2499875,17.4218883 C15.2499875,17.5130338 15.2180864,17.5905078 15.1542846,17.6543096 C15.0904828,17.7181114 15.0130087,17.7500125 14.9218633,17.7500125 Z M18.4218549,17.7500125 L17.3281075,17.7500125 C17.2369621,17.7500125 17.159488,17.7181114 17.0956862,17.6543096 C17.0318844,17.5905078 16.9999833,17.5130338 16.9999833,17.4218883 L16.9999833,16.3281409 C16.9999833,16.2369954 17.0318844,16.1595214 17.0956862,16.0957196 C17.159488,16.0319178 17.2369621,16.0000167 17.3281075,16.0000167 L18.4218549,16.0000167 C18.5130004,16.0000167 18.5904744,16.0319178 18.6542762,16.0957196 C18.718078,16.1595214 18.7499791,16.2369954 18.7499791,16.3281409 L18.7499791,17.4218883 C18.7499791,17.5130338 18.718078,17.5905078 18.6542762,17.6543096 C18.5904744,17.7181114 18.5130004,17.7500125 18.4218549,17.7500125 Z M15.2499875,18.9531346 L15.2499875,20.046882 C15.2499875,20.1380275 15.2180864,20.2155016 15.1542846,20.2793034 C15.0904828,20.3431052 15.0130087,20.3750063 14.9218633,20.3750063 L13.8281159,20.3750063 C13.7369704,20.3750063 13.6594963,20.3431052 13.5956946,20.2793034 C13.5318928,20.2155016 13.4999917,20.1380275 13.4999917,20.046882 L13.4999917,18.9531346 C13.4999917,18.8619892 13.5318928,18.7845151 13.5956946,18.7207133 C13.6594963,18.6569115 13.7369704,18.6250104 13.8281159,18.6250104 L14.9218633,18.6250104 C15.0130087,18.6250104 15.0904828,18.6569115 15.1542846,18.7207133 C15.2180864,18.7845151 15.2499875,18.8619892 15.2499875,18.9531346 Z M18.4218549,20.3750063 L17.3281075,20.3750063 C17.2369621,20.3750063 17.159488,20.3431052 17.0956862,20.2793034 C17.0318844,20.2155016 16.9999833,20.1380275 16.9999833,20.046882 L16.9999833,18.9531346 C16.9999833,18.8619892 17.0318844,18.7845151 17.0956862,18.7207133 C17.159488,18.6569115 17.2369621,18.6250104 17.3281075,18.6250104 L18.4218549,18.6250104 C18.5130004,18.6250104 18.5904744,18.6569115 18.6542762,18.7207133 C18.718078,18.7845151 18.7499791,18.8619892 18.7499791,18.9531346 L18.7499791,20.046882 C18.7499791,20.1380275 18.718078,20.2155016 18.6542762,20.2793034 C18.5904744,20.3431052 18.5130004,20.3750063 18.4218549,20.3750063 Z M22.2499708,23.7656232 L22.2499708,24.7499958 L10,24.7499958 L10,23.7656232 C10,23.6744777 10.0319011,23.5970036 10.0957029,23.5332019 C10.1595047,23.4694001 10.2369787,23.437499 10.3281242,23.437499 L10.8749979,23.437499 L10.8749979,11.4062776 C10.8567687,11.2239863 10.9160134,11.069039 11.0527319,10.941435 C11.1894503,10.813831 11.348955,10.7500292 11.5312463,10.7500292 L20.7460681,10.7500292 C20.9101302,10.7500292 21.0605205,10.813831 21.1972389,10.941435 C21.3339574,11.069039 21.3932021,11.2239863 21.3749729,11.4062776 L21.3749729,23.437499 L21.9218466,23.437499 C22.0129921,23.437499 22.0904661,23.4694001 22.1542679,23.5332019 C22.2180697,23.5970036 22.2499708,23.6744777 22.2499708,23.7656232 Z M12.1874948,23.4101553 L15.2499875,23.4101553 L15.2499875,21.5781284 C15.2499875,21.4869829 15.2818886,21.4095089 15.3456904,21.3457071 C15.4094922,21.2819053 15.4869662,21.2500042 15.5781117,21.2500042 L16.6718591,21.2500042 C16.7630046,21.2500042 16.8404786,21.2819053 16.9042804,21.3457071 C16.9680822,21.4095089 16.9999833,21.4869829 16.9999833,21.5781284 L16.9999833,23.4101553 L20.0898197,23.4101553 L20.0898197,12.0898698 L12.1874948,12.0625261 L12.1874948,23.4101553 Z" id="icon-field-company"></path>
                    </g>
                </g>
            </g>
        </g>
    </g>
</svg>