<?xml version="1.0" encoding="UTF-8"?>
<svg width="14px" height="15px" viewBox="0 0 14 15" version="1.1" xmlns="http://www.w3.org/2000/svg" xmlns:xlink="http://www.w3.org/1999/xlink">
    <!-- Generator: Sketch 52.5 (67469) - http://www.bohemiancoding.com/sketch -->
    <title>icon-field-phone</title>
    <desc>Created with Sketch.</desc>
    <g id="experiment" stroke="none" stroke-width="1" fill="none" fill-rule="evenodd">
        <g id="initial-copy-6" transform="translate(-281.000000, -194.000000)" fill="#2B333D">
            <g id="Aside-content" transform="translate(90.000000, 90.000000)">
                <g id="drags" transform="translate(20.000000, 94.000000)">
                    <g id="drag-copy" transform="translate(161.000000, 0.000000)">
                        <path d="M23.4804366,11.4336213 C23.6444987,11.4518506 23.7721027,11.5247668 23.8632482,11.6523708 C23.9543937,11.7799748 23.9999666,11.9166932 23.9999666,12.0625261 C23.9999666,14.3593956 23.4257492,16.492203 22.2773145,18.4609483 C21.147109,20.3750063 19.6249771,21.8971382 17.7109191,23.0273437 C15.7421738,24.1757784 13.6093664,24.7499958 11.3124969,24.7499958 C11.166664,24.7499958 11.0299456,24.7044229 10.9023416,24.6132774 C10.7747376,24.5221319 10.7018214,24.3945279 10.6835921,24.2304658 L10.0273437,21.3867226 C9.99088558,21.2408897 10.0091144,21.0950565 10.0820311,20.9492236 C10.1549477,20.8033908 10.2643224,20.7031305 10.4101553,20.6484431 L13.472648,19.3359462 C13.600252,19.2812589 13.732413,19.2721444 13.8691314,19.3086026 C14.0058498,19.3450607 14.1288964,19.4179773 14.2382711,19.527352 L15.5781117,21.1679731 C16.6536298,20.6757868 17.6061018,20.0104239 18.4355268,19.1718841 C19.2649517,18.3333443 19.9257576,17.3854302 20.4179439,16.3281409 L18.7773228,14.9883004 C18.6679481,14.8789256 18.5950315,14.755879 18.5585733,14.6191606 C18.5221152,14.4824422 18.5312297,14.3502812 18.585917,14.2226772 L19.8984139,11.1601845 C19.9531013,11.0143516 20.0533616,10.9049769 20.1991944,10.8320603 C20.3450273,10.7591436 20.4908605,10.7409148 20.6366934,10.7773729 L23.4804366,11.4336213 Z" id="icon-field-phone"></path>
                    </g>
                </g>
            </g>
        </g>
    </g>
</svg>