<?xml version="1.0" encoding="UTF-8"?>
<svg width="13px" height="13px" viewBox="0 0 13 13" version="1.1" xmlns="http://www.w3.org/2000/svg" xmlns:xlink="http://www.w3.org/1999/xlink">
    <!-- Generator: Sketch 52.5 (67469) - http://www.bohemiancoding.com/sketch -->
    <title>icon-undo</title>
    <desc>Created with Sketch.</desc>
    <g id="experiment" stroke="none" stroke-width="1" fill="none" fill-rule="evenodd">
        <g id="initial-copy-6" transform="translate(-541.000000, -150.000000)" fill="#2B333D">
            <g id="sub-content" transform="translate(462.000000, 90.000000)">
                <g id="Tools" transform="translate(20.000000, 49.000000)">
                    <g id="cut-copy-paste" transform="translate(59.000000, 1.000000)">
                        <path d="M7.1913891,16.7500125 L12.1952834,21.7539068 C12.2317415,21.7903649 12.2499708,21.8404953 12.2499708,21.9042971 C12.2499708,21.9680989 12.2317415,22.0182293 12.1952834,22.0546874 C11.9400758,22.309895 11.6301805,22.437499 11.2655981,22.437499 C10.9010158,22.437499 10.5911204,22.309895 10.3359129,22.0546874 L6.1249854,17.8437599 L4.94920695,19.0195384 C5.14972717,19.4023499 5.24998748,19.8125052 5.24998748,20.2500042 C5.24998748,20.9791692 4.9947799,21.5989592 4.48436431,22.1093747 C3.97394872,22.6197903 3.35415881,22.8749979 2.62499374,22.8749979 C1.89582867,22.8749979 1.27603876,22.6197903 0.765623175,22.1093747 C0.255207586,21.5989592 0,20.9791692 0,20.2500042 C0,19.5208391 0.255207586,18.9010492 0.765623175,18.3906336 C1.27603876,17.880218 1.89582867,17.6250104 2.62499374,17.6250104 C3.0624927,17.6250104 3.47264797,17.7252707 3.85545956,17.925791 L5.031238,16.7500125 L3.85545956,15.5742341 C3.47264797,15.7747543 3.0624927,15.8750146 2.62499374,15.8750146 C1.89582867,15.8750146 1.27603876,15.619807 0.765623175,15.1093914 C0.255207586,14.5989758 0,13.9791859 0,13.2500209 C0,12.5208558 0.255207586,11.9010659 0.765623175,11.3906503 C1.27603876,10.8802347 1.89582867,10.6250271 2.62499374,10.6250271 C3.35415881,10.6250271 3.97394872,10.8802347 4.48436431,11.3906503 C4.9947799,11.9010659 5.24998748,12.5208558 5.24998748,13.2500209 C5.24998748,13.6875198 5.14972717,14.0976751 4.94920695,14.4804867 L6.1249854,15.6562651 L10.3359129,11.4453377 C10.5911204,11.1901301 10.9010158,11.0625261 11.2655981,11.0625261 C11.6301805,11.0625261 11.9400758,11.1901301 12.1952834,11.4453377 C12.2317415,11.4817958 12.2499708,11.5319261 12.2499708,11.5957279 C12.2499708,11.6595297 12.2317415,11.7096601 12.1952834,11.7461182 L7.1913891,16.7500125 Z M2.62499374,14.5625177 C2.98957607,14.5625177 3.29947144,14.4349137 3.55467902,14.1797061 C3.80988661,13.9244986 3.93749061,13.6146032 3.93749061,13.2500209 C3.93749061,12.8854385 3.80988661,12.5755432 3.55467902,12.3203356 C3.29947144,12.065128 2.98957607,11.937524 2.62499374,11.937524 C2.26041142,11.937524 1.95051604,12.065128 1.69530846,12.3203356 C1.44010087,12.5755432 1.31249687,12.8854385 1.31249687,13.2500209 C1.31249687,13.6146032 1.44010087,13.9244986 1.69530846,14.1797061 C1.95051604,14.4349137 2.26041142,14.5625177 2.62499374,14.5625177 Z M2.62499374,21.562501 C2.98957607,21.562501 3.29947144,21.434897 3.55467902,21.1796895 C3.80988661,20.9244819 3.93749061,20.6145865 3.93749061,20.2500042 C3.93749061,19.8854218 3.80988661,19.5755265 3.55467902,19.3203189 C3.29947144,19.0651113 2.98957607,18.9375073 2.62499374,18.9375073 C2.26041142,18.9375073 1.95051604,19.0651113 1.69530846,19.3203189 C1.44010087,19.5755265 1.31249687,19.8854218 1.31249687,20.2500042 C1.31249687,20.6145865 1.44010087,20.9244819 1.69530846,21.1796895 C1.95051604,21.434897 2.26041142,21.562501 2.62499374,21.562501 Z M6.1249854,16.968762 C6.17967277,16.968762 6.22980272,16.9459757 6.27537566,16.9004028 C6.32094861,16.8548298 6.34373488,16.8046999 6.34373488,16.7500125 C6.34373488,16.6953251 6.32094861,16.6451952 6.27537566,16.5996223 C6.22980272,16.5540493 6.17967277,16.531263 6.1249854,16.531263 C6.07029803,16.531263 6.02016808,16.5540493 5.97459513,16.5996223 C5.92902218,16.6451952 5.90623592,16.6953251 5.90623592,16.7500125 C5.90623592,16.8046999 5.92902218,16.8548298 5.97459513,16.9004028 C6.02016808,16.9459757 6.07029803,16.968762 6.1249854,16.968762 Z" id="icon-undo"></path>
                    </g>
                </g>
            </g>
        </g>
    </g>
</svg>