<?xml version="1.0" encoding="UTF-8"?>
<svg width="16px" height="15px" viewBox="0 0 16 15" version="1.1" xmlns="http://www.w3.org/2000/svg" xmlns:xlink="http://www.w3.org/1999/xlink">
    <!-- Generator: Sketch 52.5 (67469) - http://www.bohemiancoding.com/sketch -->
    <title>icon-third-party</title>
    <desc>Created with Sketch.</desc>
    <g id="Finalized" stroke="none" stroke-width="1" fill="none" fill-rule="evenodd">
        <g id="Form-Settings-edit" transform="translate(-376.000000, -673.000000)" fill="#2B333D">
            <g id="Aside-content" transform="translate(70.000000, 70.000000)">
                <g id="email-subject-copy" transform="translate(20.000000, 495.000000)">
                    <g id="Forms-list-Copy-5" transform="translate(0.000000, 24.000000)">
                        <g id="Forms-list-Copy-21" transform="translate(0.000000, 67.000000)">
                            <path d="M298.249971,30.437499 C298.249971,30.8020813 298.122367,31.1119767 297.867159,31.3671842 C297.611952,31.6223918 297.302056,31.7499958 296.937474,31.7499958 L287.312497,31.7499958 C286.947915,31.7499958 286.638019,31.6223918 286.382812,31.3671842 C286.127604,31.1119767 286,30.8020813 286,30.437499 L286,20.8125219 C286,20.4479396 286.127604,20.1380442 286.382812,19.8828366 C286.638019,19.627629 286.947915,19.500025 287.312497,19.500025 L296.60935,19.500025 C296.755183,19.500025 296.855443,19.5683842 296.91013,19.7051027 C296.964818,19.8418211 296.937474,19.9557533 296.828099,20.0468987 L296.171851,20.7031472 C296.117163,20.7760638 296.044247,20.8125219 295.953101,20.8125219 L287.476559,20.8125219 C287.440101,20.8125219 287.403642,20.8307512 287.367184,20.8672093 C287.330726,20.9036674 287.312497,20.9401259 287.312497,20.976584 L287.312497,30.2734368 C287.312497,30.309895 287.330726,30.3463535 287.367184,30.3828116 C287.403642,30.4192697 287.440101,30.437499 287.476559,30.437499 L296.773412,30.437499 C296.80987,30.437499 296.846328,30.4192697 296.882787,30.3828116 C296.919245,30.3463535 296.937474,30.309895 296.937474,30.2734368 L296.937474,25.0234494 C296.937474,24.9323039 296.973932,24.8502728 297.046849,24.7773562 L297.703097,24.1211078 C297.794243,24.0299623 297.908175,24.011733 298.044893,24.0664204 C298.181612,24.1211078 298.249971,24.2213681 298.249971,24.3672009 L298.249971,30.437499 Z M301.421838,17.7500292 C301.512984,17.7500292 301.590458,17.7819303 301.65426,17.8457321 C301.718061,17.9095339 301.749962,17.9870079 301.749962,18.0781534 L301.749962,21.7968946 C301.749962,21.9427274 301.681603,22.0429877 301.544885,22.0976751 C301.408166,22.1523625 301.294234,22.1250188 301.203089,22.015644 L299.863248,20.7031472 L292.425766,28.1406294 C292.371079,28.2135461 292.298162,28.2500042 292.207016,28.2500042 C292.115871,28.2500042 292.03384,28.2135461 291.960923,28.1406294 L291.359362,27.5390684 C291.286446,27.4661517 291.249987,27.3841207 291.249987,27.2929752 C291.249987,27.2018297 291.286446,27.1289131 291.359362,27.0742257 L298.796844,19.6367435 L297.484348,18.2969029 C297.374973,18.2057574 297.347629,18.0918253 297.402317,17.9551068 C297.457004,17.8183884 297.557264,17.7500292 297.703097,17.7500292 L301.421838,17.7500292 Z" id="icon-third-party"></path>
                        </g>
                    </g>
                </g>
            </g>
        </g>
    </g>
</svg>