<?xml version="1.0" encoding="UTF-8"?>
<svg width="12px" height="13px" viewBox="0 0 12 13" version="1.1" xmlns="http://www.w3.org/2000/svg" xmlns:xlink="http://www.w3.org/1999/xlink">
    <!-- Generator: Sketch 52.5 (67469) - http://www.bohemiancoding.com/sketch -->
    <title>icon-field-country</title>
    <desc>Created with Sketch.</desc>
    <g id="rough" stroke="none" stroke-width="1" fill="none" fill-rule="evenodd">
        <g id="Artboard" transform="translate(-204.000000, -112.000000)" fill="#2B333D">
            <path d="M209.812486,112.687525 C210.859359,112.687525 211.828106,112.949243 212.718729,113.472679 C213.609352,113.996115 214.316382,114.703145 214.839818,115.593768 C215.363254,116.484391 215.624972,117.453138 215.624972,118.500011 C215.624972,119.546883 215.363254,120.515631 214.839818,121.406254 C214.316382,122.296877 213.609352,123.003906 212.718729,123.527342 C211.828106,124.050779 210.859359,124.312497 209.812486,124.312497 C208.765614,124.312497 207.796866,124.050779 206.906243,123.527342 C206.01562,123.003906 205.308591,122.296877 204.785154,121.406254 C204.261718,120.515631 204,119.546883 204,118.500011 C204,117.453138 204.261718,116.484391 204.785154,115.593768 C205.308591,114.703145 206.01562,113.996115 206.906243,113.472679 C207.796866,112.949243 208.765614,112.687525 209.812486,112.687525 Z M209.062488,113.882834 C208.671864,113.945334 208.304677,114.046896 207.960928,114.187521 L208.523427,114.46877 C208.648426,114.53127 208.76952,114.527364 208.886707,114.457052 C209.003894,114.386739 209.062488,114.281271 209.062488,114.140646 L209.062488,113.882834 Z M205.124997,118.500011 C205.124997,119.343759 205.335934,120.125007 205.757808,120.843755 C206.179682,121.562504 206.749993,122.132815 207.468742,122.554689 C208.18749,122.976563 208.968738,123.1875 209.812486,123.1875 L209.812486,122.554689 C209.828111,122.398439 209.785142,122.199221 209.68358,121.957034 C209.582018,121.714847 209.453112,121.515629 209.296862,121.359379 C209.140613,121.203129 209.062488,121.023442 209.062488,120.820318 L209.062488,120.070319 C209.062488,119.929695 209.027332,119.800789 208.957019,119.683602 C208.886707,119.566414 208.796864,119.476571 208.687489,119.414071 C208.18749,119.148447 207.804678,118.945322 207.539054,118.804698 C207.27343,118.664073 207.02343,118.492198 206.789056,118.289074 L206.765618,118.265636 C206.609369,118.125012 206.468744,117.96095 206.343744,117.77345 L205.546871,116.57814 C205.265622,117.203139 205.124997,117.843762 205.124997,118.500011 Z M210.820296,123.070312 C211.773419,122.867188 212.585917,122.398439 213.25779,121.664066 C213.929664,120.929693 214.3281,120.078132 214.4531,119.109384 L213.773414,118.921885 C213.63279,118.890635 213.523415,118.81251 213.44529,118.68751 L213.023416,118.054699 C212.960916,117.96095 212.929666,117.859387 212.929666,117.750013 C212.929666,117.640638 212.960916,117.539076 213.023416,117.445326 L213.468727,116.742202 C213.531227,116.664078 213.609352,116.601578 213.703102,116.554703 L214.007789,116.414078 C213.617164,115.63283 213.046853,115.003925 212.296855,114.527364 C211.546857,114.050803 210.718734,113.812522 209.812486,113.812522 L209.624987,113.812522 L210.304672,114.492208 C210.367172,114.554708 210.398422,114.640645 210.398422,114.75002 C210.398422,114.859395 210.367172,114.945332 210.304672,115.007832 L209.953111,115.359393 C209.906236,115.406268 209.882798,115.453143 209.882798,115.500018 C209.882798,115.546893 209.906236,115.593768 209.953111,115.640643 L210.046861,115.734392 C210.093735,115.781267 210.117173,115.828142 210.117173,115.875017 C210.117173,115.921892 210.093735,115.968767 210.046861,116.015642 L209.859361,116.203141 C209.828111,116.234391 209.789049,116.250016 209.742174,116.250016 L209.531237,116.250016 C209.468737,116.250016 209.421862,116.265641 209.390612,116.296891 L209.156238,116.531265 C209.093738,116.593765 209.085925,116.664078 209.1328,116.742202 L209.484362,117.468763 C209.515612,117.531263 209.515612,117.593763 209.484362,117.656263 C209.453112,117.718763 209.398425,117.750013 209.3203,117.750013 L209.179675,117.750013 C209.1328,117.750013 209.093738,117.734387 209.062488,117.703138 L208.851551,117.515638 C208.742176,117.421888 208.617176,117.398451 208.476552,117.445326 L207.749991,117.6797 C207.624991,117.726575 207.562492,117.812512 207.562492,117.937512 C207.562492,118.062512 207.617179,118.148449 207.726554,118.195324 L207.984366,118.335949 C208.203115,118.445323 208.437489,118.500011 208.687489,118.500011 C208.749989,118.500011 208.820301,118.546886 208.898426,118.640635 C208.945301,118.68751 209.023425,118.773448 209.1328,118.898447 C209.273425,119.101572 209.374987,119.218759 209.437487,119.250009 L211.007796,119.250009 C211.21092,119.250009 211.382795,119.320321 211.52342,119.460946 L211.851544,119.78907 C211.992168,119.929695 212.062481,120.101569 212.062481,120.304694 C212.062481,120.601568 211.953106,120.85938 211.734357,121.07813 L211.476545,121.335941 C211.39842,121.398441 211.351545,121.484378 211.33592,121.593753 L211.312483,121.687503 C211.281233,121.812503 211.249983,121.906252 211.218733,121.968752 L210.820296,123.070312 Z" id="icon-field-country"></path>
        </g>
    </g>
</svg>