<?xml version="1.0" encoding="UTF-8"?>
<svg width="13px" height="9px" viewBox="0 0 13 9" version="1.1" xmlns="http://www.w3.org/2000/svg" xmlns:xlink="http://www.w3.org/1999/xlink">
    <!-- Generator: Sketch 52.5 (67469) - http://www.bohemiancoding.com/sketch -->
    <title>icon-arrow-left</title>
    <desc>Created with Sketch.</desc>
    <g id="rough" stroke="none" stroke-width="1" fill="none" fill-rule="evenodd">
        <g id="Artboard" transform="translate(-213.000000, -162.000000)" fill="#2B333D">
            <path d="M217.15624,170.578128 C217.101553,170.651045 217.028636,170.687503 216.937491,170.687503 C216.846345,170.687503 216.773429,170.651045 216.718741,170.578128 L213.109375,166.968762 C213.036458,166.914075 213,166.841158 213,166.750013 C213,166.658867 213.036458,166.58595 213.109375,166.531263 L216.718741,162.921897 C216.773429,162.84898 216.846345,162.812522 216.937491,162.812522 C217.028636,162.812522 217.101553,162.84898 217.15624,162.921897 L217.703114,163.441427 C217.77603,163.514343 217.812489,163.596374 217.812489,163.68752 C217.812489,163.778665 217.77603,163.851582 217.703114,163.906269 L215.488275,166.039077 L224.921847,166.039077 C225.012992,166.039077 225.090466,166.070978 225.154268,166.13478 C225.21807,166.198581 225.249971,166.276055 225.249971,166.367201 L225.249971,167.132824 C225.249971,167.22397 225.21807,167.301444 225.154268,167.365245 C225.090466,167.429047 225.012992,167.460948 224.921847,167.460948 L215.488275,167.460948 L217.703114,169.593756 C217.77603,169.648443 217.812489,169.72136 217.812489,169.812505 C217.812489,169.903651 217.77603,169.985682 217.703114,170.058598 L217.15624,170.578128 Z" id="icon-arrow-left"></path>
        </g>
    </g>
</svg>