<?xml version="1.0" encoding="UTF-8"?>
<svg width="14px" height="15px" viewBox="0 0 14 15" version="1.1" xmlns="http://www.w3.org/2000/svg" xmlns:xlink="http://www.w3.org/1999/xlink">
    <!-- Generator: Sketch 52.5 (67469) - http://www.bohemiancoding.com/sketch -->
    <title>icon-drag</title>
    <desc>Created with Sketch.</desc>
    <g id="rough" stroke="none" stroke-width="1" fill="none" fill-rule="evenodd">
        <g id="oo-copy" transform="translate(-31.000000, -38.000000)" fill="#2B333D">
            <path d="M40.8710702,50.0156273 L38.2187328,52.6406211 C38.1640454,52.7135377 38.0911288,52.7499958 37.9999833,52.7499958 C37.9088378,52.7499958 37.8359212,52.7135377 37.7812338,52.6406211 L35.1288964,50.0156273 C35.074209,49.96094 35.0468654,49.8880233 35.0468654,49.7968779 C35.0468654,49.7057324 35.074209,49.6237013 35.1288964,49.5507847 L35.6757701,49.0312547 C35.7486867,48.9583381 35.8307178,48.92188 35.9218633,48.92188 C36.0130087,48.92188 36.0859254,48.9583381 36.1406127,49.0312547 L37.2890475,50.2617205 L37.3437349,50.2617205 L37.3437349,46.406261 L33.4882753,46.406261 L33.4882753,46.4609483 L34.7187411,47.6093831 C34.7916578,47.6640705 34.8281159,47.7369871 34.8281159,47.8281326 C34.8281159,47.919278 34.7916578,48.0013091 34.7187411,48.0742257 L34.1992111,48.6210994 C34.1262945,48.6757868 34.0442634,48.7031305 33.953118,48.7031305 C33.8619725,48.7031305 33.7890559,48.6757868 33.7343685,48.6210994 L31.1093747,45.968762 C31.0364581,45.9140746 31,45.841158 31,45.7500125 C31,45.658867 31.0364581,45.5859504 31.1093747,45.531263 L33.7343685,42.8789256 C33.7890559,42.8242382 33.8619725,42.7968946 33.953118,42.7968946 C34.0442634,42.7968946 34.1262945,42.8242382 34.1992111,42.8789256 L34.7187411,43.4257993 C34.7916578,43.4987159 34.8281159,43.580747 34.8281159,43.6718925 C34.8281159,43.7630379 34.7916578,43.8359546 34.7187411,43.890642 L33.4882753,45.0390767 L33.4882753,45.0937641 L37.3437349,45.0937641 L37.3437349,41.2383045 L37.2890475,41.2383045 L36.1406127,42.4687703 C36.0859254,42.541687 36.0130087,42.5781451 35.9218633,42.5781451 C35.8307178,42.5781451 35.7486867,42.541687 35.6757701,42.4687703 L35.1288964,41.9492403 C35.074209,41.8763237 35.0468654,41.7942926 35.0468654,41.7031472 C35.0468654,41.6120017 35.074209,41.5390851 35.1288964,41.4843977 L37.7812338,38.8594039 C37.8359212,38.7864873 37.9088378,38.7500292 37.9999833,38.7500292 C38.0911288,38.7500292 38.1640454,38.7864873 38.2187328,38.8594039 L40.8710702,41.4843977 C40.9257576,41.5390851 40.9531013,41.6120017 40.9531013,41.7031472 C40.9531013,41.7942926 40.9257576,41.8763237 40.8710702,41.9492403 L40.3241965,42.4687703 C40.2512799,42.541687 40.1692488,42.5781451 40.0781034,42.5781451 C39.9869579,42.5781451 39.9140412,42.541687 39.8593539,42.4687703 L38.7109191,41.2383045 L38.6562317,41.2383045 L38.6562317,45.0937641 L42.5116913,45.0937641 L42.5116913,45.0390767 L41.2812255,43.890642 C41.2083089,43.8359546 41.1718507,43.7630379 41.1718507,43.6718925 C41.1718507,43.580747 41.2083089,43.4987159 41.2812255,43.4257993 L41.8007555,42.8789256 C41.8736721,42.8242382 41.9557032,42.7968946 42.0468487,42.7968946 C42.1379941,42.7968946 42.2109108,42.8242382 42.2655981,42.8789256 L44.8905919,45.531263 C44.9635085,45.5859504 44.9999666,45.658867 44.9999666,45.7500125 C44.9999666,45.841158 44.9635085,45.9140746 44.8905919,45.968762 L42.2655981,48.6210994 C42.2109108,48.6757868 42.1379941,48.7031305 42.0468487,48.7031305 C41.9557032,48.7031305 41.8736721,48.6757868 41.8007555,48.6210994 L41.2812255,48.0742257 C41.2083089,48.0013091 41.1718507,47.919278 41.1718507,47.8281326 C41.1718507,47.7369871 41.2083089,47.6640705 41.2812255,47.6093831 L42.5116913,46.4609483 L42.5116913,46.406261 L38.6562317,46.406261 L38.6562317,50.2617205 L38.7109191,50.2617205 L39.8593539,49.0312547 C39.9140412,48.9583381 39.9869579,48.92188 40.0781034,48.92188 C40.1692488,48.92188 40.2512799,48.9583381 40.3241965,49.0312547 L40.8710702,49.5507847 C40.9257576,49.6237013 40.9531013,49.7057324 40.9531013,49.7968779 C40.9531013,49.8880233 40.9257576,49.96094 40.8710702,50.0156273 Z" id="icon-drag"></path>
        </g>
    </g>
</svg>