<?xml version="1.0" encoding="UTF-8"?>
<svg width="14px" height="15px" viewBox="0 0 14 15" version="1.1" xmlns="http://www.w3.org/2000/svg" xmlns:xlink="http://www.w3.org/1999/xlink">
    <!-- Generator: Sketch 52.5 (67469) - http://www.bohemiancoding.com/sketch -->
    <title>icon-field-time</title>
    <desc>Created with Sketch.</desc>
    <g id="rough" stroke="none" stroke-width="1" fill="none" fill-rule="evenodd">
        <g id="Artboard" transform="translate(-84.000000, -20.000000)" fill="#2B333D">
            <path d="M90.9999833,20.9687787 C92.2213347,20.9687787 93.3515402,21.2741166 94.3906002,21.8847921 C95.4296602,22.4954676 96.2545282,23.3203356 96.8652037,24.3593956 C97.4758792,25.3984556 97.7812171,26.5286611 97.7812171,27.7500125 C97.7812171,28.9713639 97.4758792,30.1015694 96.8652037,31.1406294 C96.2545282,32.1796895 95.4296602,33.0045574 94.3906002,33.6152329 C93.3515402,34.2259084 92.2213347,34.5312463 90.9999833,34.5312463 C89.7786319,34.5312463 88.6484264,34.2259084 87.6093664,33.6152329 C86.5703064,33.0045574 85.7454384,32.1796895 85.1347629,31.1406294 C84.5240874,30.1015694 84.2187495,28.9713639 84.2187495,27.7500125 C84.2187495,26.5286611 84.5240874,25.3984556 85.1347629,24.3593956 C85.7454384,23.3203356 86.5703064,22.4954676 87.6093664,21.8847921 C88.6484264,21.2741166 89.7786319,20.9687787 90.9999833,20.9687787 Z M90.9999833,33.2187495 C91.984356,33.2187495 92.895812,32.9726563 93.7343518,32.48047 C94.5728916,31.9882837 95.2382545,31.3229208 95.7304408,30.484381 C96.2226271,29.6458412 96.4687203,28.7343852 96.4687203,27.7500125 C96.4687203,26.7656399 96.2226271,25.8541838 95.7304408,25.015644 C95.2382545,24.1771042 94.5728916,23.5117414 93.7343518,23.019555 C92.895812,22.5273687 91.984356,22.2812756 90.9999833,22.2812756 C90.0156107,22.2812756 89.1041546,22.5273687 88.2656148,23.019555 C87.427075,23.5117414 86.7617122,24.1771042 86.2695258,25.015644 C85.7773395,25.8541838 85.5312463,26.7656399 85.5312463,27.7500125 C85.5312463,28.7343852 85.7773395,29.6458412 86.2695258,30.484381 C86.7617122,31.3229208 87.427075,31.9882837 88.2656148,32.48047 C89.1041546,32.9726563 90.0156107,33.2187495 90.9999833,33.2187495 Z M90.3710786,28.6796978 C90.2799331,28.6067812 90.2343601,28.5156357 90.2343601,28.406261 L90.2343601,23.9218966 C90.2343601,23.8307512 90.2662612,23.7532771 90.330063,23.6894753 C90.3938648,23.6256735 90.4713389,23.5937724 90.5624844,23.5937724 L91.4374823,23.5937724 C91.5286277,23.5937724 91.6061018,23.6256735 91.6699036,23.6894753 C91.7337054,23.7532771 91.7656065,23.8307512 91.7656065,23.9218966 L91.7656065,27.8046999 L93.5976334,29.1171968 C93.67055,29.1718841 93.7115655,29.2448008 93.7206799,29.3359462 C93.7297944,29.4270917 93.7070081,29.5091228 93.6523207,29.5820394 L93.1601344,30.2929752 C93.105447,30.3658918 93.0325304,30.4114644 92.9413849,30.4296936 C92.8502395,30.4479229 92.7682084,30.4296936 92.6952918,30.3750063 L90.3710786,28.6796978 Z" id="icon-field-time"></path>
        </g>
    </g>
</svg>