<?xml version="1.0" encoding="UTF-8"?>
<svg width="14px" height="15px" viewBox="0 0 14 15" version="1.1" xmlns="http://www.w3.org/2000/svg" xmlns:xlink="http://www.w3.org/1999/xlink">
    <!-- Generator: Sketch 52.5 (67469) - http://www.bohemiancoding.com/sketch -->
    <title>icon-url</title>
    <desc>Created with Sketch.</desc>
    <g id="rough" stroke="none" stroke-width="1" fill="none" fill-rule="evenodd">
        <g id="Artboard" transform="translate(-214.000000, -56.000000)" fill="#2B333D">
            <path d="M220.781234,56.9687787 C222.002585,56.9687787 223.132791,57.2741166 224.171851,57.8847921 C225.210911,58.4954676 226.035779,59.3203356 226.646454,60.3593956 C227.25713,61.3984556 227.562468,62.5286611 227.562468,63.7500125 C227.562468,64.9713639 227.25713,66.1015694 226.646454,67.1406294 C226.035779,68.1796895 225.210911,69.0045574 224.171851,69.6152329 C223.132791,70.2259084 222.002585,70.5312463 220.781234,70.5312463 C219.559882,70.5312463 218.429677,70.2259084 217.390617,69.6152329 C216.351557,69.0045574 215.526689,68.1796895 214.916013,67.1406294 C214.305338,66.1015694 214,64.9713639 214,63.7500125 C214,62.5286611 214.305338,61.3984556 214.916013,60.3593956 C215.526689,59.3203356 216.351557,58.4954676 217.390617,57.8847921 C218.429677,57.2741166 219.559882,56.9687787 220.781234,56.9687787 Z M226.058565,61.1250188 C225.712212,60.414083 225.242812,59.7988501 224.650365,59.2793201 C224.057919,58.75979 223.378884,58.3815359 222.613261,58.1445571 C223.160134,58.891951 223.561175,59.8854385 223.816383,61.1250188 L226.058565,61.1250188 Z M223.187478,63.7500125 C223.187478,63.1666807 223.15102,62.5833485 223.078103,62.0000167 L218.484364,62.0000167 C218.411448,62.5833485 218.37499,63.1666807 218.37499,63.7500125 C218.37499,64.3333443 218.411448,64.9166765 218.484364,65.5000083 L223.078103,65.5000083 C223.15102,64.9166765 223.187478,64.3333443 223.187478,63.7500125 Z M220.781234,57.8437766 C220.398422,57.8437766 220.006496,58.1354427 219.605455,58.7187745 C219.186186,59.3203356 218.867176,60.1224169 218.648426,61.1250188 L222.914041,61.1250188 C222.695292,60.1224169 222.376282,59.3203356 221.957012,58.7187745 C221.555971,58.1354427 221.164045,57.8437766 220.781234,57.8437766 Z M218.949207,58.1445571 C218.183584,58.3815359 217.504549,58.75979 216.912102,59.2793201 C216.319656,59.7988501 215.850256,60.414083 215.503903,61.1250188 L217.746085,61.1250188 C218.001292,59.9036674 218.402333,58.9101803 218.949207,58.1445571 Z M214.874998,63.7500125 C214.874998,64.3515736 214.966143,64.9349054 215.148435,65.5000083 L217.609366,65.5000083 C217.53645,64.9166765 217.499992,64.3379017 217.499992,63.7636844 C217.499992,63.189467 217.53645,62.6015778 217.609366,62.0000167 L215.148435,62.0000167 C214.966143,62.5651196 214.874998,63.1484515 214.874998,63.7500125 Z M215.503903,66.3750063 C215.850256,67.0859421 216.319656,67.701175 216.912102,68.220705 C217.504549,68.740235 218.183584,69.1184892 218.949207,69.3554679 C218.402333,68.608074 218.001292,67.6145865 217.746085,66.3750063 L215.503903,66.3750063 Z M220.781234,69.6562484 C221.164045,69.6562484 221.555971,69.3645823 221.957012,68.7812505 C222.376282,68.1796895 222.695292,67.3776082 222.914041,66.3750063 L218.648426,66.3750063 C218.867176,67.3776082 219.186186,68.1796895 219.605455,68.7812505 C220.006496,69.3645823 220.398422,69.6562484 220.781234,69.6562484 Z M222.640604,69.3554679 C223.387998,69.1184892 224.057919,68.740235 224.650365,68.220705 C225.242812,67.701175 225.712212,67.0859421 226.058565,66.3750063 L223.816383,66.3750063 C223.561175,67.5963577 223.169249,68.5898447 222.640604,69.3554679 Z M223.953101,65.5000083 L226.414033,65.5000083 C226.596324,64.9349054 226.68747,64.3515736 226.68747,63.7500125 C226.68747,63.1484515 226.596324,62.5651196 226.414033,62.0000167 L223.953101,62.0000167 C224.026018,62.5833485 224.062476,63.1621233 224.062476,63.7363407 C224.062476,64.3105581 224.026018,64.8984473 223.953101,65.5000083 Z" id="icon-url"></path>
        </g>
    </g>
</svg>