<?xml version="1.0" encoding="UTF-8"?>
<svg width="13px" height="13px" viewBox="0 0 13 13" version="1.1" xmlns="http://www.w3.org/2000/svg" xmlns:xlink="http://www.w3.org/1999/xlink">
    <!-- Generator: Sketch 52.5 (67469) - http://www.bohemiancoding.com/sketch -->
    <title>plus</title>
    <desc>Created with Sketch.</desc>
    <g id="experiment" stroke="none" stroke-width="1" fill="none" fill-rule="evenodd">
        <g id="initial-copy-6" transform="translate(-409.000000, -555.000000)" fill="#2B333D">
            <g id="Aside-content" transform="translate(90.000000, 90.000000)">
                <g id="Forms-list-Copy-2" transform="translate(0.000000, 462.000000)">
                    <path d="M330.921847,8.98438934 C331.012992,8.98438934 331.090466,9.01629045 331.154268,9.08009224 C331.21807,9.14389403 331.249971,9.22136808 331.249971,9.31251356 L331.249971,10.1875115 C331.249971,10.278657 331.21807,10.356131 331.154268,10.4199328 C331.090466,10.4837346 331.012992,10.5156357 330.921847,10.5156357 L325.890609,10.5156357 L325.890609,15.5468737 C325.890609,15.6380192 325.858707,15.7154932 325.794906,15.779295 C325.731104,15.8430968 325.65363,15.8749979 325.562484,15.8749979 L324.687486,15.8749979 C324.596341,15.8749979 324.518867,15.8430968 324.455065,15.779295 C324.391263,15.7154932 324.359362,15.6380192 324.359362,15.5468737 L324.359362,10.5156357 L319.328124,10.5156357 C319.236979,10.5156357 319.159505,10.4837346 319.095703,10.4199328 C319.031901,10.356131 319,10.278657 319,10.1875115 L319,9.31251356 C319,9.22136808 319.031901,9.14389403 319.095703,9.08009224 C319.159505,9.01629045 319.236979,8.98438934 319.328124,8.98438934 L324.359362,8.98438934 L324.359362,3.95315134 C324.359362,3.86200586 324.391263,3.78453181 324.455065,3.72073002 C324.518867,3.65692822 324.596341,3.62502712 324.687486,3.62502712 L325.562484,3.62502712 C325.65363,3.62502712 325.731104,3.65692822 325.794906,3.72073002 C325.858707,3.78453181 325.890609,3.86200586 325.890609,3.95315134 L325.890609,8.98438934 L330.921847,8.98438934 Z" id="plus"></path>
                </g>
            </g>
        </g>
    </g>
</svg>