<?xml version="1.0" encoding="UTF-8"?>
<svg width="14px" height="15px" viewBox="0 0 14 15" version="1.1" xmlns="http://www.w3.org/2000/svg" xmlns:xlink="http://www.w3.org/1999/xlink">
    <!-- Generator: Sketch 52.5 (67469) - http://www.bohemiancoding.com/sketch -->
    <title>icon-acc</title>
    <desc>Created with Sketch.</desc>
    <g id="Finalized" stroke="none" stroke-width="1" fill="none" fill-rule="evenodd">
        <g id="decision-intersection" transform="translate(-655.000000, -631.000000)" fill="#2B333D">
            <g id="sub-content" transform="translate(452.000000, 85.000000)">
                <g id="field---decision-tree" transform="translate(20.000000, 454.000000)">
                    <g id="field---oncall-schedule" transform="translate(58.000000, 90.000000)">
                        <path d="M135.308569,11.0625094 C136.037734,11.0625094 136.693983,11.2356859 137.277314,11.5820394 C137.805959,11.8919344 138.225229,12.3203189 138.535124,12.8671926 C138.845019,13.4140663 138.999967,13.9973981 138.999967,14.6171884 L138.999967,15.3007805 C138.999967,15.7018214 138.858691,16.0436174 138.57614,16.3261687 C138.293588,16.60872 137.951792,16.7499958 137.550751,16.7499958 L126.449215,16.7499958 C126.048174,16.7499958 125.706378,16.60872 125.423827,16.3261687 C125.141276,16.0436174 125,15.7018214 125,15.3007805 L125,14.6171884 C125,13.9973981 125.154948,13.4140663 125.464843,12.8671926 C125.774738,12.3203189 126.203122,11.8919344 126.749996,11.5820394 C127.315099,11.2356859 127.962232,11.0625094 128.691397,11.0625094 C128.21744,10.6067812 127.848301,10.0735793 127.583978,9.46290383 C127.319656,8.85222834 127.187495,8.21876617 127.187495,7.56251773 C127.187495,6.68751982 127.401687,5.88088112 127.830071,5.14260163 C128.258456,4.40432214 128.841788,3.82099033 129.580067,3.3926058 C130.318347,2.96422126 131.124985,2.75002921 131.999983,2.75002921 C132.874981,2.75002921 133.68162,2.96422126 134.419899,3.3926058 C135.158179,3.82099033 135.741511,4.40432214 136.169895,5.14260163 C136.59828,5.88088112 136.812472,6.68751982 136.812472,7.56251773 C136.812472,8.21876617 136.680311,8.85222834 136.415988,9.46290383 C136.151666,10.0735793 135.782526,10.6067812 135.308569,11.0625094 Z M128.062493,7.56251773 C128.062493,8.27345354 128.240227,8.92970197 128.595695,9.53126304 C128.951162,10.1328241 129.429677,10.6113386 130.031238,10.9668065 C130.632799,11.3222744 131.289048,11.5000083 131.999983,11.5000083 C132.710919,11.5000083 133.367168,11.3222744 133.968729,10.9668065 C134.57029,10.6113386 135.048804,10.1328241 135.404272,9.53126304 C135.75974,8.92970197 135.937474,8.27345354 135.937474,7.56251773 C135.937474,6.85158193 135.75974,6.19533349 135.404272,5.59377243 C135.048804,4.99221136 134.57029,4.51369688 133.968729,4.15822897 C133.367168,3.80276107 132.710919,3.62502712 131.999983,3.62502712 C131.289048,3.62502712 130.632799,3.80276107 130.031238,4.15822897 C129.429677,4.51369688 128.951162,4.99221136 128.595695,5.59377243 C128.240227,6.19533349 128.062493,6.85158193 128.062493,7.56251773 Z M138.124969,15.3007805 L138.124969,14.6171884 C138.124969,13.8697945 137.865204,13.2363323 137.345674,12.7168023 C136.826144,12.1972723 136.192682,11.9375073 135.445288,11.9375073 L133.996072,11.9375073 C133.358053,12.2291734 132.69269,12.3750063 131.999983,12.3750063 C131.307277,12.3750063 130.641913,12.2291734 130.003894,11.9375073 L128.554679,11.9375073 C127.807285,11.9375073 127.173823,12.1972723 126.654293,12.7168023 C126.134763,13.2363323 125.874998,13.8697945 125.874998,14.6171884 L125.874998,15.3007805 C125.874998,15.4648426 125.929685,15.6015611 126.03906,15.7109358 C126.148435,15.8203105 126.285153,15.8749979 126.449215,15.8749979 L137.550751,15.8749979 C137.714813,15.8749979 137.851532,15.8203105 137.960907,15.7109358 C138.070281,15.6015611 138.124969,15.4648426 138.124969,15.3007805 Z" id="icon-acc"></path>
                    </g>
                </g>
            </g>
        </g>
    </g>
</svg>