<?xml version="1.0" encoding="UTF-8"?>
<svg width="14px" height="13px" viewBox="0 0 14 13" version="1.1" xmlns="http://www.w3.org/2000/svg" xmlns:xlink="http://www.w3.org/1999/xlink">
    <!-- Generator: Sketch 52.5 (67469) - http://www.bohemiancoding.com/sketch -->
    <title>icon-link</title>
    <desc>Created with Sketch.</desc>
    <g id="Finalized-Copy-5" stroke="none" stroke-width="1" fill="none" fill-rule="evenodd">
        <g id="external-links" transform="translate(-286.000000, -349.000000)" fill="#2B333D">
            <g id="external-link" transform="translate(62.000000, 325.000000)">
                <g id="sb" transform="translate(28.000000, 15.000000)">
                    <path d="M200.593739,18.2890666 C200.531239,18.2265666 200.499989,18.1562543 200.499989,18.0781296 C200.499989,18.0000049 200.531239,17.9375049 200.593739,17.89063 L208.164033,10.3203356 L208.140596,10.2968981 L206.031226,10.2968981 C205.953101,10.2968981 205.886695,10.2695543 205.832008,10.2148671 C205.777321,10.1601798 205.749977,10.0937735 205.749977,10.0156488 L205.749977,9.78127436 C205.749977,9.70314967 205.777321,9.63674334 205.832008,9.58205609 C205.886695,9.52736884 205.953101,9.50002503 206.031226,9.50002503 L209.218718,9.50002503 C209.296843,9.50002503 209.36325,9.52736884 209.417937,9.58205609 C209.472624,9.63674334 209.499968,9.70314967 209.499968,9.78127436 L209.499968,12.9687668 C209.499968,13.0468915 209.472624,13.1132978 209.417937,13.167985 C209.36325,13.2226723 209.296843,13.2500161 209.218718,13.2500161 L208.984344,13.2500161 C208.906219,13.2500161 208.839813,13.2226723 208.785126,13.167985 C208.730439,13.1132978 208.703095,13.0468915 208.703095,12.9687668 L208.703095,10.8593968 L208.679657,10.8359593 L201.109363,18.4062538 C201.062488,18.4687538 200.999988,18.5000036 200.921863,18.5000036 C200.843739,18.5000036 200.773426,18.4687538 200.710926,18.4062538 L200.593739,18.2890666 Z M206.031226,14.6328253 C206.109351,14.5547006 206.207007,14.5390755 206.324194,14.5859504 C206.441381,14.6328253 206.499975,14.7187627 206.499975,14.8437623 L206.499975,20.3749991 C206.499975,20.6874982 206.3906,20.9531228 206.171851,21.1718722 C205.953101,21.3906216 205.687477,21.4999964 205.374978,21.4999964 L197.124997,21.4999964 C196.812498,21.4999964 196.546874,21.3906216 196.328124,21.1718722 C196.109375,20.9531228 196,20.6874982 196,20.3749991 L196,12.1250188 C196,11.8125196 196.109375,11.546895 196.328124,11.3281457 C196.546874,11.1093963 196.812498,11.0000215 197.124997,11.0000215 L205.281228,11.0000215 C205.406227,11.0000215 205.492165,11.0586151 205.53904,11.1758023 C205.585915,11.2929895 205.562477,11.3906456 205.468727,11.4687703 L205.281228,11.6562699 C205.234353,11.7187699 205.171853,11.7500197 205.093728,11.7500197 L197.124997,11.7500197 C197.015622,11.7500197 196.925779,11.7851758 196.855467,11.8554882 C196.785154,11.9258005 196.749998,12.0156439 196.749998,12.1250188 L196.749998,20.3749991 C196.749998,20.484374 196.785154,20.5742174 196.855467,20.6445297 C196.925779,20.714842 197.015622,20.7499982 197.124997,20.7499982 L205.374978,20.7499982 C205.484353,20.7499982 205.574196,20.714842 205.644508,20.6445297 C205.714821,20.5742174 205.749977,20.484374 205.749977,20.3749991 L205.749977,15.0312618 C205.749977,14.9531372 205.781227,14.8828248 205.843727,14.8203248 L206.031226,14.6328253 Z" id="icon-link"></path>
                </g>
            </g>
        </g>
    </g>
</svg>