<?xml version="1.0" encoding="UTF-8"?>
<svg width="14px" height="15px" viewBox="0 0 14 15" version="1.1" xmlns="http://www.w3.org/2000/svg" xmlns:xlink="http://www.w3.org/1999/xlink">
    <!-- Generator: Sketch 52.5 (67469) - http://www.bohemiancoding.com/sketch -->
    <title>icon-field-drag</title>
    <desc>Created with Sketch.</desc>
    <g id="experiment" stroke="none" stroke-width="1" fill="none" fill-rule="evenodd">
        <g id="initial-copy-6" transform="translate(-237.000000, -194.000000)" fill="#2B333D">
            <g id="Aside-content" transform="translate(90.000000, 90.000000)">
                <g id="drags" transform="translate(20.000000, 94.000000)">
                    <g id="drag">
                        <path d="M134.546857,17.2031388 L137.718724,17.2031388 L137.718724,15.1250188 C137.718724,14.9791859 137.787084,14.8789256 137.923802,14.8242382 C138.060521,14.7695509 138.174453,14.7877801 138.265598,14.8789256 L140.890592,17.531263 C140.963509,17.5859504 140.999967,17.658867 140.999967,17.7500125 C140.999967,17.841158 140.963509,17.923189 140.890592,17.9961057 L138.265598,20.6210994 C138.174453,20.7122449 138.060521,20.7304742 137.923802,20.6757868 C137.787084,20.6210994 137.718724,20.5208391 137.718724,20.3750063 L137.718724,18.2968862 L134.546857,18.2968862 L134.546857,21.4687537 L136.624977,21.4687537 C136.77081,21.4687537 136.87107,21.5371129 136.925758,21.6738313 C136.980445,21.8105497 136.962216,21.9244819 136.87107,22.0156273 L134.218733,24.6406211 C134.164045,24.7135377 134.091129,24.7499958 133.999983,24.7499958 C133.908838,24.7499958 133.835921,24.7135377 133.781234,24.6406211 L131.128896,22.0156273 C131.037751,21.9244819 131.019522,21.8105497 131.074209,21.6738313 C131.128896,21.5371129 131.229157,21.4687537 131.37499,21.4687537 L133.45311,21.4687537 L133.45311,18.2968862 L130.281242,18.2968862 L130.281242,20.3750063 C130.281242,20.5208391 130.212883,20.6210994 130.076165,20.6757868 C129.939446,20.7304742 129.825514,20.7122449 129.734368,20.6210994 L127.109375,17.9961057 C127.036458,17.923189 127,17.841158 127,17.7500125 C127,17.658867 127.036458,17.5859504 127.109375,17.531263 L129.734368,14.8789256 C129.825514,14.7877801 129.939446,14.7695509 130.076165,14.8242382 C130.212883,14.8789256 130.281242,14.9791859 130.281242,15.1250188 L130.281242,17.2031388 L133.45311,17.2031388 L133.45311,14.0312714 L131.37499,14.0312714 C131.229157,14.0312714 131.128896,13.9629122 131.074209,13.8261937 C131.019522,13.6894753 131.037751,13.5755432 131.128896,13.4843977 L133.781234,10.8594039 C133.835921,10.7864873 133.908838,10.7500292 133.999983,10.7500292 C134.091129,10.7500292 134.164045,10.7864873 134.218733,10.8594039 L136.87107,13.4843977 C136.962216,13.5755432 136.980445,13.6894753 136.925758,13.8261937 C136.87107,13.9629122 136.77081,14.0312714 136.624977,14.0312714 L134.546857,14.0312714 L134.546857,17.2031388 Z" id="icon-field-drag"></path>
                    </g>
                </g>
            </g>
        </g>
    </g>
</svg>