<?xml version="1.0" encoding="UTF-8"?>
<svg width="18px" height="21px" viewBox="0 0 18 21" version="1.1" xmlns="http://www.w3.org/2000/svg" xmlns:xlink="http://www.w3.org/1999/xlink">
    <!-- Generator: Sketch 52.5 (67469) - http://www.bohemiancoding.com/sketch -->
    <title>icon-details</title>
    <desc>Created with Sketch.</desc>
    <g id="experiment" stroke="none" stroke-width="1" fill="none" fill-rule="evenodd">
        <g id="initial-copy-6" transform="translate(-26.000000, -269.000000)" fill="#FFFFFF">
            <g id="sidebar">
                <g id="Group-3-Copy-2" transform="translate(0.000000, 250.000000)">
                    <path d="M31.3124873,23.2500328 C31.5729036,23.2500328 31.7942568,23.3411782 31.9765483,23.5234696 C32.1588397,23.7057611 32.2499851,23.9271143 32.2499851,24.1875305 L32.2499851,26.0625261 C32.2499851,26.3229423 32.1588397,26.5442956 31.9765483,26.726587 C31.7942568,26.9088784 31.5729036,27.0000238 31.3124873,27.0000238 L29.7499911,27.0000238 L29.7499911,39.0312452 C29.7499911,39.161453 29.7044181,39.2721302 29.6132726,39.3632756 C29.5221272,39.454421 29.41145,39.499994 29.2812422,39.499994 L28.9687429,39.499994 C28.8385351,39.499994 28.7278579,39.454421 28.6367125,39.3632756 C28.545567,39.2721302 28.499994,39.161453 28.499994,39.0312452 L28.499994,27.0000238 L26.9374978,27.0000238 C26.6770815,27.0000238 26.4557283,26.9088784 26.2734368,26.726587 C26.0911454,26.5442956 26,26.3229423 26,26.0625261 L26,24.1875305 C26,23.9271143 26.0911454,23.7057611 26.2734368,23.5234696 C26.4557283,23.3411782 26.6770815,23.2500328 26.9374978,23.2500328 L28.499994,23.2500328 L28.499994,19.9687906 C28.499994,19.8385828 28.545567,19.7279056 28.6367125,19.6367601 C28.7278579,19.5456147 28.8385351,19.5000417 28.9687429,19.5000417 L29.2812422,19.5000417 C29.41145,19.5000417 29.5221272,19.5456147 29.6132726,19.6367601 C29.7044181,19.7279056 29.7499911,19.8385828 29.7499911,19.9687906 L29.7499911,23.2500328 L31.3124873,23.2500328 Z M30.9999881,25.7500268 L30.9999881,24.5000298 L27.249997,24.5000298 L27.249997,25.7500268 L30.9999881,25.7500268 Z M36.9374739,32.0000119 C37.1978902,32.0000119 37.4192434,32.0911573 37.6015348,32.2734488 C37.7838263,32.4557402 37.8749717,32.6770934 37.8749717,32.9375097 L37.8749717,34.8125052 C37.8749717,35.0729215 37.7838263,35.2942747 37.6015348,35.4765661 C37.4192434,35.6588576 37.1978902,35.750003 36.9374739,35.750003 L35.3749776,35.750003 L35.3749776,39.0312452 C35.3749776,39.161453 35.3294046,39.2721302 35.2382592,39.3632756 C35.1471138,39.454421 35.0364366,39.499994 34.9062288,39.499994 L34.5937295,39.499994 C34.4635217,39.499994 34.3528445,39.454421 34.2616991,39.3632756 C34.1705536,39.2721302 34.1249806,39.161453 34.1249806,39.0312452 L34.1249806,35.750003 L32.5624844,35.750003 C32.3020681,35.750003 32.0807149,35.6588576 31.8984234,35.4765661 C31.716132,35.2942747 31.6249866,35.0729215 31.6249866,34.8125052 L31.6249866,32.9375097 C31.6249866,32.6770934 31.716132,32.4557402 31.8984234,32.2734488 C32.0807149,32.0911573 32.3020681,32.0000119 32.5624844,32.0000119 L34.1249806,32.0000119 L34.1249806,19.9687906 C34.1249806,19.8385828 34.1705536,19.7279056 34.2616991,19.6367601 C34.3528445,19.5456147 34.4635217,19.5000417 34.5937295,19.5000417 L34.9062288,19.5000417 C35.0364366,19.5000417 35.1471138,19.5456147 35.2382592,19.6367601 C35.3294046,19.7279056 35.3749776,19.8385828 35.3749776,19.9687906 L35.3749776,32.0000119 L36.9374739,32.0000119 Z M36.6249747,34.500006 L36.6249747,33.2500089 L32.8749836,33.2500089 L32.8749836,34.500006 L36.6249747,34.500006 Z M42.5624605,25.7500268 C42.8228768,25.7500268 43.04423,25.8411722 43.2265214,26.0234637 C43.4088129,26.2057551 43.4999583,26.4271083 43.4999583,26.6875246 L43.4999583,28.5625201 C43.4999583,28.8229364 43.4088129,29.0442896 43.2265214,29.226581 C43.04423,29.4088725 42.8228768,29.5000179 42.5624605,29.5000179 L40.9999642,29.5000179 L40.9999642,39.0312452 C40.9999642,39.161453 40.9543912,39.2721302 40.8632458,39.3632756 C40.7721004,39.454421 40.6614232,39.499994 40.5312154,39.499994 L40.2187161,39.499994 C40.0885083,39.499994 39.9778311,39.454421 39.8866856,39.3632756 C39.7955402,39.2721302 39.7499672,39.161453 39.7499672,39.0312452 L39.7499672,29.5000179 L38.1874709,29.5000179 C37.9270547,29.5000179 37.7057015,29.4088725 37.52341,29.226581 C37.3411186,29.0442896 37.2499732,28.8229364 37.2499732,28.5625201 L37.2499732,26.6875246 C37.2499732,26.4271083 37.3411186,26.2057551 37.52341,26.0234637 C37.7057015,25.8411722 37.9270547,25.7500268 38.1874709,25.7500268 L39.7499672,25.7500268 L39.7499672,19.9687906 C39.7499672,19.8385828 39.7955402,19.7279056 39.8866856,19.6367601 C39.9778311,19.5456147 40.0885083,19.5000417 40.2187161,19.5000417 L40.5312154,19.5000417 C40.6614232,19.5000417 40.7721004,19.5456147 40.8632458,19.6367601 C40.9543912,19.7279056 40.9999642,19.8385828 40.9999642,19.9687906 L40.9999642,25.7500268 L42.5624605,25.7500268 Z M42.2499613,28.2500209 L42.2499613,27.0000238 L38.4999702,27.0000238 L38.4999702,28.2500209 L42.2499613,28.2500209 Z" id="icon-details"></path>
                </g>
            </g>
        </g>
    </g>
</svg>