<?xml version="1.0" encoding="UTF-8"?>
<svg width="13px" height="15px" viewBox="0 0 13 15" version="1.1" xmlns="http://www.w3.org/2000/svg" xmlns:xlink="http://www.w3.org/1999/xlink">
    <!-- Generator: Sketch 52.5 (67469) - http://www.bohemiancoding.com/sketch -->
    <title>icon-paste</title>
    <desc>Created with Sketch.</desc>
    <g id="experiment" stroke="none" stroke-width="1" fill="none" fill-rule="evenodd">
        <g id="initial-copy-6" transform="translate(-587.000000, -149.000000)" fill="#2B333D">
            <g id="sub-content" transform="translate(462.000000, 90.000000)">
                <g id="Tools" transform="translate(20.000000, 49.000000)">
                    <g id="cut-copy-paste" transform="translate(59.000000, 1.000000)">
                        <path d="M57.8671592,15.0547041 C58.1223668,15.3099116 58.2499708,15.619807 58.2499708,15.9843893 L58.2499708,22.437499 C58.2499708,22.8020813 58.1223668,23.1119767 57.8671592,23.3671842 C57.6119516,23.6223918 57.3020562,23.7499958 56.9374739,23.7499958 L50.8124885,23.7499958 C50.4479062,23.7499958 50.1380108,23.6223918 49.8828032,23.3671842 C49.6275957,23.1119767 49.4999917,22.8020813 49.4999917,22.437499 L49.4999917,21.1250021 L47.3124969,21.1250021 C46.9479145,21.1250021 46.6380192,20.9973981 46.3828116,20.7421905 C46.127604,20.4869829 46,20.1770875 46,19.8125052 L46,11.937524 C46,11.5729417 46.127604,11.2630463 46.3828116,11.0078387 C46.6380192,10.7526311 46.9479145,10.6250271 47.3124969,10.6250271 L48.9804616,10.6250271 C49.1080656,10.3698195 49.2994714,10.1601845 49.554679,9.99612237 C49.8098866,9.83206026 50.0833235,9.75002921 50.3749896,9.75002921 C50.6666557,9.75002921 50.9400925,9.83206026 51.1953001,9.99612237 C51.4505077,10.1601845 51.6419135,10.3698195 51.7695175,10.6250271 L53.4374823,10.6250271 C53.8020646,10.6250271 54.11196,10.7526311 54.3671676,11.0078387 C54.6223751,11.2630463 54.7499791,11.5729417 54.7499791,11.937524 L54.7499791,13.2500209 L55.5156023,13.2500209 C55.8801846,13.2500209 56.19008,13.3776249 56.4452876,13.6328324 L57.8671592,15.0547041 Z M55.5702897,14.6172051 C55.5338316,14.580747 55.4973731,14.5625177 55.4609149,14.5625177 L55.1874781,14.5625177 L55.1874781,16.3125136 L56.9374739,16.3125136 L56.9374739,16.0390767 C56.9374739,16.0026186 56.9192447,15.9661601 56.8827866,15.929702 L55.5702897,14.6172051 Z M50.3749896,10.7890892 C50.2473856,10.7890892 50.1334538,10.8392192 50.0331935,10.9394795 C49.9329332,11.0397398 49.8828032,11.1536716 49.8828032,11.2812756 C49.8828032,11.4088796 49.9329332,11.5228113 50.0331935,11.6230716 C50.1334538,11.7233319 50.2473856,11.7734619 50.3749896,11.7734619 C50.5025936,11.7734619 50.6165253,11.7233319 50.7167856,11.6230716 C50.8170459,11.5228113 50.8671759,11.4088796 50.8671759,11.2812756 C50.8671759,11.1536716 50.8170459,11.0397398 50.7167856,10.9394795 C50.6165253,10.8392192 50.5025936,10.7890892 50.3749896,10.7890892 Z M49.4999917,14.5625177 C49.4999917,14.1979354 49.6275957,13.88804 49.8828032,13.6328324 C50.1380108,13.3776249 50.4479062,13.2500209 50.8124885,13.2500209 L53.4374823,13.2500209 L53.4374823,12.1015861 C53.4374823,12.065128 53.419253,12.0286695 53.3827949,11.9922114 C53.3463368,11.9557533 53.3098783,11.937524 53.2734202,11.937524 L51.7695175,11.937524 C51.6419135,12.1927316 51.4505077,12.4023666 51.1953001,12.5664287 C50.9400925,12.7304909 50.6666557,12.8125219 50.3749896,12.8125219 C50.0833235,12.8125219 49.8098866,12.7304909 49.554679,12.5664287 C49.2994714,12.4023666 49.1080656,12.1927316 48.9804616,11.937524 L47.476559,11.937524 C47.4401009,11.937524 47.4036423,11.9557533 47.3671842,11.9922114 C47.3307261,12.0286695 47.3124969,12.065128 47.3124969,12.1015861 L47.3124969,19.6484431 C47.3124969,19.6849012 47.3307261,19.7213597 47.3671842,19.7578178 C47.4036423,19.794276 47.4401009,19.8125052 47.476559,19.8125052 L49.4999917,19.8125052 L49.4999917,14.5625177 Z M56.7734118,22.437499 C56.8098699,22.437499 56.8463284,22.4192697 56.8827866,22.3828116 C56.9192447,22.3463535 56.9374739,22.309895 56.9374739,22.2734368 L56.9374739,17.6250104 L54.5312297,17.6250104 C54.3489383,17.6250104 54.193991,17.5612086 54.066387,17.4336046 C53.938783,17.3060006 53.8749812,17.1510534 53.8749812,16.968762 L53.8749812,14.5625177 L50.9765506,14.5625177 C50.9400925,14.5625177 50.903634,14.580747 50.8671759,14.6172051 C50.8307178,14.6536632 50.8124885,14.6901217 50.8124885,14.7265798 L50.8124885,22.2734368 C50.8124885,22.309895 50.8307178,22.3463535 50.8671759,22.3828116 C50.903634,22.4192697 50.9400925,22.437499 50.9765506,22.437499 L56.7734118,22.437499 Z" id="icon-paste"></path>
                    </g>
                </g>
            </g>
        </g>
    </g>
</svg>