<?xml version="1.0" encoding="UTF-8"?>
<svg width="16px" height="13px" viewBox="0 0 16 13" version="1.1" xmlns="http://www.w3.org/2000/svg" xmlns:xlink="http://www.w3.org/1999/xlink">
    <!-- Generator: Sketch 52.5 (67469) - http://www.bohemiancoding.com/sketch -->
    <title>icon-field-webchat</title>
    <desc>Created with Sketch.</desc>
    <g id="rough" stroke="none" stroke-width="1" fill="none" fill-rule="evenodd">
        <g id="Artboard" transform="translate(-224.000000, -84.000000)" fill="#2B333D">
            <path d="M238.54684,94.3046915 C238.729132,94.651045 238.956996,95.0065129 239.230432,95.3710952 C239.412724,95.6263028 239.531213,95.7721361 239.5859,95.8085942 C239.677046,95.8997397 239.731733,96.0091144 239.749962,96.1367184 C239.768192,96.2643224 239.75452,96.3828116 239.708947,96.4921863 C239.663374,96.6015611 239.5859,96.6927065 239.476526,96.7656232 C239.367151,96.8385398 239.248662,96.8749979 239.121058,96.8749979 C237.936165,96.8749979 236.796844,96.51953 235.703097,95.8085942 C235.174453,95.9361982 234.627579,96 234.062476,96 C232.895812,96 231.838523,95.7539068 230.890609,95.2617205 C229.942694,94.7695342 229.249987,94.1224002 228.812489,93.3203189 C228.557281,93.2838608 228.302073,93.2382878 228.046865,93.1836005 C226.971347,93.8945363 225.832027,94.2500042 224.628905,94.2500042 C224.501301,94.2500042 224.387369,94.2135461 224.287109,94.1406294 C224.186848,94.0677128 224.109375,93.9765673 224.054687,93.8671926 C224,93.7578178 223.986328,93.6393287 224.013672,93.5117247 C224.041016,93.3841207 224.095703,93.2793034 224.177734,93.1972723 C224.259765,93.1152413 224.382812,92.964851 224.546874,92.7461015 C224.802081,92.3815192 225.020831,92.0260513 225.203122,91.6796978 C224.401041,90.8958454 224,90.0026186 224,89.0000167 C224,88.2161643 224.255208,87.4869996 224.765623,86.8125219 C225.276039,86.1380442 225.964188,85.6048424 226.830071,85.2129163 C227.695955,84.8209903 228.648426,84.6250271 229.687486,84.6250271 C230.85415,84.6250271 231.911439,84.8711203 232.859354,85.3633066 C233.807268,85.8554929 234.499975,86.5026269 234.937474,87.3047082 C235.830701,87.414083 236.646454,87.673848 237.384734,88.0840032 C238.123013,88.4941585 238.701788,89.0091311 239.121058,89.6289214 C239.540327,90.2487118 239.749962,90.9140746 239.749962,91.6250104 C239.749962,92.6276123 239.348922,93.5208391 238.54684,94.3046915 Z M227.882803,92.2539152 L228.238271,92.3359462 C228.712228,92.445321 229.1953,92.5000083 229.687486,92.5000083 C230.562484,92.5000083 231.369123,92.3450607 232.107403,92.0351657 C232.845682,91.7252707 233.429014,91.3014436 233.857398,90.7636844 C234.285783,90.2259251 234.499975,89.6380359 234.499975,89.0000167 C234.499975,88.3619975 234.285783,87.7741083 233.857398,87.236349 C233.429014,86.6985897 232.845682,86.2747626 232.107403,85.9648677 C231.369123,85.6549727 230.562484,85.500025 229.687486,85.500025 C228.812489,85.500025 228.00585,85.6549727 227.26757,85.9648677 C226.529291,86.2747626 225.945959,86.6985897 225.517575,87.236349 C225.08919,87.7741083 224.874998,88.3619975 224.874998,89.0000167 C224.874998,89.7656399 225.194008,90.449232 225.832027,91.050793 L226.269526,91.5156357 L225.996089,92.0898531 C225.77734,92.5091228 225.503903,92.9283929 225.175778,93.3476626 C226.014318,93.2565171 226.8164,92.9557366 227.582023,92.445321 L227.882803,92.2539152 Z M236.16794,95.0703147 C236.933563,95.5807303 237.735644,95.8815108 238.574184,95.9726563 C238.24606,95.5533866 237.972623,95.1250021 237.753873,94.6875031 L237.480437,94.1406294 L237.917936,93.6757868 C238.555955,93.0742257 238.874965,92.3906336 238.874965,91.6250104 C238.874965,90.8229291 238.537726,90.1074359 237.863248,89.4785312 C237.18877,88.8496264 236.332002,88.4349137 235.292942,88.2343935 C235.347629,88.5078304 235.374973,88.7630379 235.374973,89.0000167 C235.374973,89.7656399 235.12888,90.4811331 234.636693,91.1464959 C234.144507,91.8118588 233.479144,92.3405037 232.640604,92.7324297 C231.802065,93.1243557 230.890609,93.3385482 229.906236,93.3750063 C230.325506,93.9036507 230.90428,94.3274778 231.64256,94.6464876 C232.380839,94.9654974 233.187478,95.1250021 234.062476,95.1250021 C234.554662,95.1250021 235.037734,95.0703147 235.511691,94.96094 L235.867159,94.8789089 L236.16794,95.0703147 Z" id="icon-field-webchat"></path>
        </g>
    </g>
</svg>