<?xml version="1.0" encoding="UTF-8"?>
<svg width="14px" height="15px" viewBox="0 0 14 15" version="1.1" xmlns="http://www.w3.org/2000/svg" xmlns:xlink="http://www.w3.org/1999/xlink">
    <!-- Generator: Sketch 52.5 (67469) - http://www.bohemiancoding.com/sketch -->
    <title>icon-field-oncall</title>
    <desc>Created with Sketch.</desc>
    <g id="experiment" stroke="none" stroke-width="1" fill="none" fill-rule="evenodd">
        <g id="initial-copy-6" transform="translate(-120.000000, -465.000000)">
            <g id="Aside-content" transform="translate(90.000000, 90.000000)">
                <g id="drags" transform="translate(20.000000, 94.000000)">
                    <g id="drag-copy-13" transform="translate(0.000000, 270.000000)">
                        <g id="icon-field-oncall" transform="translate(10.000000, 11.000000)">
                            <path d="M10.9374739,1.75002503 C11.3020562,1.75002503 11.6119516,1.87762904 11.8671592,2.13283662 C12.1223668,2.38804421 12.2499708,2.69793958 12.2499708,3.0625219 L12.2499708,12.687499 C12.2499708,13.0520813 12.1223668,13.3619767 11.8671592,13.6171842 C11.6119516,13.8723918 11.3020562,13.9999958 10.9374739,13.9999958 L1.31249687,13.9999958 C0.947914546,13.9999958 0.638019173,13.8723918 0.382811587,13.6171842 C0.127604002,13.3619767 0,13.0520813 0,12.687499 L0,3.0625219 C0,2.69793958 0.127604002,2.38804421 0.382811587,2.13283662 C0.638019173,1.87762904 0.947914546,1.75002503 1.31249687,1.75002503 L2.62499374,1.75002503 L2.62499374,0.328153424 C2.62499374,0.237007947 2.65689485,0.159533895 2.72069664,0.0957321031 C2.78449843,0.031930311 2.86197248,2.92062759e-05 2.95311796,2.92062759e-05 L3.17186744,2.92062759e-05 C3.26301291,2.92062759e-05 3.34048697,0.031930311 3.40428876,0.0957321031 C3.46809055,0.159533895 3.49999166,0.237007947 3.49999166,0.328153424 L3.49999166,1.75002503 L8.74997914,1.75002503 L8.74997914,0.328153424 C8.74997914,0.237007947 8.78188024,0.159533895 8.84568204,0.0957321031 C8.90948383,0.031930311 8.98695788,2.92062759e-05 9.07810336,2.92062759e-05 L9.29685283,2.92062759e-05 C9.38799831,2.92062759e-05 9.46547236,0.031930311 9.52927416,0.0957321031 C9.59307595,0.159533895 9.62497705,0.237007947 9.62497705,0.328153424 L9.62497705,1.75002503 L10.9374739,1.75002503 Z M1.31249687,2.62502295 C1.18489287,2.62502295 1.08007555,2.66603847 0.998044495,2.74806953 C0.916013441,2.83010058 0.874997914,2.9349179 0.874997914,3.0625219 L0.874997914,4.37501878 L11.3749729,4.37501878 L11.3749729,3.0625219 C11.3749729,2.9349179 11.3339574,2.83010058 11.2519263,2.74806953 C11.1698952,2.66603847 11.0650779,2.62502295 10.9374739,2.62502295 L1.31249687,2.62502295 Z M10.9374739,13.1249979 C11.0650779,13.1249979 11.1698952,13.0839824 11.2519263,13.0019513 C11.3339574,12.9199203 11.3749729,12.815103 11.3749729,12.687499 L11.3749729,5.25001669 L0.874997914,5.25001669 L0.874997914,12.687499 C0.874997914,12.815103 0.916013441,12.9199203 0.998044495,13.0019513 C1.08007555,13.0839824 1.18489287,13.1249979 1.31249687,13.1249979 L10.9374739,13.1249979 Z M2.95311796,8.75000834 C2.86197248,8.75000834 2.78449843,8.71810724 2.72069664,8.65430545 C2.65689485,8.59050366 2.62499374,8.5130296 2.62499374,8.42188413 L2.62499374,7.32813673 C2.62499374,7.23699126 2.65689485,7.15951721 2.72069664,7.09571541 C2.78449843,7.03191362 2.86197248,7.00001252 2.95311796,7.00001252 L4.04686535,7.00001252 C4.13801083,7.00001252 4.21548488,7.03191362 4.27928667,7.09571541 C4.34308846,7.15951721 4.37498957,7.23699126 4.37498957,7.32813673 L4.37498957,8.42188413 C4.37498957,8.5130296 4.34308846,8.59050366 4.27928667,8.65430545 C4.21548488,8.71810724 4.13801083,8.75000834 4.04686535,8.75000834 L2.95311796,8.75000834 Z M5.5781117,8.75000834 C5.48696622,8.75000834 5.40949217,8.71810724 5.34569038,8.65430545 C5.28188859,8.59050366 5.24998748,8.5130296 5.24998748,8.42188413 L5.24998748,7.32813673 C5.24998748,7.23699126 5.28188859,7.15951721 5.34569038,7.09571541 C5.40949217,7.03191362 5.48696622,7.00001252 5.5781117,7.00001252 L6.67185909,7.00001252 C6.76300457,7.00001252 6.84047862,7.03191362 6.90428041,7.09571541 C6.96808221,7.15951721 6.99998331,7.23699126 6.99998331,7.32813673 L6.99998331,8.42188413 C6.99998331,8.5130296 6.96808221,8.59050366 6.90428041,8.65430545 C6.84047862,8.71810724 6.76300457,8.75000834 6.67185909,8.75000834 L5.5781117,8.75000834 Z M8.20310544,8.75000834 C8.11195997,8.75000834 8.03448591,8.71810724 7.97068412,8.65430545 C7.90688233,8.59050366 7.87498122,8.5130296 7.87498122,8.42188413 L7.87498122,7.32813673 C7.87498122,7.23699126 7.90688233,7.15951721 7.97068412,7.09571541 C8.03448591,7.03191362 8.11195997,7.00001252 8.20310544,7.00001252 L9.29685283,7.00001252 C9.38799831,7.00001252 9.46547236,7.03191362 9.52927416,7.09571541 C9.59307595,7.15951721 9.62497705,7.23699126 9.62497705,7.32813673 L9.62497705,8.42188413 C9.62497705,8.5130296 9.59307595,8.59050366 9.52927416,8.65430545 C9.46547236,8.71810724 9.38799831,8.75000834 9.29685283,8.75000834 L8.20310544,8.75000834 Z M5.5781117,11.3750021 C5.48696622,11.3750021 5.40949217,11.343101 5.34569038,11.2792992 C5.28188859,11.2154974 5.24998748,11.1380233 5.24998748,11.0468779 L5.24998748,9.95313048 C5.24998748,9.861985 5.28188859,9.78451095 5.34569038,9.72070916 C5.40949217,9.65690736 5.48696622,9.62500626 5.5781117,9.62500626 L6.67185909,9.62500626 C6.76300457,9.62500626 6.84047862,9.65690736 6.90428041,9.72070916 C6.96808221,9.78451095 6.99998331,9.861985 6.99998331,9.95313048 L6.99998331,11.0468779 C6.99998331,11.1380233 6.96808221,11.2154974 6.90428041,11.2792992 C6.84047862,11.343101 6.76300457,11.3750021 6.67185909,11.3750021 L5.5781117,11.3750021 Z M2.95311796,11.3750021 C2.86197248,11.3750021 2.78449843,11.343101 2.72069664,11.2792992 C2.65689485,11.2154974 2.62499374,11.1380233 2.62499374,11.0468779 L2.62499374,9.95313048 C2.62499374,9.861985 2.65689485,9.78451095 2.72069664,9.72070916 C2.78449843,9.65690736 2.86197248,9.62500626 2.95311796,9.62500626 L4.04686535,9.62500626 C4.13801083,9.62500626 4.21548488,9.65690736 4.27928667,9.72070916 C4.34308846,9.78451095 4.37498957,9.861985 4.37498957,9.95313048 L4.37498957,11.0468779 C4.37498957,11.1380233 4.34308846,11.2154974 4.27928667,11.2792992 C4.21548488,11.343101 4.13801083,11.3750021 4.04686535,11.3750021 L2.95311796,11.3750021 Z M8.20310544,11.3750021 C8.11195997,11.3750021 8.03448591,11.343101 7.97068412,11.2792992 C7.90688233,11.2154974 7.87498122,11.1380233 7.87498122,11.0468779 L7.87498122,9.95313048 C7.87498122,9.861985 7.90688233,9.78451095 7.97068412,9.72070916 C8.03448591,9.65690736 8.11195997,9.62500626 8.20310544,9.62500626 L9.29685283,9.62500626 C9.38799831,9.62500626 9.46547236,9.65690736 9.52927416,9.72070916 C9.59307595,9.78451095 9.62497705,9.861985 9.62497705,9.95313048 L9.62497705,11.0468779 C9.62497705,11.1380233 9.59307595,11.2154974 9.52927416,11.2792992 C9.46547236,11.343101 9.38799831,11.3750021 9.29685283,11.3750021 L8.20310544,11.3750021 Z" id="" fill="#2B333D"></path>
                            <rect id="Rectangle" fill="#2B333D" fill-rule="nonzero" x="8" y="9" width="6" height="6" rx="3"></rect>
                            <path d="M12.8515533,10.1953204 C12.8984282,10.2005287 12.9348865,10.2213619 12.9609281,10.2578202 C12.9869696,10.2942785 12.9999905,10.3333409 12.9999905,10.3750075 C12.9999905,11.0312559 12.8359284,11.6406294 12.5078041,12.2031281 C12.1848883,12.7500018 11.7499934,13.1848966 11.2031197,13.5078125 C10.6406211,13.8359367 10.0312475,13.9999988 9.37499911,13.9999988 C9.33333258,13.9999988 9.29427017,13.986978 9.25781189,13.9609364 C9.2213536,13.9348948 9.20052039,13.8984366 9.19531203,13.8515617 L9.00781248,13.0390636 C8.99739588,12.9973971 9.00260412,12.9557304 9.02343744,12.9140639 C9.04427077,12.8723974 9.07552069,12.8437516 9.11718722,12.8281266 L9.99218513,12.4531275 C10.0286434,12.4375025 10.0664037,12.4348984 10.1054661,12.445315 C10.1445285,12.4557316 10.1796847,12.4765649 10.2109346,12.5078149 L10.5937462,12.9765637 C10.9010371,12.8359391 11.1731719,12.6458354 11.4101505,12.4062526 C11.6471291,12.1666698 11.8359307,11.8958372 11.9765554,11.5937545 L11.5078065,11.210943 C11.4765566,11.179693 11.4557233,11.1445369 11.4453067,11.1054745 C11.4348901,11.0664121 11.4374942,11.0286518 11.4531192,10.9921935 L11.8281183,10.1171956 C11.8437432,10.075529 11.872389,10.0442791 11.9140556,10.0234458 C11.9557221,10.0026125 11.9973887,9.99740422 12.0390553,10.0078208 L12.8515533,10.1953204 Z" id="" fill="#FFFFFF"></path>
                        </g>
                    </g>
                </g>
            </g>
        </g>
    </g>
</svg>