<?xml version="1.0" encoding="UTF-8"?>
<svg width="22px" height="17px" viewBox="0 0 22 17" version="1.1" xmlns="http://www.w3.org/2000/svg" xmlns:xlink="http://www.w3.org/1999/xlink">
    <!-- Generator: Sketch 52.5 (67469) - http://www.bohemiancoding.com/sketch -->
    <title>icon-external-links</title>
    <desc>Created with Sketch.</desc>
    <g id="experiment" stroke="none" stroke-width="1" fill="none" fill-rule="evenodd">
        <g id="initial-copy-6" transform="translate(-24.000000, -621.000000)" fill="#FFFFFF">
            <g id="sidebar">
                <g id="Group-3-Copy-4" transform="translate(0.000000, 600.000000)">
                    <g id="icon-external-links" transform="translate(25.000000, 22.000000)">
                        <path d="M11.5,11 L3.5,11 C2.673,11 2,10.327 2,9.5 L2,1.5 C2,0.673 2.673,0 3.5,0 L16.5,0 C17.327,0 18,0.673 18,1.5 L18,2.5 C18,2.77614237 17.7761424,3 17.5,3 C17.2238576,3 17,2.77614237 17,2.5 L17,1.5 C17,1.22385763 16.7761424,1 16.5,1 L3.5,1 C3.22385763,1 3,1.22385763 3,1.5 L3,9.5 C3,9.77614237 3.22385763,10 3.5,10 L11.5,10 C11.7761424,10 12,10.2238576 12,10.5 C12,10.7761424 11.7761424,11 11.5,11 M11.5,15 L1.5,15 C0.673,15 0,14.327 0,13.5 L0,12.5 C0,12.2238576 0.223857625,12 0.5,12 L11.5,12 C11.7761424,12 12,12.2238576 12,12.5 C12,12.7761424 11.7761424,13 11.5,13 L1,13 L1,13.5 C1,13.7761424 1.22385763,14 1.5,14 L11.5,14 C11.7761424,14 12,14.2238576 12,14.5 C12,14.7761424 11.7761424,15 11.5,15" id="Shape" stroke="#FFFFFF" stroke-width="0.4"></path>
                        <path d="M14.5,5 C14.2238576,5 14,5.22385763 14,5.5 L14,13.5 C14,13.7761424 14.2238576,14 14.5,14 L18.5,14 C18.7761424,14 19,13.7761424 19,13.5 L19,5.5 C19,5.22385763 18.7761424,5 18.5,5 L14.5,5 Z M18.5,15 L14.5,15 C13.673,15 13,14.327 13,13.5 L13,5.5 C13,4.673 13.673,4 14.5,4 L18.5,4 C19.327,4 20,4.673 20,5.5 L20,13.5 C20,14.327 19.327,15 18.5,15 Z" id="Shape" stroke="#FFFFFF" stroke-width="0.4"></path>
                        <path d="M16.5,13 C16.2981458,12.9989886 16.1166147,12.8769372 16.0395052,12.6903889 C15.9623957,12.5038407 16.0047711,12.2892378 16.147,12.146 C16.3457144,11.9722537 16.6451495,11.9824908 16.8315336,12.1694029 C17.0179178,12.3563151 17.0273078,12.6557779 16.853,12.854 C16.758869,12.946829 16.6322016,12.9992183 16.5,13" id="Path"></path>
                    </g>
                </g>
            </g>
        </g>
    </g>
</svg>