<?xml version="1.0" encoding="UTF-8"?>
<svg width="20px" height="20px" viewBox="0 0 20 20" version="1.1" xmlns="http://www.w3.org/2000/svg" xmlns:xlink="http://www.w3.org/1999/xlink">
    <!-- Generator: Sketch 52.5 (67469) - http://www.bohemiancoding.com/sketch -->
    <title>icon-alert</title>
    <desc>Created with Sketch.</desc>
    <g id="popup-/-alert-icons" stroke="none" stroke-width="1" fill="none" fill-rule="evenodd">
        <g id="Desktop-HD-Copy" transform="translate(-495.000000, -118.000000)" fill="#FFCC00">
            <g id="Group-3-Copy-2" transform="translate(480.000000, 30.000000)">
                <g id="Rectangle-Copy-2" transform="translate(0.000000, 72.000000)">
                    <g id="icon-alert" transform="translate(15.000000, 16.000000)">
                        <path d="M18.2030816,3.26565822 C18.5676639,3.39326189 18.8541219,3.61018865 19.0624546,3.91643792 C19.2707872,4.22268719 19.3749538,4.56721762 19.3749538,4.95002921 C19.3749538,7.57866897 18.8801631,9.99038197 17.8905823,12.1851682 C17.0312094,14.0226638 15.885379,15.6304725 14.4530905,17.0085942 C13.2551765,18.157029 12.0051795,18.9864543 10.7030995,19.4968695 C10.2343506,19.7010355 9.76560172,19.7010355 9.29685283,19.4968695 C7.81248137,18.909892 6.44529713,17.9656232 5.19530011,16.6640638 C3.81509527,15.2604211 2.73436848,13.6143313 1.95312034,11.7257943 C1.06770559,9.60757038 0.62499851,7.34898201 0.62499851,4.95002921 C0.62499851,4.56721762 0.729165127,4.22268719 0.937497765,3.91643792 C1.1458304,3.61018865 1.43228845,3.39326189 1.79687072,3.26565822 L9.29685283,0.203165524 C9.76560172,-0.00100046148 10.2343506,-0.00100046148 10.7030995,0.203165524 L18.2030816,3.26565822 Z M9.99997616,17.8124985 C11.276015,17.3020833 12.4609078,16.4598978 13.5546552,15.2859421 C14.7525692,14.035424 15.690067,12.58074 16.3671485,10.92189 C17.1223548,9.05887338 17.4999583,7.06825313 17.4999583,4.95002921 L9.99997616,1.88753651 L2.49999404,4.95002921 C2.49999404,7.01721178 2.8645763,8.96955087 3.59374143,10.8070465 C4.27082295,12.4914175 5.19530011,13.9588617 6.36717232,15.2093797 C7.48696151,16.4088559 8.69789613,17.2765623 9.99997616,17.8124985 Z" id="-copy"></path>
                        <path d="M11.7857049,14.0500008 C11.7857049,14.5312497 11.6108543,14.9432278 11.2611526,15.2859354 C10.9114509,15.628643 10.4910651,15.7999967 9.99999489,15.7999967 C9.50892463,15.7999967 9.08853884,15.628643 8.73883718,15.2859354 C8.38913552,14.9432278 8.21428486,14.5312497 8.21428486,14.0500008 C8.21428486,13.568752 8.38913552,13.1567739 8.73883718,12.8140663 C9.08853884,12.4713587 9.50892463,12.300005 9.99999489,12.300005 C10.4910651,12.300005 10.9114509,12.4713587 11.2611526,12.8140663 C11.6108543,13.1567739 11.7857049,13.568752 11.7857049,14.0500008 Z M8.41517724,5.14689706 C8.41517724,5.00106396 8.46726034,4.87346021 8.57142687,4.76408547 C8.6755934,4.65471073 8.80208097,4.60002337 8.95089025,4.60002337 L11.0490995,4.60002337 C11.1979088,4.60002337 11.3243964,4.65471073 11.4285629,4.76408547 C11.5327294,4.87346021 11.5848125,5.00106396 11.5848125,5.14689706 L11.2723133,11.0968829 C11.2723133,11.242716 11.2202302,11.3630282 11.1160637,11.4578195 C11.0118971,11.5526108 10.8854096,11.6000067 10.7366003,11.6000067 L9.2633895,11.6000067 C9.11458022,11.6000067 8.98809266,11.5526108 8.88392612,11.4578195 C8.77975959,11.3630282 8.7276765,11.242716 8.7276765,11.0968829 L8.41517724,5.14689706 Z" id="-copy"></path>
                    </g>
                </g>
            </g>
        </g>
    </g>
</svg>