<?xml version="1.0" encoding="UTF-8"?>
<svg width="13px" height="15px" viewBox="0 0 13 15" version="1.1" xmlns="http://www.w3.org/2000/svg" xmlns:xlink="http://www.w3.org/1999/xlink">
    <!-- Generator: Sketch 52.6 (67491) - http://www.bohemiancoding.com/sketch -->
    <title>icon-collapse</title>
    <desc>Created with Sketch.</desc>
    <g id="rough" stroke="none" stroke-width="1" fill="none" fill-rule="evenodd">
        <g id="oo-copy" transform="translate(-171.000000, -221.000000)" fill="#2B333D">
            <g id="icon-collapse" transform="translate(171.000000, 221.000000)">
                <path d="M12.0000004,14.7499996 L1.31249687,14.7499958 C0.947914546,14.7499958 0.638019173,14.6223918 0.382811587,14.3671842 C0.127604002,14.1119767 0,13.8020813 0,13.437499 L0,2.06252608 C0,1.69794375 0.127604002,1.38804838 0.382811587,1.13284079 C0.638019173,0.877633208 0.947914546,0.750029206 1.31249687,0.750029206 L12.0000004,0.750029206 C12.5522851,0.750029206 13.0000004,1.19774446 13.0000004,1.75002921 L13.0000007,13.75 C13.0000007,14.3022847 12.5522855,14.75 12.0000007,14.75 C12.0000006,14.75 12.0000005,14.75 12.0000004,14.75 Z M11.82,13.45 L11.8199451,2.05000001 C11.8199451,1.88433603 11.685664,1.75003034 11.52,1.75000001 L1.60000001,1.74807371 C1.43431458,1.74804337 1.29997542,1.88233335 1.29994508,2.04801877 C1.29994507,2.04803708 1.29994507,2.04805539 1.29994507,2.0480737 L1.29994436,13.4519513 C1.29994436,13.6176368 1.43425893,13.7519513 1.59994436,13.7519513 C1.59996291,13.7519513 1.59998146,13.7519513 1.60000001,13.7519513 L11.52,13.75 C11.6856637,13.7499693 11.8199443,13.6156637 11.8199443,13.45 Z M5.87498074,9.8468737 C5.87498074,9.93801917 5.85523247,10.0154932 5.81573619,10.079295 C5.7762399,10.1430968 5.72827985,10.1749979 5.67185655,10.1749979 L2.82811793,10.1749979 C2.77169463,10.1749979 2.72373458,10.1430968 2.6842383,10.079295 C2.64474201,10.0154932 2.62499374,9.93801917 2.62499374,9.8468737 L2.62499374,9.62812422 C2.62499374,9.53697874 2.64474201,9.45950469 2.6842383,9.3957029 C2.72373458,9.3319011 2.77169463,9.3 2.82811793,9.3 L5.67185655,9.3 C5.72827985,9.3 5.7762399,9.3319011 5.81573619,9.3957029 C5.85523247,9.45950469 5.87498074,9.53697874 5.87498074,9.62812422 L5.87498074,9.8468737 Z M5.87498074,7.8468737 C5.87498074,7.93801917 5.85523247,8.01549322 5.81573619,8.07929502 C5.7762399,8.14309681 5.72827985,8.17499791 5.67185655,8.17499791 L2.82811793,8.17499791 C2.77169463,8.17499791 2.72373458,8.14309681 2.6842383,8.07929502 C2.64474201,8.01549322 2.62499374,7.93801917 2.62499374,7.8468737 L2.62499374,7.62812422 C2.62499374,7.53697874 2.64474201,7.45950469 2.6842383,7.3957029 C2.72373458,7.3319011 2.77169463,7.3 2.82811793,7.3 L5.67185655,7.3 C5.72827985,7.3 5.7762399,7.3319011 5.81573619,7.3957029 C5.85523247,7.45950469 5.87498074,7.53697874 5.87498074,7.62812422 L5.87498074,7.8468737 Z M5.87498074,5.8468737 C5.87498074,5.93801917 5.85523247,6.01549322 5.81573619,6.07929502 C5.7762399,6.14309681 5.72827985,6.17499791 5.67185655,6.17499791 L2.82811793,6.17499791 C2.77169463,6.17499791 2.72373458,6.14309681 2.6842383,6.07929502 C2.64474201,6.01549322 2.62499374,5.93801917 2.62499374,5.8468737 L2.62499374,5.62812422 C2.62499374,5.53697874 2.64474201,5.45950469 2.6842383,5.3957029 C2.72373458,5.3319011 2.77169463,5.3 2.82811793,5.3 L5.67185655,5.3 C5.72827985,5.3 5.7762399,5.3319011 5.81573619,5.3957029 C5.85523247,5.45950469 5.87498074,5.53697874 5.87498074,5.62812422 L5.87498074,5.8468737 Z" id="undo-copy"></path>
                <path d="M10.4305805,4.36471267 L8.97745897,5.8178342 L9.49308274,6.30220805 C9.56599931,6.37512462 9.60245748,6.46366592 9.60245748,6.56783242 C9.60245748,6.67199891 9.56599931,6.76054021 9.49308274,6.83345678 C9.42016617,6.90637336 9.33162487,6.94283152 9.22745838,6.94283152 L7.47746255,6.94283152 C7.37329605,6.94283152 7.28475475,6.90637336 7.21183818,6.83345678 C7.13892161,6.76054021 7.10246344,6.67199891 7.10246344,6.56783242 L7.10246344,4.81783659 C7.10246344,4.71367009 7.13892161,4.62512879 7.21183818,4.55221222 C7.28475475,4.47929565 7.37329605,4.44283748 7.47746255,4.44283748 C7.58162905,4.44283748 7.67017034,4.47929565 7.74308691,4.55221222 L8.22746076,5.06783599 L9.68058229,3.61471446 C9.72224894,3.57304781 9.77954031,3.55221461 9.85245689,3.55221461 C9.92537346,3.55221461 9.98266483,3.57304781 10.0243315,3.61471446 L10.4305805,4.02096349 C10.4722472,4.06263014 10.4930804,4.11992151 10.4930804,4.19283808 C10.4930804,4.26575465 10.4722472,4.32304602 10.4305805,4.36471267 Z" id="Path" transform="translate(8.797772, 5.247523) rotate(-45.000000) translate(-8.797772, -5.247523) "></path>
                <path d="M7.16496329,11.0259186 L8.61808483,9.57279702 L8.10246106,9.08842317 C8.02954449,9.0155066 7.99308632,8.9269653 7.99308632,8.82279881 C7.99308632,8.71863231 8.02954449,8.63009101 8.10246106,8.55717444 C8.17537763,8.48425787 8.26391893,8.4477997 8.36808542,8.4477997 L10.1180813,8.4477997 C10.2222477,8.4477997 10.310789,8.48425787 10.3837056,8.55717444 C10.4566222,8.63009101 10.4930804,8.71863231 10.4930804,8.82279881 L10.4930804,10.5727946 C10.4930804,10.6769611 10.4566222,10.7655024 10.3837056,10.838419 C10.310789,10.9113356 10.2222477,10.9477937 10.1180813,10.9477937 C10.0139148,10.9477937 9.92537346,10.9113356 9.85245689,10.838419 L9.36808304,10.3227952 L7.9149615,11.7759168 C7.87329486,11.8175834 7.81600349,11.8384166 7.74308691,11.8384166 C7.67017034,11.8384166 7.61287897,11.8175834 7.57121232,11.7759168 L7.16496329,11.3696677 C7.12329665,11.3280011 7.10246344,11.2707097 7.10246344,11.1977931 C7.10246344,11.1248766 7.12329665,11.0675852 7.16496329,11.0259186 Z" id="Path" transform="translate(8.797772, 10.143108) rotate(-45.000000) translate(-8.797772, -10.143108) "></path>
            </g>
        </g>
    </g>
</svg>