<?xml version="1.0" encoding="UTF-8"?>
<svg width="16px" height="15px" viewBox="0 0 16 15" version="1.1" xmlns="http://www.w3.org/2000/svg" xmlns:xlink="http://www.w3.org/1999/xlink">
    <!-- Generator: Sketch 52.5 (67469) - http://www.bohemiancoding.com/sketch -->
    <title>icon-field-status</title>
    <desc>Created with Sketch.</desc>
    <g id="rough" stroke="none" stroke-width="1" fill="none" fill-rule="evenodd">
        <g id="Artboard" transform="translate(-244.000000, -56.000000)" fill="#2B333D">
            <path d="M258.874965,56.7500292 C259.111943,56.7500292 259.317021,56.8366177 259.490197,57.0097942 C259.663374,57.1829707 259.749962,57.3880484 259.749962,57.6250271 L259.749962,69.8749979 C259.749962,70.1119767 259.663374,70.3170543 259.490197,70.4902308 C259.317021,70.6634074 259.111943,70.7499958 258.874965,70.7499958 L244.874998,70.7499958 C244.638019,70.7499958 244.432942,70.6634074 244.259765,70.4902308 C244.086588,70.3170543 244,70.1119767 244,69.8749979 L244,57.6250271 C244,57.3880484 244.086588,57.1829707 244.259765,57.0097942 C244.432942,56.8366177 244.638019,56.7500292 244.874998,56.7500292 L258.874965,56.7500292 Z M258.874965,69.8749979 L258.874965,57.6250271 L244.874998,57.6250271 L244.874998,63.3125136 L248.812489,63.3125136 C248.99478,63.3125136 249.122383,63.3945446 249.1953,63.5586067 L250.042954,65.2265715 L251.464826,60.9883004 C251.519513,60.806009 251.656232,60.7148635 251.874981,60.7148635 C252.093731,60.7148635 252.230449,60.806009 252.285136,60.9883004 L253.078103,63.3125136 L256.906219,63.3125136 C256.960907,63.3125136 257.011037,63.3352998 257.056609,63.3808728 C257.102182,63.4264457 257.124969,63.4765757 257.124969,63.531263 L257.124969,63.968762 C257.124969,64.0234494 257.102182,64.0735793 257.056609,64.1191523 C257.011037,64.1647252 256.960907,64.1875115 256.906219,64.1875115 L252.749979,64.1875115 C252.658834,64.1875115 252.572245,64.1601678 252.490214,64.1054804 C252.408183,64.050793 252.358053,63.9778764 252.339824,63.8867309 L251.874981,62.5195467 L250.535141,66.5117247 C250.480453,66.6940161 250.352849,66.794276 250.152329,66.8125052 L250.124985,66.8125052 C249.942694,66.8125052 249.81509,66.7304742 249.742174,66.5664121 L248.539052,64.1875115 L244.874998,64.1875115 L244.874998,69.8749979 L258.874965,69.8749979 Z" id="icon-field-status"></path>
        </g>
    </g>
</svg>