<?xml version="1.0" encoding="UTF-8"?>
<svg width="12px" height="13px" viewBox="0 0 12 13" version="1.1" xmlns="http://www.w3.org/2000/svg" xmlns:xlink="http://www.w3.org/1999/xlink">
    <!-- Generator: Sketch 52.5 (67469) - http://www.bohemiancoding.com/sketch -->
    <title>icon-field-paragraph</title>
    <desc>Created with Sketch.</desc>
    <g id="rough" stroke="none" stroke-width="1" fill="none" fill-rule="evenodd">
        <g id="Artboard" transform="translate(-24.000000, -21.000000)" fill="#2B333D">
            <path d="M35.1562234,21.6250271 C35.3385148,21.6250271 35.493462,21.6888289 35.621066,21.8164329 C35.74867,21.9440369 35.8124718,22.0989842 35.8124718,22.2812756 L35.8124718,23.1562735 C35.8124718,23.3385648 35.74867,23.4935121 35.621066,23.6211161 C35.493462,23.7487201 35.3385148,23.8125219 35.1562234,23.8125219 L34.062476,23.8125219 L34.062476,33.2187495 C34.062476,33.4010408 33.9986742,33.5559881 33.8710702,33.6835921 C33.7434662,33.8111961 33.5885189,33.8749979 33.4062276,33.8749979 L32.5312297,33.8749979 C32.3489383,33.8749979 32.193991,33.8111961 32.066387,33.6835921 C31.938783,33.5559881 31.8749812,33.4010408 31.8749812,33.2187495 L31.8749812,23.8125219 L30.9999833,23.8125219 L30.9999833,33.2187495 C30.9999833,33.4010408 30.9361815,33.5559881 30.8085775,33.6835921 C30.6809735,33.8111961 30.5260262,33.8749979 30.3437349,33.8749979 L29.468737,33.8749979 C29.2864456,33.8749979 29.1314983,33.8111961 29.0038943,33.6835921 C28.8762903,33.5559881 28.8124885,33.4010408 28.8124885,33.2187495 L28.8124885,30.3750063 C28.0286361,30.3750063 27.2994714,30.179043 26.6249937,29.787117 C25.950516,29.395191 25.4173142,28.8619892 25.0253882,28.1875115 C24.6334622,27.5130338 24.437499,26.7793117 24.437499,25.9863448 C24.437499,25.193378 24.6380192,24.4642129 25.03906,23.7988501 C25.4401009,23.1334872 25.9778597,22.6048424 26.6523374,22.2129163 C27.3268151,21.8209903 28.0650946,21.6250271 28.8671759,21.6250271 L35.1562234,21.6250271 Z" id="icon-field-paragraph"></path>
        </g>
    </g>
</svg>