<?xml version="1.0" encoding="UTF-8"?>
<svg width="14px" height="15px" viewBox="0 0 14 15" version="1.1" xmlns="http://www.w3.org/2000/svg" xmlns:xlink="http://www.w3.org/1999/xlink">
    <!-- Generator: Sketch 52.5 (67469) - http://www.bohemiancoding.com/sketch -->
    <title>icon-field-finish</title>
    <desc>Created with Sketch.</desc>
    <g id="experiment" stroke="none" stroke-width="1" fill="none" fill-rule="evenodd">
        <g id="initial-copy-6" transform="translate(-120.000000, -374.000000)" fill="#2B333D">
            <g id="Aside-content" transform="translate(90.000000, 90.000000)">
                <g id="drags" transform="translate(20.000000, 94.000000)">
                    <g id="drag-copy-9" transform="translate(0.000000, 180.000000)">
                        <path d="M18.2851365,22.6718758 C17.2643057,23.3463535 16.1614435,23.8613261 14.9765506,24.216794 C13.7916578,24.5722619 12.5703064,24.7499958 11.3124969,24.7499958 C11.166664,24.7499958 11.0299456,24.7044229 10.9023416,24.6132774 C10.7747376,24.5221319 10.7018214,24.3945279 10.6835921,24.2304658 L10.0273437,21.3867226 C9.99088558,21.2408897 10.0091144,21.0950565 10.0820311,20.9492236 C10.1549477,20.8033908 10.2643224,20.7031305 10.4101553,20.6484431 L13.472648,19.3359462 C13.600252,19.2812589 13.732413,19.2721444 13.8691314,19.3086026 C14.0058498,19.3450607 14.1288964,19.4179773 14.2382711,19.527352 L15.5781117,21.1679731 C15.8515485,21.0403691 16.115871,20.9036507 16.3710786,20.7578178 L18.2851365,22.6718758 Z M20.8827866,20.4023499 L23.8085608,23.3281242 C23.9361648,23.4557282 23.9999666,23.6106755 23.9999666,23.7929669 C23.9999666,23.9752582 23.9361648,24.1302055 23.8085608,24.2578095 L23.5077803,24.55859 C23.3801763,24.686194 23.225229,24.7499958 23.0429377,24.7499958 C22.8606463,24.7499958 22.705699,24.686194 22.578095,24.55859 L10.1914058,12.1719008 C10.0638018,12.0442968 10,11.8893495 10,11.7070582 C10,11.5247668 10.0638018,11.3698195 10.1914058,11.2422155 L10.4921863,10.941435 C10.6197903,10.813831 10.7747376,10.7500292 10.957029,10.7500292 C11.1393203,10.7500292 11.2942676,10.813831 11.4218716,10.941435 L19.023416,18.5429794 C19.5885189,17.8685017 20.0533616,17.1302222 20.4179439,16.3281409 L18.7773228,14.9883004 C18.6679481,14.8789256 18.5950315,14.755879 18.5585733,14.6191606 C18.5221152,14.4824422 18.5312297,14.3502812 18.585917,14.2226772 L19.8984139,11.1601845 C19.9531013,11.0143516 20.0533616,10.9049769 20.1991944,10.8320603 C20.3450273,10.7591436 20.4908605,10.7409148 20.6366934,10.7773729 L23.4804366,11.4336213 C23.6444987,11.4518506 23.7721027,11.5247668 23.8632482,11.6523708 C23.9543937,11.7799748 23.9999666,11.9166932 23.9999666,12.0625261 C23.9999666,13.6302305 23.7265298,15.143248 23.1796561,16.6015778 C22.6327824,17.9869913 21.8671592,19.2539152 20.8827866,20.4023499 Z" id="icon-field-finish"></path>
                    </g>
                </g>
            </g>
        </g>
    </g>
</svg>