<?xml version="1.0" encoding="UTF-8"?>
<svg width="20px" height="18px" viewBox="0 0 20 18" version="1.1" xmlns="http://www.w3.org/2000/svg" xmlns:xlink="http://www.w3.org/1999/xlink">
    <!-- Generator: Sketch 52.5 (67469) - http://www.bohemiancoding.com/sketch -->
    <title>icon-feedbacks</title>
    <desc>Created with Sketch.</desc>
    <g id="rough" stroke="none" stroke-width="1" fill="none" fill-rule="evenodd">
        <g id="oo-copy" transform="translate(-335.000000, -80.000000)" fill="#FFFFFF">
            <g id="icon-feedbacks" transform="translate(335.000000, 80.000000)">
                <path d="M4.58332031,4.91488085 L13.75,4.91488085 C13.9803125,4.91488085 14.1666797,4.7321617 14.1666797,4.50635745 C14.1666797,4.28055319 13.9803125,4.09783404 13.75,4.09783404 L4.58332031,4.09783404 C4.35300781,4.09783404 4.16664063,4.28055319 4.16664063,4.50635745 C4.16667969,4.7322 4.35304688,4.91488085 4.58332031,4.91488085 Z" id="Path"></path>
                <path d="M9.58332031,9 L4.58332031,9 C4.35300781,9 4.16664063,9.18271915 4.16664063,9.4085234 C4.16664063,9.63432766 4.35300781,9.81704681 4.58332031,9.81704681 L9.58332031,9.81704681 C9.81363281,9.81704681 10,9.63432766 10,9.4085234 C10,9.18271915 9.81363281,9 9.58332031,9 Z" id="Path"></path>
                <path d="M18.4049609,1.64680851 C18.3808203,1.64680851 18.3574219,1.65274468 18.3333594,1.65385532 L18.3333594,1.64680851 C18.3333594,0.745621277 17.5854687,0.0127531915 16.6666797,0.0127531915 L1.66667969,0.0127531915 C0.747890625,0.0127531915 0,0.745621277 0,1.64680851 L0,17.5787234 C0,17.7439021 0.10171875,17.8930723 0.257148437,17.9561106 C0.3084375,17.9772511 0.362929688,17.9872468 0.416640625,17.9872468 C0.524882813,17.9872468 0.631484375,17.9457702 0.71125,17.867566 L4.75585938,13.9021277 L16.6666797,13.9021277 C17.5854687,13.9021277 18.3333594,13.1692979 18.3333594,12.2680723 L18.3333594,5.49233617 L19.5328906,4.3164766 C19.8299219,4.0248766 20,3.62194468 20,3.21062553 C20,2.34815745 19.2846875,1.64680851 18.4049609,1.64680851 Z M17.3,12.2680723 C17.3,12.7184553 17.1264453,12.96 16.6666797,12.96 L4.58332031,12.96 C4.47265625,12.96 4.278125,13.0534043 4.2,13.13 L1.1734402,16.4048826 C1.13595581,16.4454425 1.07268842,16.4479357 1.03212852,16.4104513 C1.01164662,16.3915225 1,16.3649003 1,16.3370111 L1,1.64680851 C1,1.19642553 1.206875,1 1.66664063,1 L16.6666406,1 C17.1264844,1 17.3,1.19642553 17.3,1.64680851 C17.3,1.78285341 17.3,1.8771464 17.3,1.9296875 C17.3,1.99042822 17.2682031,2.03779149 17.2,2.10477447 L12.7434375,6.54893617 L4.58332031,6.54893617 C4.35300781,6.54893617 4.16664063,6.73165532 4.16664063,6.95745957 C4.16664063,7.18326383 4.35300781,7.36598298 4.58332031,7.36598298 L12.0749219,7.36598298 L11.6748047,9.32836596 C11.6471484,9.46240851 11.6902734,9.60085532 11.78875,9.69736596 C11.8676953,9.77476596 11.9742969,9.81704681 12.0833594,9.81704681 C12.1102344,9.81704681 12.1378906,9.81425106 12.1647266,9.80908085 L14.2472656,9.40055745 C14.3286328,9.38458723 14.4026953,9.34590638 14.4604688,9.28884255 L17.5,6.30926809 L17.3,12.2680723 Z M13.9607813,8.6238 L12.6147656,8.88790213 L12.8841406,7.56662553 L16.6664844,3.85831915 L17.7441016,4.91484255 L13.9607813,8.6238 Z M18.9436719,3.73882979 L18.3333203,4.33723404 L17.255625,3.28063404 L17.8661719,2.6820383 C18.0077734,2.54359149 18.2039063,2.46381702 18.4049219,2.46381702 C18.8248437,2.46381702 19.1666406,2.7989234 19.1666406,3.21062553 C19.1666797,3.40690213 19.0852734,3.59961702 18.9436719,3.73882979 Z" id="Shape" fill-rule="nonzero"></path>
            </g>
        </g>
    </g>
</svg>