<?xml version="1.0" encoding="UTF-8"?>
<svg width="16px" height="20px" viewBox="0 0 16 20" version="1.1" xmlns="http://www.w3.org/2000/svg" xmlns:xlink="http://www.w3.org/1999/xlink">
    <!-- Generator: Sketch 52.5 (67469) - http://www.bohemiancoding.com/sketch -->
    <title>icon-scenarios</title>
    <desc>Created with Sketch.</desc>
    <g id="rough" stroke="none" stroke-width="1" fill="none" fill-rule="evenodd">
        <g id="oo" transform="translate(-283.000000, -330.000000)">
            <g id="icon-scenarios" transform="translate(283.000000, 330.000000)">
                <rect id="Rectangle-4" stroke="#FFFFFF" stroke-width="1.5" x="0.75" y="0.75" width="14.5" height="18.5" rx="2"></rect>
                <path d="M3.5,4.5 L12.5,4.5" id="Line" stroke="#FFFFFF" stroke-linecap="round" stroke-linejoin="round"></path>
                <path d="M3.5,8 L12.5,8" id="Line-Copy" stroke="#FFFFFF" stroke-linecap="round" stroke-linejoin="round"></path>
                <g id="Group-5" transform="translate(2.000000, 10.000000)" fill="#FFFFFF">
                    <path d="M1.49707602,4.36647173 C0.946643275,4.36647173 0.499017544,4.80166342 0.499017544,5.33680637 C0.499017544,5.87194932 0.946643275,6.307141 1.49707602,6.307141 C2.04750877,6.307141 2.4951345,5.87194932 2.4951345,5.33680637 C2.4951345,4.80166342 2.04750877,4.36647173 1.49707602,4.36647173 Z M1.49707602,5.82196231 C1.22161404,5.82196231 0.99805848,5.60411631 0.99805848,5.33680637 C0.99805848,5.06947368 1.22161404,4.85165042 1.49707602,4.85165042 C1.77253801,4.85165042 1.99609357,5.06949643 1.99609357,5.33680637 C1.99609357,5.60411631 1.77253801,5.82196231 1.49707602,5.82196231 Z" id="Shape" fill-rule="nonzero"></path>
                    <path d="M4.49122807,1.94064652 C3.94079532,1.94064652 3.49316959,2.37583821 3.49316959,2.91098116 C3.49316959,3.44612411 3.94079532,3.88131579 4.49122807,3.88131579 C5.04166082,3.88131579 5.48928655,3.44612411 5.48928655,2.91098116 C5.48928655,2.37583821 5.04166082,1.94064652 4.49122807,1.94064652 Z M4.49122807,3.3961371 C4.21576608,3.3961371 3.99221053,3.1782911 3.99221053,2.91098116 C3.99221053,2.64364847 4.21576608,2.42582521 4.49122807,2.42582521 C4.76669006,2.42582521 4.99024561,2.64367122 4.99024561,2.91098116 C4.99024561,3.17831384 4.76669006,3.3961371 4.49122807,3.3961371 Z" id="Shape" fill-rule="nonzero"></path>
                    <path d="M7.48538012,2.91098116 C6.93494737,2.91098116 6.48732164,3.34617284 6.48732164,3.88131579 C6.48732164,4.41645874 6.93494737,4.85165042 7.48538012,4.85165042 C8.03581287,4.85165042 8.4834386,4.41645874 8.4834386,3.88131579 C8.4834386,3.34617284 8.03581287,2.91098116 7.48538012,2.91098116 Z M7.48538012,4.36647173 C7.20991813,4.36647173 6.98636257,4.14862573 6.98636257,3.88131579 C6.98636257,3.61398311 7.20991813,3.39615984 7.48538012,3.39615984 C7.76084211,3.39615984 7.98439766,3.61400585 7.98439766,3.88131579 C7.98439766,4.14862573 7.76084211,4.36647173 7.48538012,4.36647173 Z" id="Shape" fill-rule="nonzero"></path>
                    <path d="M10.4795322,-1.82076576e-14 C9.92909942,-1.82076576e-14 9.48147368,0.435191683 9.48147368,0.970334633 C9.48147368,1.50547758 9.92909942,1.94066927 10.4795322,1.94066927 C11.0299649,1.94066927 11.4775906,1.50547758 11.4775906,0.970334633 C11.4775906,0.435191683 11.0299649,-1.82076576e-14 10.4795322,-1.82076576e-14 Z M10.4795322,1.45549058 C10.2040702,1.45549058 9.98051462,1.23764457 9.98051462,0.970334633 C9.98051462,0.703001949 10.2040702,0.485178687 10.4795322,0.485178687 C10.7549942,0.485178687 10.9785497,0.703024691 10.9785497,0.970334633 C10.9785497,1.23764457 10.7549942,1.45549058 10.4795322,1.45549058 Z" id="Shape" fill-rule="nonzero"></path>
                    <path d="M10.1272281,1.3128525 C10.0299181,1.21824561 9.8717193,1.21824561 9.77440936,1.3128525 L7.83819883,3.1952794 C7.74088889,3.28988629 7.74088889,3.44369071 7.83819883,3.5382976 C7.88711111,3.58535088 7.95097076,3.60913905 8.0148538,3.60913905 C8.07822222,3.60913905 8.14210526,3.5858512 8.19101754,3.5382976 L10.1272281,1.6558707 C10.224538,1.56126381 10.224538,1.40745939 10.1272281,1.3128525 Z" id="Path"></path>
                    <path d="M6.88205848,3.3214295 L5.27918129,2.87702729 C5.14493567,2.83918454 5.00870175,2.91487005 4.97127485,3.04393112 C4.93335673,3.1729922 5.01019883,3.30689734 5.14243275,3.34376218 L6.74530994,3.78816439 C6.76825731,3.79446394 6.79122807,3.79737492 6.81368421,3.79737492 C6.92247953,3.79737492 7.02226901,3.72798895 7.0537076,3.62126056 C7.09164912,3.49269981 7.01480702,3.35829435 6.88205848,3.3214295 Z" id="Path"></path>
                    <path d="M4.1019883,3.21324561 C4.01616374,3.10845029 3.85946199,3.09146199 3.75167251,3.17442495 L1.87033918,4.63282651 C1.76254971,4.71676738 1.7445848,4.86909357 1.83092398,4.97388889 C1.88032749,5.03404159 1.95319298,5.06510721 2.02603509,5.06510721 C2.08042105,5.06510721 2.13532164,5.04764133 2.18123977,5.01270955 L4.0625731,3.55430799 C4.17036257,3.47036712 4.18832749,3.31804094 4.1019883,3.21324561 Z" id="Path"></path>
                </g>
            </g>
        </g>
    </g>
</svg>