<?xml version="1.0" encoding="UTF-8"?>
<svg width="13px" height="13px" viewBox="0 0 13 13" version="1.1" xmlns="http://www.w3.org/2000/svg" xmlns:xlink="http://www.w3.org/1999/xlink">
    <!-- Generator: Sketch 52.5 (67469) - http://www.bohemiancoding.com/sketch -->
    <title>icon-field-single</title>
    <desc>Created with Sketch.</desc>
    <g id="experiment" stroke="none" stroke-width="1" fill="none" fill-rule="evenodd">
        <g id="initial-copy-6" transform="translate(-281.000000, -375.000000)" fill="#2B333D">
            <g id="Aside-content" transform="translate(90.000000, 90.000000)">
                <g id="drags" transform="translate(20.000000, 94.000000)">
                    <g id="drag-copy-10" transform="translate(161.000000, 180.000000)">
                        <path d="M10,11.9531513 C10,11.8620059 10.0319011,11.7845318 10.0957029,11.72073 C10.1595047,11.6569282 10.2369787,11.6250271 10.3281242,11.6250271 L21.9218466,11.6250271 C22.0129921,11.6250271 22.0904661,11.6569282 22.1542679,11.72073 C22.2180697,11.7845318 22.2499708,11.8620059 22.2499708,11.9531513 L22.2499708,14.5508014 C22.2499708,14.6419469 22.2180697,14.7194209 22.1542679,14.7832227 C22.0904661,14.8470245 22.0129921,14.8789256 21.9218466,14.8789256 L21.1835671,14.8789256 C21.0924216,14.8789256 21.0149476,14.8470245 20.9511458,14.7832227 C20.887344,14.7194209 20.8554429,14.6419469 20.8554429,14.5508014 L20.8554429,12.937524 L16.8632649,12.937524 L16.8632649,18.1875115 L18.2031054,18.1875115 C18.2942509,18.1875115 18.371725,18.2194126 18.4355268,18.2832144 C18.4993286,18.3470162 18.5312297,18.4244902 18.5312297,18.5156357 L18.5312297,19.1718841 C18.5312297,19.2630296 18.4993286,19.3405037 18.4355268,19.4043054 C18.371725,19.4681072 18.2942509,19.5000083 18.2031054,19.5000083 L14.0468654,19.5000083 C13.9557199,19.5000083 13.8782458,19.4681072 13.814444,19.4043054 C13.7506422,19.3405037 13.7187411,19.2630296 13.7187411,19.1718841 L13.7187411,18.5156357 C13.7187411,18.4244902 13.7506422,18.3470162 13.814444,18.2832144 C13.8782458,18.2194126 13.9557199,18.1875115 14.0468654,18.1875115 L15.3867059,18.1875115 L15.3867059,12.937524 L11.3671842,12.937524 L11.3671842,14.5508014 C11.3671842,14.6419469 11.3352831,14.7194209 11.2714813,14.7832227 C11.2076796,14.8470245 11.1302055,14.8789256 11.03906,14.8789256 L10.3281242,14.8789256 C10.2369787,14.8789256 10.1595047,14.8470245 10.0957029,14.7832227 C10.0319011,14.7194209 10,14.6419469 10,14.5508014 L10,11.9531513 Z M22.1405961,21.44141 C22.2135127,21.5143266 22.2499708,21.5963577 22.2499708,21.6875031 C22.2499708,21.7786486 22.2135127,21.8606797 22.1405961,21.9335963 L20.1718507,23.7929669 C20.0807053,23.8841123 19.9667731,23.9023416 19.8300547,23.8476542 C19.6933363,23.7929669 19.6249771,23.6927065 19.6249771,23.5468737 L19.6249771,22.3437516 L12.6249937,22.3437516 L12.6249937,23.5468737 C12.6249937,23.6927065 12.5566345,23.7929669 12.4199161,23.8476542 C12.2831977,23.9023416 12.1692655,23.8841123 12.07812,23.7929669 L10.1093747,21.9335963 C10.0364581,21.8606797 10,21.7786486 10,21.6875031 C10,21.5963577 10.0364581,21.5143266 10.1093747,21.44141 L12.07812,19.5820394 C12.1692655,19.4908939 12.2831977,19.4726647 12.4199161,19.527352 C12.5566345,19.5820394 12.6249937,19.6822997 12.6249937,19.8281326 L12.6249937,21.0312547 L19.6249771,21.0312547 L19.6249771,19.8281326 C19.6249771,19.6822997 19.6933363,19.5820394 19.8300547,19.527352 C19.9667731,19.4726647 20.0807053,19.4908939 20.1718507,19.5820394 L22.1405961,21.44141 Z" id="icon-field-single"></path>
                    </g>
                </g>
            </g>
        </g>
    </g>
</svg>