<?xml version="1.0" encoding="UTF-8"?>
<svg width="20px" height="20px" viewBox="0 0 20 20" version="1.1" xmlns="http://www.w3.org/2000/svg" xmlns:xlink="http://www.w3.org/1999/xlink">
    <!-- Generator: Sketch 52.5 (67469) - http://www.bohemiancoding.com/sketch -->
    <title>Group 2</title>
    <desc>Created with Sketch.</desc>
    <g id="popup-/-alert-icons" stroke="none" stroke-width="1" fill="none" fill-rule="evenodd">
        <g id="Desktop-HD-Copy" transform="translate(-495.000000, -262.000000)" fill="#FF1133">
            <g id="Group-3-Copy-2" transform="translate(480.000000, 30.000000)">
                <g id="Rectangle-Copy-4" transform="translate(0.000000, 216.000000)">
                    <g id="Group-2" transform="translate(15.000000, 15.000000)">
                        <path d="M18.2030816,4.26565822 C18.5676639,4.39326189 18.8541219,4.61018865 19.0624546,4.91643792 C19.2707872,5.22268719 19.3749538,5.56721762 19.3749538,5.95002921 C19.3749538,8.57866897 18.8801631,10.990382 17.8905823,13.1851682 C17.0312094,15.0226638 15.885379,16.6304725 14.4530905,18.0085942 C13.2551765,19.157029 12.0051795,19.9864543 10.7030995,20.4968695 C10.2343506,20.7010355 9.76560172,20.7010355 9.29685283,20.4968695 C7.81248137,19.909892 6.44529713,18.9656232 5.19530011,17.6640638 C3.81509527,16.2604211 2.73436848,14.6143313 1.95312034,12.7257943 C1.06770559,10.6075704 0.62499851,8.34898201 0.62499851,5.95002921 C0.62499851,5.56721762 0.729165127,5.22268719 0.937497765,4.91643792 C1.1458304,4.61018865 1.43228845,4.39326189 1.79687072,4.26565822 L9.29685283,1.20316552 C9.76560172,0.998999539 10.2343506,0.998999539 10.7030995,1.20316552 L18.2030816,4.26565822 Z M9.99997616,18.8124985 C11.276015,18.3020833 12.4609078,17.4598978 13.5546552,16.2859421 C14.7525692,15.035424 15.690067,13.58074 16.3671485,11.92189 C17.1223548,10.0588734 17.4999583,8.06825313 17.4999583,5.95002921 L9.99997616,2.88753651 L2.49999404,5.95002921 C2.49999404,8.01721178 2.8645763,9.96955087 3.59374143,11.8070465 C4.27082295,13.4914175 5.19530011,14.9588617 6.36717232,16.2093797 C7.48696151,17.4088559 8.69789613,18.2765623 9.99997616,18.8124985 Z" id="-copy-4"></path>
                        <path d="M11.0714175,11.20001 L13.4598047,13.5625044 C13.5342091,13.6208377 13.5714115,13.7010456 13.5714115,13.8031288 C13.5714115,13.905212 13.5342091,13.9854199 13.4598047,14.0437532 L12.9017703,14.5906269 C12.8422465,14.6635433 12.7604017,14.7000017 12.6562352,14.7000017 C12.5520686,14.7000017 12.4702238,14.6635433 12.4107,14.5906269 L9.99999149,12.2500075 L7.58928295,14.5906269 C7.52975917,14.6635433 7.44791435,14.7000017 7.34374782,14.7000017 C7.23958129,14.7000017 7.15773647,14.6635433 7.09821269,14.5906269 L6.54017831,14.0437532 C6.46577383,13.9854199 6.42857143,13.905212 6.42857143,13.8031288 C6.42857143,13.7010456 6.46577383,13.6208377 6.54017831,13.5625044 L8.92856547,11.20001 L6.54017831,8.83751565 C6.46577383,8.77918234 6.42857143,8.69897442 6.42857143,8.59689122 C6.42857143,8.49480802 6.46577383,8.4146001 6.54017831,8.35626679 L7.09821269,7.8093931 C7.15773647,7.73647672 7.23958129,7.70001836 7.34374782,7.70001836 C7.44791435,7.70001836 7.52975917,7.73647672 7.58928295,7.8093931 L9.99999149,10.1500125 L12.4107,7.8093931 C12.4702238,7.73647672 12.5520686,7.70001836 12.6562352,7.70001836 C12.7604017,7.70001836 12.8422465,7.73647672 12.9017703,7.8093931 L13.4598047,8.35626679 C13.5342091,8.4146001 13.5714115,8.49480802 13.5714115,8.59689122 C13.5714115,8.69897442 13.5342091,8.77918234 13.4598047,8.83751565 L11.0714175,11.20001 Z" id=""></path>
                    </g>
                </g>
            </g>
        </g>
    </g>
</svg>