<?xml version="1.0" encoding="UTF-8"?>
<svg width="14px" height="15px" viewBox="0 0 14 15" version="1.1" xmlns="http://www.w3.org/2000/svg" xmlns:xlink="http://www.w3.org/1999/xlink">
    <!-- Generator: Sketch 52.5 (67469) - http://www.bohemiancoding.com/sketch -->
    <title>icon-field-email</title>
    <desc>Created with Sketch.</desc>
    <g id="experiment" stroke="none" stroke-width="1" fill="none" fill-rule="evenodd">
        <g id="initial-copy-6" transform="translate(-120.000000, -239.000000)" fill="#2B333D">
            <g id="Aside-content" transform="translate(90.000000, 90.000000)">
                <g id="drags" transform="translate(20.000000, 94.000000)">
                    <g id="drag-copy-2" transform="translate(0.000000, 45.000000)">
                        <path d="M23.7812171,17.0937641 C23.7812171,18.278657 23.4257492,19.2356859 22.7148134,19.964851 C21.9674195,20.7304742 20.9374739,21.1132857 19.6249771,21.1132857 C19.15102,21.1132857 18.7955521,21.049484 18.5585733,20.92188 C18.2486784,20.7578178 18.066387,20.4752666 18.0116996,20.0742257 C17.7564921,20.4205792 17.4283678,20.7031305 17.027327,20.92188 C16.6262861,21.1406294 16.2252457,21.2500042 15.8242049,21.2500042 C15.0221236,21.2500042 14.3977758,20.9947966 13.9511625,20.484381 C13.5045491,19.9739654 13.2812422,19.2994881 13.2812422,18.4609483 C13.2812422,17.658867 13.4498617,16.9388164 13.7871003,16.3007972 C14.124339,15.662778 14.5755098,15.1660343 15.1406127,14.8105664 C15.7057157,14.4550985 16.3163912,14.2773645 16.9726396,14.2773645 C17.3736805,14.2773645 17.7291484,14.3502812 18.0390433,14.496114 C18.3489383,14.6419469 18.585917,14.8515819 18.7499791,15.1250188 L18.8046665,14.7422072 C18.8228958,14.6510617 18.8639113,14.5827025 18.9277131,14.5371296 C18.9915149,14.4915566 19.0598741,14.4687703 19.1327907,14.4687703 L20.1991944,14.4687703 C20.3085692,14.4687703 20.3951576,14.5097859 20.4589594,14.5918169 C20.5227612,14.673848 20.5455479,14.7604365 20.5273187,14.8515819 L19.7616955,18.925791 C19.6887788,19.2174571 19.6796644,19.4316491 19.7343518,19.5683676 C19.7890392,19.705086 19.9439868,19.7734452 20.1991944,19.7734452 C20.8007555,19.7734452 21.3202855,19.5455813 21.7577845,19.0898531 C22.2317415,18.5794375 22.4687203,17.9140746 22.4687203,17.0937641 C22.4687203,16.1093914 22.2135127,15.2435079 21.7030971,14.496114 C21.2473689,13.7851782 20.6002353,13.2383045 19.7616955,12.8554929 C18.9231557,12.4726813 18.0071422,12.2812756 17.0136552,12.2812756 C16.0201681,12.2812756 15.1041546,12.5273687 14.2656148,13.019555 C13.427075,13.5117414 12.7617122,14.1771042 12.2695258,15.015644 C11.7773395,15.8541838 11.5312463,16.7656399 11.5312463,17.7500125 C11.5312463,18.7343852 11.7773395,19.6458412 12.2695258,20.484381 C12.7617122,21.3229208 13.427075,21.9882837 14.2656148,22.48047 C15.1041546,22.9726563 16.0156107,23.2187495 16.9999833,23.2187495 C18.1848762,23.2187495 19.2603947,22.872396 20.2265381,22.1796895 C20.2812255,22.1250021 20.3541421,22.1022158 20.4452876,22.1113302 C20.5364331,22.1204447 20.6093497,22.1614602 20.6640371,22.2343768 L21.0741923,22.7265632 C21.1288797,22.7994798 21.151666,22.8860678 21.1425516,22.9863282 C21.1334371,23.0865885 21.0924216,23.1640621 21.019505,23.2187495 C20.4361732,23.6380192 19.802711,23.9615864 19.1191189,24.1894503 C18.4355268,24.4173142 17.7291484,24.5312463 16.9999833,24.5312463 C15.7786319,24.5312463 14.6484264,24.2259084 13.6093664,23.6152329 C12.5703064,23.0045574 11.7454384,22.1796895 11.1347629,21.1406294 C10.5240874,20.1015694 10.2187495,18.9713639 10.2187495,17.7500125 C10.2187495,16.5286611 10.5240874,15.3984556 11.1347629,14.3593956 C11.7454384,13.3203356 12.5703064,12.4954676 13.6093664,11.8847921 C14.6484264,11.2741166 15.7877468,10.9687787 17.027327,10.9687787 C18.2669072,10.9687787 19.4016702,11.2239863 20.4316158,11.7344019 C21.4615614,12.2448174 22.2682001,12.9466384 22.8515319,13.8398656 C23.4713222,14.7877801 23.7812171,15.8724127 23.7812171,17.0937641 Z M16.2890475,19.7461015 C16.8359212,19.7461015 17.3144357,19.4863365 17.724591,18.9668065 C18.1347462,18.4472765 18.3398239,17.8502728 18.3398239,17.1757951 C18.3398239,16.7565254 18.2304491,16.4192864 18.0116996,16.1640788 C17.7929502,15.9088712 17.4830552,15.7812672 17.0820144,15.7812672 C16.7538901,15.7812672 16.4348804,15.8860845 16.1249854,16.0957196 C15.8150904,16.3053546 15.5598824,16.6015778 15.3593622,16.9843893 C15.158842,17.3854302 15.0585817,17.8320436 15.0585817,18.3242299 C15.0585817,18.7799581 15.1679564,19.1308686 15.3867059,19.3769618 C15.6054554,19.6230549 15.9062359,19.7461015 16.2890475,19.7461015 Z" id="icon-field-email"></path>
                    </g>
                </g>
            </g>
        </g>
    </g>
</svg>