<?xml version="1.0" encoding="UTF-8"?>
<svg width="7px" height="5px" viewBox="0 0 7 5" version="1.1" xmlns="http://www.w3.org/2000/svg" xmlns:xlink="http://www.w3.org/1999/xlink">
    <!-- Generator: Sketch 52.5 (67469) - http://www.bohemiancoding.com/sketch -->
    <title>icon-dropdown.open</title>
    <desc>Created with Sketch.</desc>
    <g id="rough" stroke="none" stroke-width="1" fill="none" fill-rule="evenodd">
        <g id="oo-copy" transform="translate(-234.000000, -81.000000)" fill="#2B333D">
            <path d="M237.20624,85.1290585 L234.084375,81.8832211 C234.028125,81.8243396 234,81.7617782 234,81.6955366 C234,81.629295 234.021094,81.5667336 234.063281,81.5078521 L234.485155,81.0662416 C234.541405,81.0220805 234.604686,81 234.674998,81 C234.74531,81 234.80156,81.0220805 234.843747,81.0662416 L237.37499,83.6938243 L239.906232,81.0662416 C239.948419,81.0220805 240.004669,81 240.074981,81 C240.145293,81 240.208574,81.0220805 240.264824,81.0662416 L240.686698,81.5078521 C240.728885,81.5667336 240.749979,81.629295 240.749979,81.6955366 C240.749979,81.7617782 240.728885,81.8243396 240.686698,81.8832211 L237.564833,85.1290585 C237.508583,85.1732196 237.445302,85.1953001 237.37499,85.1953001 C237.304677,85.1953001 237.241396,85.1732196 237.185146,85.1290585 L237.20624,85.1290585 Z" id="icon-dropdown.open" transform="translate(237.374990, 83.097650) rotate(180.000000) translate(-237.374990, -83.097650) "></path>
        </g>
    </g>
</svg>