<?xml version="1.0" encoding="UTF-8"?>
<svg width="13px" height="15px" viewBox="0 0 13 15" version="1.1" xmlns="http://www.w3.org/2000/svg" xmlns:xlink="http://www.w3.org/1999/xlink">
    <!-- Generator: Sketch 52.5 (67469) - http://www.bohemiancoding.com/sketch -->
    <title>icon-field-date</title>
    <desc>Created with Sketch.</desc>
    <g id="experiment" stroke="none" stroke-width="1" fill="none" fill-rule="evenodd">
        <g id="initial-copy-6" transform="translate(-120.000000, -419.000000)" fill="#2B333D">
            <g id="Aside-content" transform="translate(90.000000, 90.000000)">
                <g id="drags" transform="translate(20.000000, 94.000000)">
                    <g id="drag-copy-11" transform="translate(0.000000, 225.000000)">
                        <path d="M20.9374739,12.500025 C21.3020562,12.500025 21.6119516,12.627629 21.8671592,12.8828366 C22.1223668,13.1380442 22.2499708,13.4479396 22.2499708,13.8125219 L22.2499708,23.437499 C22.2499708,23.8020813 22.1223668,24.1119767 21.8671592,24.3671842 C21.6119516,24.6223918 21.3020562,24.7499958 20.9374739,24.7499958 L11.3124969,24.7499958 C10.9479145,24.7499958 10.6380192,24.6223918 10.3828116,24.3671842 C10.127604,24.1119767 10,23.8020813 10,23.437499 L10,13.8125219 C10,13.4479396 10.127604,13.1380442 10.3828116,12.8828366 C10.6380192,12.627629 10.9479145,12.500025 11.3124969,12.500025 L12.6249937,12.500025 L12.6249937,11.0781534 C12.6249937,10.9870079 12.6568948,10.9095339 12.7206966,10.8457321 C12.7844984,10.7819303 12.8619725,10.7500292 12.953118,10.7500292 L13.1718674,10.7500292 C13.2630129,10.7500292 13.340487,10.7819303 13.4042888,10.8457321 C13.4680906,10.9095339 13.4999917,10.9870079 13.4999917,11.0781534 L13.4999917,12.500025 L18.7499791,12.500025 L18.7499791,11.0781534 C18.7499791,10.9870079 18.7818802,10.9095339 18.845682,10.8457321 C18.9094838,10.7819303 18.9869579,10.7500292 19.0781034,10.7500292 L19.2968528,10.7500292 C19.3879983,10.7500292 19.4654724,10.7819303 19.5292742,10.8457321 C19.5930759,10.9095339 19.6249771,10.9870079 19.6249771,11.0781534 L19.6249771,12.500025 L20.9374739,12.500025 Z M11.3124969,13.3750229 C11.1848929,13.3750229 11.0800755,13.4160385 10.9980445,13.4980695 C10.9160134,13.5801006 10.8749979,13.6849179 10.8749979,13.8125219 L10.8749979,15.1250188 L21.3749729,15.1250188 L21.3749729,13.8125219 C21.3749729,13.6849179 21.3339574,13.5801006 21.2519263,13.4980695 C21.1698952,13.4160385 21.0650779,13.3750229 20.9374739,13.3750229 L11.3124969,13.3750229 Z M20.9374739,23.8749979 C21.0650779,23.8749979 21.1698952,23.8339824 21.2519263,23.7519513 C21.3339574,23.6699203 21.3749729,23.565103 21.3749729,23.437499 L21.3749729,16.0000167 L10.8749979,16.0000167 L10.8749979,23.437499 C10.8749979,23.565103 10.9160134,23.6699203 10.9980445,23.7519513 C11.0800755,23.8339824 11.1848929,23.8749979 11.3124969,23.8749979 L20.9374739,23.8749979 Z M12.953118,19.5000083 C12.8619725,19.5000083 12.7844984,19.4681072 12.7206966,19.4043054 C12.6568948,19.3405037 12.6249937,19.2630296 12.6249937,19.1718841 L12.6249937,18.0781367 C12.6249937,17.9869913 12.6568948,17.9095172 12.7206966,17.8457154 C12.7844984,17.7819136 12.8619725,17.7500125 12.953118,17.7500125 L14.0468654,17.7500125 C14.1380108,17.7500125 14.2154849,17.7819136 14.2792867,17.8457154 C14.3430885,17.9095172 14.3749896,17.9869913 14.3749896,18.0781367 L14.3749896,19.1718841 C14.3749896,19.2630296 14.3430885,19.3405037 14.2792867,19.4043054 C14.2154849,19.4681072 14.1380108,19.5000083 14.0468654,19.5000083 L12.953118,19.5000083 Z M15.5781117,19.5000083 C15.4869662,19.5000083 15.4094922,19.4681072 15.3456904,19.4043054 C15.2818886,19.3405037 15.2499875,19.2630296 15.2499875,19.1718841 L15.2499875,18.0781367 C15.2499875,17.9869913 15.2818886,17.9095172 15.3456904,17.8457154 C15.4094922,17.7819136 15.4869662,17.7500125 15.5781117,17.7500125 L16.6718591,17.7500125 C16.7630046,17.7500125 16.8404786,17.7819136 16.9042804,17.8457154 C16.9680822,17.9095172 16.9999833,17.9869913 16.9999833,18.0781367 L16.9999833,19.1718841 C16.9999833,19.2630296 16.9680822,19.3405037 16.9042804,19.4043054 C16.8404786,19.4681072 16.7630046,19.5000083 16.6718591,19.5000083 L15.5781117,19.5000083 Z M18.2031054,19.5000083 C18.11196,19.5000083 18.0344859,19.4681072 17.9706841,19.4043054 C17.9068823,19.3405037 17.8749812,19.2630296 17.8749812,19.1718841 L17.8749812,18.0781367 C17.8749812,17.9869913 17.9068823,17.9095172 17.9706841,17.8457154 C18.0344859,17.7819136 18.11196,17.7500125 18.2031054,17.7500125 L19.2968528,17.7500125 C19.3879983,17.7500125 19.4654724,17.7819136 19.5292742,17.8457154 C19.5930759,17.9095172 19.6249771,17.9869913 19.6249771,18.0781367 L19.6249771,19.1718841 C19.6249771,19.2630296 19.5930759,19.3405037 19.5292742,19.4043054 C19.4654724,19.4681072 19.3879983,19.5000083 19.2968528,19.5000083 L18.2031054,19.5000083 Z M15.5781117,22.1250021 C15.4869662,22.1250021 15.4094922,22.093101 15.3456904,22.0292992 C15.2818886,21.9654974 15.2499875,21.8880233 15.2499875,21.7968779 L15.2499875,20.7031305 C15.2499875,20.611985 15.2818886,20.5345109 15.3456904,20.4707092 C15.4094922,20.4069074 15.4869662,20.3750063 15.5781117,20.3750063 L16.6718591,20.3750063 C16.7630046,20.3750063 16.8404786,20.4069074 16.9042804,20.4707092 C16.9680822,20.5345109 16.9999833,20.611985 16.9999833,20.7031305 L16.9999833,21.7968779 C16.9999833,21.8880233 16.9680822,21.9654974 16.9042804,22.0292992 C16.8404786,22.093101 16.7630046,22.1250021 16.6718591,22.1250021 L15.5781117,22.1250021 Z M12.953118,22.1250021 C12.8619725,22.1250021 12.7844984,22.093101 12.7206966,22.0292992 C12.6568948,21.9654974 12.6249937,21.8880233 12.6249937,21.7968779 L12.6249937,20.7031305 C12.6249937,20.611985 12.6568948,20.5345109 12.7206966,20.4707092 C12.7844984,20.4069074 12.8619725,20.3750063 12.953118,20.3750063 L14.0468654,20.3750063 C14.1380108,20.3750063 14.2154849,20.4069074 14.2792867,20.4707092 C14.3430885,20.5345109 14.3749896,20.611985 14.3749896,20.7031305 L14.3749896,21.7968779 C14.3749896,21.8880233 14.3430885,21.9654974 14.2792867,22.0292992 C14.2154849,22.093101 14.1380108,22.1250021 14.0468654,22.1250021 L12.953118,22.1250021 Z M18.2031054,22.1250021 C18.11196,22.1250021 18.0344859,22.093101 17.9706841,22.0292992 C17.9068823,21.9654974 17.8749812,21.8880233 17.8749812,21.7968779 L17.8749812,20.7031305 C17.8749812,20.611985 17.9068823,20.5345109 17.9706841,20.4707092 C18.0344859,20.4069074 18.11196,20.3750063 18.2031054,20.3750063 L19.2968528,20.3750063 C19.3879983,20.3750063 19.4654724,20.4069074 19.5292742,20.4707092 C19.5930759,20.5345109 19.6249771,20.611985 19.6249771,20.7031305 L19.6249771,21.7968779 C19.6249771,21.8880233 19.5930759,21.9654974 19.5292742,22.0292992 C19.4654724,22.093101 19.3879983,22.1250021 19.2968528,22.1250021 L18.2031054,22.1250021 Z" id="icon-field-date"></path>
                    </g>
                </g>
            </g>
        </g>
    </g>
</svg>