<?xml version="1.0" encoding="UTF-8"?>
<svg width="14px" height="15px" viewBox="0 0 14 15" version="1.1" xmlns="http://www.w3.org/2000/svg" xmlns:xlink="http://www.w3.org/1999/xlink">
    <!-- Generator: Sketch 52.5 (67469) - http://www.bohemiancoding.com/sketch -->
    <title>icon-phone-blue</title>
    <desc>Created with Sketch.</desc>
    <g id="experiment" stroke="none" stroke-width="1" fill="none" fill-rule="evenodd">
        <g id="initial-copy-6" transform="translate(-717.000000, -386.000000)" fill="#4285F4">
            <g id="sub-content" transform="translate(462.000000, 90.000000)">
                <g id="field---call-transfer" transform="translate(20.000000, 284.000000)">
                    <path d="M248.480437,13.4336213 C248.644499,13.4518506 248.772103,13.5247668 248.863248,13.6523708 C248.954394,13.7799748 248.999967,13.9166932 248.999967,14.0625261 C248.999967,16.3593956 248.425749,18.492203 247.277314,20.4609483 C246.147109,22.3750063 244.624977,23.8971382 242.710919,25.0273437 C240.742174,26.1757784 238.609366,26.7499958 236.312497,26.7499958 C236.166664,26.7499958 236.029946,26.7044229 235.902342,26.6132774 C235.774738,26.5221319 235.701821,26.3945279 235.683592,26.2304658 L235.027344,23.3867226 C234.990886,23.2408897 235.009114,23.0950565 235.082031,22.9492236 C235.154948,22.8033908 235.264322,22.7031305 235.410155,22.6484431 L238.472648,21.3359462 C238.600252,21.2812589 238.732413,21.2721444 238.869131,21.3086026 C239.00585,21.3450607 239.128896,21.4179773 239.238271,21.527352 L240.578112,23.1679731 C241.65363,22.6757868 242.606102,22.0104239 243.435527,21.1718841 C244.264952,20.3333443 244.925758,19.3854302 245.417944,18.3281409 L243.777323,16.9883004 C243.667948,16.8789256 243.595031,16.755879 243.558573,16.6191606 C243.522115,16.4824422 243.53123,16.3502812 243.585917,16.2226772 L244.898414,13.1601845 C244.953101,13.0143516 245.053362,12.9049769 245.199194,12.8320603 C245.345027,12.7591436 245.490861,12.7409148 245.636693,12.7773729 L248.480437,13.4336213 Z" id="icon-phone-blue"></path>
                </g>
            </g>
        </g>
    </g>
</svg>