<?xml version="1.0" encoding="UTF-8"?>
<svg width="13px" height="3px" viewBox="0 0 13 3" version="1.1" xmlns="http://www.w3.org/2000/svg" xmlns:xlink="http://www.w3.org/1999/xlink">
    <!-- Generator: Sketch 52.5 (67469) - http://www.bohemiancoding.com/sketch -->
    <title>plus</title>
    <desc>Created with Sketch.</desc>
    <g id="experiment" stroke="none" stroke-width="1" fill="none" fill-rule="evenodd">
        <g id="initial-copy-6" transform="translate(-409.000000, -158.000000)" fill="#2B333D">
            <g id="Aside-content" transform="translate(90.000000, 90.000000)">
                <g id="Forms-list" transform="translate(20.000000, 61.000000)">
                    <path d="M310.921847,9.51563569 L299.328124,9.51563569 C299.236979,9.51563569 299.159505,9.48373459 299.095703,9.41993279 C299.031901,9.356131 299,9.27865695 299,9.18751147 L299,8.31251356 C299,8.22136808 299.031901,8.14389403 299.095703,8.08009224 C299.159505,8.01629045 299.236979,7.98438934 299.328124,7.98438934 L310.921847,7.98438934 C311.012992,7.98438934 311.090466,8.01629045 311.154268,8.08009224 C311.21807,8.14389403 311.249971,8.22136808 311.249971,8.31251356 L311.249971,9.18751147 C311.249971,9.27865695 311.21807,9.356131 311.154268,9.41993279 C311.090466,9.48373459 311.012992,9.51563569 310.921847,9.51563569 Z" id="plus"></path>
                </g>
            </g>
        </g>
    </g>
</svg>