<?xml version="1.0" encoding="UTF-8"?>
<svg width="10px" height="10px" viewBox="0 0 10 10" version="1.1" xmlns="http://www.w3.org/2000/svg" xmlns:xlink="http://www.w3.org/1999/xlink">
    <!-- Generator: Sketch 52.5 (67469) - http://www.bohemiancoding.com/sketch -->
    <title>icon-intersection</title>
    <desc>Created with Sketch.</desc>
    <g id="Forms---field-settings" stroke="none" stroke-width="1" fill="none" fill-rule="evenodd">
        <g id="Expanded" transform="translate(-317.000000, -1709.000000)" fill="#2B333D">
            <g id="Forms-list-Copy-29" transform="translate(20.000000, 1620.000000)">
                <g id="Group-4-Copy" transform="translate(0.000000, 74.000000)">
                    <g id="tools" transform="translate(232.000000, 10.000000)">
                        <g id="Group-Copy-2" transform="translate(60.000000, 0.000000)">
                            <g id="icon-intersection" transform="translate(5.400000, 5.000000)">
                                <path d="M9.07810336,4.61980132 C9.24824175,4.78993971 9.33331108,4.99653662 9.33331108,5.2395915 C9.33331108,5.48264639 9.24824175,5.6892433 9.07810336,5.85938169 L5.35936222,9.57812283 C5.18922383,9.74826122 4.98262692,9.83333055 4.73957203,9.83333055 C4.49651715,9.83333055 4.28992023,9.74826122 4.11978184,9.57812283 L0.255207725,5.71354871 C0.0850693343,5.54341032 0,5.3368134 0,5.09375852 L0,1.37501738 C0,1.1319625 0.0850693343,0.925365586 0.255207725,0.755227196 C0.425346115,0.585088805 0.63194303,0.500019471 0.874997914,0.500019471 L4.59373905,0.500019471 C4.83679393,0.500019471 5.04339085,0.585088805 5.21352924,0.755227196 L9.07810336,4.61980132 Z M4.73957203,8.95833264 L8.45831317,5.2395915 L4.59373905,1.37501738 L0.874997914,1.37501738 L0.874997914,5.09375852 L4.73957203,8.95833264 Z M3.49999166,3.12501321 C3.49999166,3.3680681 3.41492232,3.57466501 3.24478393,3.7448034 C3.07464554,3.91494179 2.86804862,4.00001113 2.62499374,4.00001113 C2.38193886,4.00001113 2.17534194,3.91494179 2.00520355,3.7448034 C1.83506516,3.57466501 1.74999583,3.3680681 1.74999583,3.12501321 C1.74999583,2.88195833 1.83506516,2.67536141 2.00520355,2.50522302 C2.17534194,2.33508463 2.38193886,2.2500153 2.62499374,2.2500153 C2.86804862,2.2500153 3.07464554,2.33508463 3.24478393,2.50522302 C3.41492232,2.67536141 3.49999166,2.88195833 3.49999166,3.12501321 Z" id=""></path>
                                <path d="M8.96900875,2.01466762 C9.21189171,2.25755058 9.33333333,2.54901024 9.33333333,2.88904661 C9.33333333,3.22908298 9.21189171,3.52054265 8.96900875,3.76342561 L3.23089659,9.53797022 L0.516678463,9.99337595 C0.370948631,10.0176642 0.243435027,9.97515972 0.134137653,9.86586235 C0.0248402785,9.75656497 -0.0176641633,9.62905137 0.00662404947,9.48332154 L0.462029776,6.76910341 L6.23657439,1.03099125 C6.47945735,0.788108286 6.77091702,0.666666667 7.11095339,0.666666667 C7.45098976,0.666666667 7.74244942,0.788108286 7.98533238,1.03099125 L8.96900875,2.01466762 Z M2.09186202,6.28689359 L2.84215158,6.28346943 L2.84124497,7.15875503 L3.71653057,7.15784842 L3.71310641,7.90813798 L7.38164606,4.22138209 L5.77861791,2.61835394 L2.09186202,6.28689359 Z M1.50035483,9.00969958 L2.84835578,8.79110483 L3.36891121,8.2705494 L3.10886264,7.76551635 L2.66694867,7.33305133 L2.23448365,6.89113736 L1.7294506,6.63108879 L1.20889517,7.15164422 L0.990300419,8.49964517 L1.50035483,9.00969958 Z M8.40430565,3.19872251 C8.48931481,3.11371335 8.53181925,3.01048823 8.53181925,2.88904661 C8.53181925,2.76760499 8.48324255,2.66437988 8.38608942,2.57937072 L7.42062928,1.59569435 C7.33562012,1.51068519 7.23239501,1.46818075 7.11095339,1.46818075 C6.98951177,1.46818075 6.88628665,1.51068519 6.80127749,1.59569435 L5.9268985,2.47007334 L7.52992666,4.0731015 L8.40430565,3.19872251 Z" id=""></path>
                            </g>
                        </g>
                    </g>
                </g>
            </g>
        </g>
    </g>
</svg>