<?xml version="1.0" encoding="UTF-8"?>
<svg width="14px" height="12px" viewBox="0 0 14 12" version="1.1" xmlns="http://www.w3.org/2000/svg" xmlns:xlink="http://www.w3.org/1999/xlink">
    <!-- Generator: Sketch 52.5 (67469) - http://www.bohemiancoding.com/sketch -->
    <title>icon-field-city</title>
    <desc>Created with Sketch.</desc>
    <g id="experiment" stroke="none" stroke-width="1" fill="none" fill-rule="evenodd">
        <g id="initial-copy-6" transform="translate(-281.000000, -421.000000)" fill="#2B333D">
            <g id="Aside-content" transform="translate(90.000000, 90.000000)">
                <g id="drags" transform="translate(20.000000, 94.000000)">
                    <g id="drag-copy-12" transform="translate(161.000000, 225.000000)">
                        <path d="M23.234375,16.5 C23.3776049,16.5 23.4993485,16.5501297 23.5996094,16.6503906 C23.6998703,16.7506515 23.75,16.8723951 23.75,17.015625 L23.75,22.6875 C23.75,22.8736988 23.6819668,23.03483 23.5458984,23.1708984 C23.40983,23.3069668 23.2486988,23.375 23.0625,23.375 L10.6875,23.375 C10.5013012,23.375 10.34017,23.3069668 10.2041016,23.1708984 C10.0680332,23.03483 10,22.8736988 10,22.6875 L10,14.953125 C10,14.8098951 10.0501297,14.6881515 10.1503906,14.5878906 C10.2506515,14.4876297 10.3723951,14.4375 10.515625,14.4375 L11.375,14.4375 L11.375,12.71875 C11.375,12.6184891 11.4072262,12.5361331 11.4716797,12.4716797 C11.5361331,12.4072262 11.6184891,12.375 11.71875,12.375 L12.0625,12.375 C12.1627609,12.375 12.2451169,12.4072262 12.3095703,12.4716797 C12.3740238,12.5361331 12.40625,12.6184891 12.40625,12.71875 L12.40625,14.4375 L13.78125,14.4375 L13.78125,12.71875 C13.78125,12.6184891 13.8134762,12.5361331 13.8779297,12.4716797 C13.9423831,12.4072262 14.0247391,12.375 14.125,12.375 L14.46875,12.375 C14.5690109,12.375 14.6513669,12.4072262 14.7158203,12.4716797 C14.7802738,12.5361331 14.8125,12.6184891 14.8125,12.71875 L14.8125,14.4375 L16.1875,14.4375 L16.1875,12.890625 C16.1875,12.7473951 16.2376297,12.6256515 16.3378906,12.5253906 C16.4381515,12.4251297 16.5598951,12.375 16.703125,12.375 L19.796875,12.375 C19.9401049,12.375 20.0618485,12.4251297 20.1621094,12.5253906 C20.2623703,12.6256515 20.3125,12.7473951 20.3125,12.890625 L20.3125,16.5 L23.234375,16.5 Z M12.75,21.0546875 L12.75,20.1953125 C12.75,20.1236976 12.7249351,20.0628258 12.6748047,20.0126953 C12.6246742,19.9625649 12.5638024,19.9375 12.4921875,19.9375 L11.6328125,19.9375 C11.5611976,19.9375 11.5003258,19.9625649 11.4501953,20.0126953 C11.4000649,20.0628258 11.375,20.1236976 11.375,20.1953125 L11.375,21.0546875 C11.375,21.1263024 11.4000649,21.1871742 11.4501953,21.2373047 C11.5003258,21.2874351 11.5611976,21.3125 11.6328125,21.3125 L12.4921875,21.3125 C12.5638024,21.3125 12.6246742,21.2874351 12.6748047,21.2373047 C12.7249351,21.1871742 12.75,21.1263024 12.75,21.0546875 Z M12.75,18.9921875 L12.75,18.1328125 C12.75,18.0611976 12.7249351,18.0003258 12.6748047,17.9501953 C12.6246742,17.9000649 12.5638024,17.875 12.4921875,17.875 L11.6328125,17.875 C11.5611976,17.875 11.5003258,17.9000649 11.4501953,17.9501953 C11.4000649,18.0003258 11.375,18.0611976 11.375,18.1328125 L11.375,18.9921875 C11.375,19.0638024 11.4000649,19.1246742 11.4501953,19.1748047 C11.5003258,19.2249351 11.5611976,19.25 11.6328125,19.25 L12.4921875,19.25 C12.5638024,19.25 12.6246742,19.2249351 12.6748047,19.1748047 C12.7249351,19.1246742 12.75,19.0638024 12.75,18.9921875 Z M12.75,16.9296875 L12.75,16.0703125 C12.75,15.9986976 12.7249351,15.9378258 12.6748047,15.8876953 C12.6246742,15.8375649 12.5638024,15.8125 12.4921875,15.8125 L11.6328125,15.8125 C11.5611976,15.8125 11.5003258,15.8375649 11.4501953,15.8876953 C11.4000649,15.9378258 11.375,15.9986976 11.375,16.0703125 L11.375,16.9296875 C11.375,17.0013024 11.4000649,17.0621742 11.4501953,17.1123047 C11.5003258,17.1624351 11.5611976,17.1875 11.6328125,17.1875 L12.4921875,17.1875 C12.5638024,17.1875 12.6246742,17.1624351 12.6748047,17.1123047 C12.7249351,17.0621742 12.75,17.0013024 12.75,16.9296875 Z M15.5,21.0546875 L15.5,20.1953125 C15.5,20.1236976 15.4749351,20.0628258 15.4248047,20.0126953 C15.3746742,19.9625649 15.3138024,19.9375 15.2421875,19.9375 L14.3828125,19.9375 C14.3111976,19.9375 14.2503258,19.9625649 14.2001953,20.0126953 C14.1500649,20.0628258 14.125,20.1236976 14.125,20.1953125 L14.125,21.0546875 C14.125,21.1263024 14.1500649,21.1871742 14.2001953,21.2373047 C14.2503258,21.2874351 14.3111976,21.3125 14.3828125,21.3125 L15.2421875,21.3125 C15.3138024,21.3125 15.3746742,21.2874351 15.4248047,21.2373047 C15.4749351,21.1871742 15.5,21.1263024 15.5,21.0546875 Z M15.5,18.9921875 L15.5,18.1328125 C15.5,18.0611976 15.4749351,18.0003258 15.4248047,17.9501953 C15.3746742,17.9000649 15.3138024,17.875 15.2421875,17.875 L14.3828125,17.875 C14.3111976,17.875 14.2503258,17.9000649 14.2001953,17.9501953 C14.1500649,18.0003258 14.125,18.0611976 14.125,18.1328125 L14.125,18.9921875 C14.125,19.0638024 14.1500649,19.1246742 14.2001953,19.1748047 C14.2503258,19.2249351 14.3111976,19.25 14.3828125,19.25 L15.2421875,19.25 C15.3138024,19.25 15.3746742,19.2249351 15.4248047,19.1748047 C15.4749351,19.1246742 15.5,19.0638024 15.5,18.9921875 Z M15.5,16.9296875 L15.5,16.0703125 C15.5,15.9986976 15.4749351,15.9378258 15.4248047,15.8876953 C15.3746742,15.8375649 15.3138024,15.8125 15.2421875,15.8125 L14.3828125,15.8125 C14.3111976,15.8125 14.2503258,15.8375649 14.2001953,15.8876953 C14.1500649,15.9378258 14.125,15.9986976 14.125,16.0703125 L14.125,16.9296875 C14.125,17.0013024 14.1500649,17.0621742 14.2001953,17.1123047 C14.2503258,17.1624351 14.3111976,17.1875 14.3828125,17.1875 L15.2421875,17.1875 C15.3138024,17.1875 15.3746742,17.1624351 15.4248047,17.1123047 C15.4749351,17.0621742 15.5,17.0013024 15.5,16.9296875 Z M18.9375,18.9921875 L18.9375,18.1328125 C18.9375,18.0611976 18.9124351,18.0003258 18.8623047,17.9501953 C18.8121742,17.9000649 18.7513024,17.875 18.6796875,17.875 L17.8203125,17.875 C17.7486976,17.875 17.6878258,17.9000649 17.6376953,17.9501953 C17.5875649,18.0003258 17.5625,18.0611976 17.5625,18.1328125 L17.5625,18.9921875 C17.5625,19.0638024 17.5875649,19.1246742 17.6376953,19.1748047 C17.6878258,19.2249351 17.7486976,19.25 17.8203125,19.25 L18.6796875,19.25 C18.7513024,19.25 18.8121742,19.2249351 18.8623047,19.1748047 C18.9124351,19.1246742 18.9375,19.0638024 18.9375,18.9921875 Z M18.9375,16.9296875 L18.9375,16.0703125 C18.9375,15.9986976 18.9124351,15.9378258 18.8623047,15.8876953 C18.8121742,15.8375649 18.7513024,15.8125 18.6796875,15.8125 L17.8203125,15.8125 C17.7486976,15.8125 17.6878258,15.8375649 17.6376953,15.8876953 C17.5875649,15.9378258 17.5625,15.9986976 17.5625,16.0703125 L17.5625,16.9296875 C17.5625,17.0013024 17.5875649,17.0621742 17.6376953,17.1123047 C17.6878258,17.1624351 17.7486976,17.1875 17.8203125,17.1875 L18.6796875,17.1875 C18.7513024,17.1875 18.8121742,17.1624351 18.8623047,17.1123047 C18.9124351,17.0621742 18.9375,17.0013024 18.9375,16.9296875 Z M18.9375,14.8671875 L18.9375,14.0078125 C18.9375,13.9361976 18.9124351,13.8753258 18.8623047,13.8251953 C18.8121742,13.7750649 18.7513024,13.75 18.6796875,13.75 L17.8203125,13.75 C17.7486976,13.75 17.6878258,13.7750649 17.6376953,13.8251953 C17.5875649,13.8753258 17.5625,13.9361976 17.5625,14.0078125 L17.5625,14.8671875 C17.5625,14.9388024 17.5875649,14.9996742 17.6376953,15.0498047 C17.6878258,15.0999351 17.7486976,15.125 17.8203125,15.125 L18.6796875,15.125 C18.7513024,15.125 18.8121742,15.0999351 18.8623047,15.0498047 C18.9124351,14.9996742 18.9375,14.9388024 18.9375,14.8671875 Z M22.375,21.0546875 L22.375,20.1953125 C22.375,20.1236976 22.3499351,20.0628258 22.2998047,20.0126953 C22.2496742,19.9625649 22.1888024,19.9375 22.1171875,19.9375 L21.2578125,19.9375 C21.1861976,19.9375 21.1253258,19.9625649 21.0751953,20.0126953 C21.0250649,20.0628258 21,20.1236976 21,20.1953125 L21,21.0546875 C21,21.1263024 21.0250649,21.1871742 21.0751953,21.2373047 C21.1253258,21.2874351 21.1861976,21.3125 21.2578125,21.3125 L22.1171875,21.3125 C22.1888024,21.3125 22.2496742,21.2874351 22.2998047,21.2373047 C22.3499351,21.1871742 22.375,21.1263024 22.375,21.0546875 Z M22.375,18.9921875 L22.375,18.1328125 C22.375,18.0611976 22.3499351,18.0003258 22.2998047,17.9501953 C22.2496742,17.9000649 22.1888024,17.875 22.1171875,17.875 L21.2578125,17.875 C21.1861976,17.875 21.1253258,17.9000649 21.0751953,17.9501953 C21.0250649,18.0003258 21,18.0611976 21,18.1328125 L21,18.9921875 C21,19.0638024 21.0250649,19.1246742 21.0751953,19.1748047 C21.1253258,19.2249351 21.1861976,19.25 21.2578125,19.25 L22.1171875,19.25 C22.1888024,19.25 22.2496742,19.2249351 22.2998047,19.1748047 C22.3499351,19.1246742 22.375,19.0638024 22.375,18.9921875 Z" id="icon-field-city"></path>
                    </g>
                </g>
            </g>
        </g>
    </g>
</svg>