<?xml version="1.0" encoding="UTF-8"?>
<svg width="14px" height="12px" viewBox="0 0 14 12" version="1.1" xmlns="http://www.w3.org/2000/svg" xmlns:xlink="http://www.w3.org/1999/xlink">
    <!-- Generator: Sketch 52.5 (67469) - http://www.bohemiancoding.com/sketch -->
    <title>icon-field-decision</title>
    <desc>Created with Sketch.</desc>
    <g id="experiment" stroke="none" stroke-width="1" fill="none" fill-rule="evenodd">
        <g id="initial-copy-6" transform="translate(-281.000000, -241.000000)" fill="#000000">
            <g id="Aside-content" transform="translate(90.000000, 90.000000)">
                <g id="drags" transform="translate(20.000000, 94.000000)">
                    <g id="drag-copy-3" transform="translate(161.000000, 45.000000)">
                        <path d="M23.2343434,19.2500066 C23.3775724,19.2500066 23.4993167,19.3001365 23.599577,19.4003968 C23.6998372,19.5006571 23.7499672,19.6224014 23.7499672,19.7656303 L23.7499672,22.859373 C23.7499672,23.0026019 23.6998372,23.1243462 23.599577,23.2246065 C23.4993167,23.3248667 23.3775724,23.3749967 23.2343434,23.3749967 L20.1406008,23.3749967 C19.9973719,23.3749967 19.8756276,23.3248667 19.7753673,23.2246065 C19.675107,23.1243462 19.6249771,23.0026019 19.6249771,22.859373 L19.6249771,19.7656303 C19.6249771,19.6224014 19.675107,19.5006571 19.7753673,19.4003968 C19.8756276,19.3001365 19.9973719,19.2500066 20.1406008,19.2500066 L20.9999738,19.2500066 L20.9999738,18.218759 C20.9999738,18.1184987 20.9677473,18.0361423 20.9032943,17.9716893 C20.8388413,17.9072363 20.7564849,17.8750098 20.6562246,17.8750098 L17.2187328,17.8750098 L17.2187328,19.2500066 L18.4218549,19.2500066 C18.5650839,19.2500066 18.6868281,19.3001365 18.7870884,19.4003968 C18.8873487,19.5006571 18.9374787,19.6224014 18.9374787,19.7656303 L18.9374787,22.859373 C18.9374787,23.0026019 18.8873487,23.1243462 18.7870884,23.2246065 C18.6868281,23.3248667 18.5650839,23.3749967 18.4218549,23.3749967 L15.3281123,23.3749967 C15.1848834,23.3749967 15.0631391,23.3248667 14.9628788,23.2246065 C14.8626185,23.1243462 14.8124885,23.0026019 14.8124885,22.859373 L14.8124885,19.7656303 C14.8124885,19.6224014 14.8626185,19.5006571 14.9628788,19.4003968 C15.0631391,19.3001365 15.1848834,19.2500066 15.3281123,19.2500066 L16.5312344,19.2500066 L16.5312344,17.8750098 L13.0937426,17.8750098 C12.9934823,17.8750098 12.9111259,17.9072363 12.8466729,17.9716893 C12.7822199,18.0361423 12.7499934,18.1184987 12.7499934,18.218759 L12.7499934,19.2500066 L13.6093664,19.2500066 C13.7525953,19.2500066 13.8743396,19.3001365 13.9745999,19.4003968 C14.0748602,19.5006571 14.1249902,19.6224014 14.1249902,19.7656303 L14.1249902,22.859373 C14.1249902,23.0026019 14.0748602,23.1243462 13.9745999,23.2246065 C13.8743396,23.3248667 13.7525953,23.3749967 13.6093664,23.3749967 L10.5156238,23.3749967 C10.3723948,23.3749967 10.2506506,23.3248667 10.1503903,23.2246065 C10.05013,23.1243462 10,23.0026019 10,22.859373 L10,19.7656303 C10,19.6224014 10.05013,19.5006571 10.1503903,19.4003968 C10.2506506,19.3001365 10.3723948,19.2500066 10.5156238,19.2500066 L12.0624951,19.2500066 L12.0624951,18.218759 C12.0624951,17.9323015 12.1627554,17.6888123 12.3632756,17.488292 C12.5637959,17.2877718 12.8072851,17.1875115 13.0937426,17.1875115 L16.5312344,17.1875115 L16.5312344,16.5000131 L15.3281123,16.5000131 C15.1848834,16.5000131 15.0631391,16.4498831 14.9628788,16.3496228 C14.8626185,16.2493626 14.8124885,16.1276183 14.8124885,15.9843893 L14.8124885,12.8906467 C14.8124885,12.7474178 14.8626185,12.6256735 14.9628788,12.5254132 C15.0631391,12.4251529 15.1848834,12.3750229 15.3281123,12.3750229 L18.4218549,12.3750229 C18.5650839,12.3750229 18.6868281,12.4251529 18.7870884,12.5254132 C18.8873487,12.6256735 18.9374787,12.7474178 18.9374787,12.8906467 L18.9374787,15.9843893 C18.9374787,16.1276183 18.8873487,16.2493626 18.7870884,16.3496228 C18.6868281,16.4498831 18.5650839,16.5000131 18.4218549,16.5000131 L17.2187328,16.5000131 L17.2187328,17.1875115 L20.6562246,17.1875115 C20.9426821,17.1875115 21.1861714,17.2877718 21.3866916,17.488292 C21.5872118,17.6888123 21.6874721,17.9323015 21.6874721,18.218759 L21.6874721,19.2500066 L23.2343434,19.2500066 Z M13.4374918,19.9375049 L10.6874984,19.9375049 L10.6874984,22.6874984 L13.4374918,22.6874984 L13.4374918,19.9375049 Z M18.2499803,19.9375049 L15.4999869,19.9375049 L15.4999869,22.6874984 L18.2499803,22.6874984 L18.2499803,19.9375049 Z M15.4999869,15.8125148 L18.2499803,15.8125148 L18.2499803,13.0625213 L15.4999869,13.0625213 L15.4999869,15.8125148 Z M23.0624689,22.6874984 L23.0624689,19.9375049 L20.3124754,19.9375049 L20.3124754,22.6874984 L23.0624689,22.6874984 Z" id="icon-field-decision"></path>
                    </g>
                </g>
            </g>
        </g>
    </g>
</svg>