<?xml version="1.0" encoding="UTF-8"?>
<svg width="14px" height="14px" viewBox="0 0 14 14" version="1.1" xmlns="http://www.w3.org/2000/svg" xmlns:xlink="http://www.w3.org/1999/xlink">
    <!-- Generator: Sketch 52.5 (67469) - http://www.bohemiancoding.com/sketch -->
    <title>icon-field-repeat</title>
    <desc>Created with Sketch.</desc>
    <g id="experiment" stroke="none" stroke-width="1" fill="none" fill-rule="evenodd">
        <g id="initial-copy-6" transform="translate(-120.000000, -510.000000)" fill="#2B333D">
            <g id="Aside-content" transform="translate(90.000000, 90.000000)">
                <g id="drags" transform="translate(20.000000, 94.000000)">
                    <g id="drag-copy-15" transform="translate(0.000000, 315.000000)">
                        <path d="M23.5077803,15.6992362 C23.8359045,16.3554846 23.9999666,17.0481911 23.9999666,17.7773562 C23.9999666,18.5794375 23.7994464,19.3086026 23.3984056,19.964851 C22.9973647,20.6210994 22.4596058,21.1451869 21.7851282,21.5371129 C21.1106505,21.9290389 20.372371,22.1250021 19.5702897,22.1250021 L15.2499875,22.1250021 L15.2499875,23.4101553 C15.2499875,23.6106755 15.1861857,23.7747376 15.0585817,23.9023416 C14.9309777,24.0299456 14.7760304,24.0937474 14.593739,24.0937474 C14.4114477,24.0937474 14.2565004,24.0299456 14.1288964,23.9023416 L11.9414016,21.7148468 C11.8137976,21.5872428 11.7499958,21.4322955 11.7499958,21.2500042 C11.7499958,21.0677128 11.8137976,20.9127655 11.9414016,20.7851615 L14.1288964,18.5976667 C14.2565004,18.4700627 14.4114477,18.406261 14.593739,18.406261 C14.7760304,18.406261 14.9309777,18.4700627 15.0585817,18.5976667 C15.1861857,18.7252707 15.2499875,18.880218 15.2499875,19.0625094 L15.2499875,20.3750063 L19.5976334,20.3750063 C20.3267984,20.3750063 20.9511458,20.1243557 21.4706758,19.6230549 C21.9902058,19.1217542 22.2499708,18.5065213 22.2499708,17.7773562 C22.2499708,17.3763154 22.1679397,16.9935038 22.0038776,16.6289214 C21.9491903,16.5013174 21.930961,16.3691564 21.9491903,16.232438 C21.9674195,16.0957196 22.0312213,15.9817874 22.1405961,15.890642 L22.4413766,15.5625177 C22.6054387,15.3984556 22.7968445,15.3346538 23.015594,15.3711119 C23.2343434,15.40757 23.3984056,15.5169448 23.5077803,15.6992362 Z M11.7499958,17.7226688 C11.7499958,18.1237097 11.8320269,18.5065213 11.996089,18.8711036 C12.0507764,18.9987076 12.0690056,19.1308686 12.0507764,19.267587 C12.0325471,19.4043054 11.9687453,19.5182376 11.8593706,19.6093831 L11.55859,19.9375073 C11.3945279,20.1015694 11.2031221,20.1653712 10.9843727,20.1289131 C10.7656232,20.092455 10.6015611,19.9830802 10.4921863,19.8007889 C10.1640621,19.1445404 10,18.4518339 10,17.7226688 C10,16.9205876 10.2005202,16.1914225 10.6015611,15.535174 C11.0026019,14.8789256 11.5403608,14.3548382 12.2148385,13.9629122 C12.8893162,13.5709862 13.6275957,13.3750229 14.4296769,13.3750229 L18.7499791,13.3750229 L18.7499791,12.0898698 C18.7499791,11.8893495 18.8137809,11.7252874 18.9413849,11.5976834 C19.0689889,11.4700794 19.2239362,11.4062776 19.4062276,11.4062776 C19.5885189,11.4062776 19.7434662,11.4700794 19.8710702,11.5976834 L22.058565,13.7851782 C22.186169,13.9127822 22.2499708,14.0677295 22.2499708,14.2500209 C22.2499708,14.4323122 22.186169,14.5872595 22.058565,14.7148635 L19.8710702,16.9023583 C19.7434662,17.0299623 19.5885189,17.0937641 19.4062276,17.0937641 C19.2239362,17.0937641 19.0689889,17.0299623 18.9413849,16.9023583 C18.8137809,16.7747543 18.7499791,16.619807 18.7499791,16.4375156 L18.7499791,15.1250188 L14.4023333,15.1250188 C13.6731682,15.1250188 13.0488209,15.3756694 12.5292908,15.8769701 C12.0097608,16.3782709 11.7499958,16.9935038 11.7499958,17.7226688 Z" id="icon-field-repeat"></path>
                    </g>
                </g>
            </g>
        </g>
    </g>
</svg>