<?xml version="1.0" encoding="UTF-8"?>
<svg width="14px" height="15px" viewBox="0 0 14 15" version="1.1" xmlns="http://www.w3.org/2000/svg" xmlns:xlink="http://www.w3.org/1999/xlink">
    <!-- Generator: Sketch 52.5 (67469) - http://www.bohemiancoding.com/sketch -->
    <title>icon-undo</title>
    <desc>Created with Sketch.</desc>
    <g id="experiment" stroke="none" stroke-width="1" fill="none" fill-rule="evenodd">
        <g id="initial-copy-6" transform="translate(-482.000000, -149.000000)" fill="#2B333D">
            <g id="sub-content" transform="translate(462.000000, 90.000000)">
                <g id="Tools" transform="translate(20.000000, 49.000000)">
                    <g id="unre" transform="translate(0.000000, 1.000000)">
                        <path d="M0.765623175,10.5156524 L2.21483847,11.9648677 C2.8346288,11.3268485 3.55923644,10.8346622 4.38866141,10.4883087 C5.21808638,10.1419552 6.08852729,9.96877868 6.99998331,9.96877868 C8.2213347,9.96877868 9.3515402,10.2741166 10.3906002,10.8847921 C11.4296602,11.4954676 12.2545282,12.3203356 12.8652037,13.3593956 C13.4758792,14.3984556 13.7812171,15.5332185 13.7812171,16.7636844 C13.7812171,17.9941502 13.4758792,19.1243557 12.8652037,20.1543013 C12.2545282,21.1842469 11.4296602,22.0045574 10.3906002,22.6152329 C9.3515402,23.2259084 8.2213347,23.5312463 6.99998331,23.5312463 C6.14321466,23.5312463 5.32290411,23.3762987 4.53905168,23.0664037 C3.75519924,22.7565088 3.0624927,22.3281242 2.46093163,21.7812505 C2.388015,21.7265632 2.35155689,21.6490895 2.35155689,21.5488292 C2.35155689,21.4485689 2.37890058,21.3710952 2.43358795,21.3164079 L2.98046164,20.7695342 C3.03514901,20.7148468 3.10806565,20.6829457 3.19921112,20.6738313 C3.2903566,20.6647169 3.37238765,20.6875031 3.44530429,20.7421905 C3.91926135,21.1796895 4.46157804,21.5169281 5.07225353,21.7539068 C5.68292902,21.9908856 6.32550561,22.1093747 6.99998331,22.1093747 C7.9661267,22.1093747 8.85935388,21.867839 9.67966442,21.3847671 C10.499975,20.9016952 11.151666,20.2500042 11.6347379,19.4296936 C12.1178098,18.6093831 12.3593455,17.7161559 12.3593455,16.7500125 C12.3593455,15.7838691 12.1178098,14.890642 11.6347379,14.0703314 C11.151666,13.2500209 10.499975,12.5983298 9.67966442,12.1152579 C8.85935388,11.632186 7.9661267,11.3906503 6.99998331,11.3906503 C6.27081824,11.3906503 5.58266912,11.5273687 4.93553511,11.8008056 C4.28840109,12.0742424 3.70962671,12.457054 3.19921112,12.9492403 L4.70311379,14.453143 C4.79425926,14.5442885 4.81248853,14.6582206 4.75780116,14.7949391 C4.70311379,14.9316575 4.60285347,15.0000167 4.45702062,15.0000167 L0.546873696,15.0000167 C0.455728219,15.0000167 0.378254167,14.9681156 0.314452375,14.9043138 C0.250650583,14.840512 0.218749478,14.7630379 0.218749478,14.6718925 L0.218749478,10.7617455 C0.218749478,10.6159127 0.28710869,10.5156524 0.423827115,10.460965 C0.560545539,10.4062776 0.674477698,10.4245069 0.765623175,10.5156524 Z" id="icon-undo"></path>
                    </g>
                </g>
            </g>
        </g>
    </g>
</svg>