<?xml version="1.0" encoding="UTF-8"?>
<svg width="14px" height="15px" viewBox="0 0 14 15" version="1.1" xmlns="http://www.w3.org/2000/svg" xmlns:xlink="http://www.w3.org/1999/xlink">
    <!-- Generator: Sketch 52.5 (67469) - http://www.bohemiancoding.com/sketch -->
    <title>icon-redo</title>
    <desc>Created with Sketch.</desc>
    <g id="experiment" stroke="none" stroke-width="1" fill="none" fill-rule="evenodd">
        <g id="initial-copy-6" transform="translate(-506.000000, -149.000000)" fill="#2B333D">
            <g id="sub-content" transform="translate(462.000000, 90.000000)">
                <g id="Tools" transform="translate(20.000000, 49.000000)">
                    <g id="unre" transform="translate(0.000000, 1.000000)">
                        <path d="M24.7656232,10.5156524 L26.2148385,11.9648677 C26.8346288,11.3268485 27.5592364,10.8346622 28.3886614,10.4883087 C29.2180864,10.1419552 30.0885273,9.96877868 30.9999833,9.96877868 C32.2213347,9.96877868 33.3515402,10.2741166 34.3906002,10.8847921 C35.4296602,11.4954676 36.2545282,12.3203356 36.8652037,13.3593956 C37.4758792,14.3984556 37.7812171,15.5332185 37.7812171,16.7636844 C37.7812171,17.9941502 37.4758792,19.1243557 36.8652037,20.1543013 C36.2545282,21.1842469 35.4296602,22.0045574 34.3906002,22.6152329 C33.3515402,23.2259084 32.2213347,23.5312463 30.9999833,23.5312463 C30.1432147,23.5312463 29.3229041,23.3762987 28.5390517,23.0664037 C27.7551992,22.7565088 27.0624927,22.3281242 26.4609316,21.7812505 C26.388015,21.7265632 26.3515569,21.6490895 26.3515569,21.5488292 C26.3515569,21.4485689 26.3789006,21.3710952 26.4335879,21.3164079 L26.9804616,20.7695342 C27.035149,20.7148468 27.1080656,20.6829457 27.1992111,20.6738313 C27.2903566,20.6647169 27.3723877,20.6875031 27.4453043,20.7421905 C27.9192613,21.1796895 28.461578,21.5169281 29.0722535,21.7539068 C29.682929,21.9908856 30.3255056,22.1093747 30.9999833,22.1093747 C31.9661267,22.1093747 32.8593539,21.867839 33.6796644,21.3847671 C34.499975,20.9016952 35.151666,20.2500042 35.6347379,19.4296936 C36.1178098,18.6093831 36.3593455,17.7161559 36.3593455,16.7500125 C36.3593455,15.7838691 36.1178098,14.890642 35.6347379,14.0703314 C35.151666,13.2500209 34.499975,12.5983298 33.6796644,12.1152579 C32.8593539,11.632186 31.9661267,11.3906503 30.9999833,11.3906503 C30.2708182,11.3906503 29.5826691,11.5273687 28.9355351,11.8008056 C28.2884011,12.0742424 27.7096267,12.457054 27.1992111,12.9492403 L28.7031138,14.453143 C28.7942593,14.5442885 28.8124885,14.6582206 28.7578012,14.7949391 C28.7031138,14.9316575 28.6028535,15.0000167 28.4570206,15.0000167 L24.5468737,15.0000167 C24.4557282,15.0000167 24.3782542,14.9681156 24.3144524,14.9043138 C24.2506506,14.840512 24.2187495,14.7630379 24.2187495,14.6718925 L24.2187495,10.7617455 C24.2187495,10.6159127 24.2871087,10.5156524 24.4238271,10.460965 C24.5605455,10.4062776 24.6744777,10.4245069 24.7656232,10.5156524 Z" id="icon-redo" transform="translate(30.999983, 16.750013) scale(-1, 1) translate(-30.999983, -16.750013) "></path>
                    </g>
                </g>
            </g>
        </g>
    </g>
</svg>