<?xml version="1.0" encoding="UTF-8"?>
<svg width="16px" height="15px" viewBox="0 0 16 15" version="1.1" xmlns="http://www.w3.org/2000/svg" xmlns:xlink="http://www.w3.org/1999/xlink">
    <!-- Generator: Sketch 52.5 (67469) - http://www.bohemiancoding.com/sketch -->
    <title>icon-field-order</title>
    <desc>Created with Sketch.</desc>
    <g id="rough" stroke="none" stroke-width="1" fill="none" fill-rule="evenodd">
        <g id="Artboard" transform="translate(-134.000000, -83.000000)" fill="#2B333D">
            <path d="M149.339807,87.4687703 C149.613244,87.7422072 149.749962,88.0748888 149.749962,88.4668148 C149.749962,88.8587408 149.613244,89.1914225 149.339807,89.4648593 L144.992161,93.8398489 C144.901016,93.9309944 144.736954,94.0585984 144.499975,94.2226605 L144.499975,96.437499 C144.499975,96.8020813 144.372371,97.1119767 144.117163,97.3671842 C143.861956,97.6223918 143.55206,97.7499958 143.187478,97.7499958 L135.312497,97.7499958 C134.947915,97.7499958 134.638019,97.6223918 134.382812,97.3671842 C134.127604,97.1119767 134,96.8020813 134,96.437499 L134,85.0625261 C134,84.6979438 134.127604,84.3880484 134.382812,84.1328408 C134.638019,83.8776332 134.947915,83.7500292 135.312497,83.7500292 L140.890609,83.7500292 C141.255191,83.7500292 141.565086,83.8776332 141.820294,84.1328408 L144.117163,86.4297103 C144.372371,86.6849179 144.499975,86.9948133 144.499975,87.3593956 L144.499975,88.9453293 L146.660126,86.7851782 C146.933563,86.5117414 147.266245,86.3750229 147.658171,86.3750229 C148.050097,86.3750229 148.382778,86.5117414 148.656215,86.7851782 L149.339807,87.4687703 Z M140.999983,84.6523708 L140.999983,87.2500209 L143.624977,87.2500209 C143.588519,87.1771042 143.542946,87.1133024 143.488259,87.0586151 L141.191389,84.7617455 C141.136702,84.7070582 141.0729,84.6706001 140.999983,84.6523708 Z M143.624977,96.437499 L143.624977,94.7421905 C143.059874,94.9973981 142.476542,95.1250021 141.874981,95.1250021 L140.999983,95.1250021 C140.781234,95.1250021 140.580714,95.0657573 140.398422,94.9472681 C140.216131,94.828779 140.070298,94.6692739 139.960923,94.4687537 C139.906236,94.3593789 139.81509,94.3046915 139.687486,94.3046915 C139.559882,94.3046915 139.468737,94.3593789 139.41405,94.4687537 L139.1953,94.8789089 C139.122383,95.0612003 138.985665,95.1432313 138.785145,95.1250021 C138.584625,95.1067728 138.457021,95.0065129 138.402333,94.8242216 L137.937491,93.4570373 L137.63671,94.3046915 C137.563793,94.5598991 137.422518,94.7604198 137.212883,94.9062526 C137.003248,95.0520855 136.770827,95.1250021 136.515619,95.1250021 L136.187495,95.1250021 C136.059891,95.1250021 135.955073,95.0839866 135.873042,95.0019555 C135.791011,94.9199245 135.749996,94.8151071 135.749996,94.6875031 C135.749996,94.5598991 135.791011,94.4550818 135.873042,94.3730508 C135.955073,94.2910197 136.059891,94.2500042 136.187495,94.2500042 L136.515619,94.2500042 C136.661452,94.2500042 136.761712,94.1770875 136.8164,94.0312547 L137.308586,92.5546957 C137.363273,92.4088629 137.445304,92.2949307 137.554679,92.2128997 C137.664054,92.1308686 137.791658,92.0898531 137.937491,92.0898531 C138.083323,92.0898531 138.210927,92.1308686 138.320302,92.2128997 C138.429677,92.2949307 138.511708,92.4088629 138.566395,92.5546957 L138.949207,93.6757868 C139.222644,93.4570373 139.550768,93.3886781 139.93358,93.4707092 C140.316391,93.5527402 140.589828,93.7578178 140.75389,94.0859421 C140.808578,94.1770875 140.890609,94.2317749 140.999983,94.2500042 C140.999983,93.6666724 141.113915,93.1015694 141.341779,92.5546957 C141.569643,92.007822 141.89321,91.533865 142.31248,91.1328241 L143.624977,89.8203272 L143.624977,88.1250188 L140.781234,88.1250188 C140.598942,88.1250188 140.443995,88.061217 140.316391,87.933613 C140.188787,87.806009 140.124985,87.6510617 140.124985,87.4687703 L140.124985,84.6250271 L135.312497,84.6250271 C135.184893,84.6250271 135.080076,84.6660426 134.998044,84.7480737 C134.916013,84.8301048 134.874998,84.9349221 134.874998,85.0625261 L134.874998,96.437499 C134.874998,96.565103 134.916013,96.6699203 134.998044,96.7519513 C135.080076,96.8339824 135.184893,96.8749979 135.312497,96.8749979 L143.187478,96.8749979 C143.315082,96.8749979 143.419899,96.8339824 143.50193,96.7519513 C143.583962,96.6699203 143.624977,96.565103 143.624977,96.437499 Z M144.363257,93.2109441 L147.644499,89.9023583 L146.222627,88.4804867 L142.914041,91.7343852 C142.585917,92.0807387 142.330709,92.4681072 142.148418,92.8964918 C141.966127,93.3248763 141.874981,93.7760471 141.874981,94.2500042 C142.348938,94.2500042 142.800109,94.1588587 143.228494,93.9765673 C143.656878,93.794276 144.035132,93.5390684 144.363257,93.2109441 Z M148.710902,88.8632983 C148.820277,88.7539235 148.874965,88.6217625 148.874965,88.4668148 C148.874965,88.3118671 148.820277,88.1888206 148.710902,88.0976751 L148.02731,87.414083 C147.936165,87.3047082 147.813118,87.2500209 147.658171,87.2500209 C147.503223,87.2500209 147.371062,87.3047082 147.261687,87.414083 L146.68747,87.9883004 L148.136685,89.4375156 L148.710902,88.8632983 Z" id="icon-field-order"></path>
        </g>
    </g>
</svg>