<?xml version="1.0" encoding="UTF-8"?>
<svg width="13px" height="11px" viewBox="0 0 13 11" version="1.1" xmlns="http://www.w3.org/2000/svg" xmlns:xlink="http://www.w3.org/1999/xlink">
    <!-- Generator: Sketch 52.5 (67469) - http://www.bohemiancoding.com/sketch -->
    <title>icon-more-options</title>
    <desc>Created with Sketch.</desc>
    <g id="experiment" stroke="none" stroke-width="1" fill="none" fill-rule="evenodd">
        <g id="initial-copy-6" transform="translate(-1407.000000, -29.000000)" fill="#2B333D">
            <g id="header-copy" transform="translate(70.000000, 0.000000)">
                <g id="header-right" transform="translate(1280.000000, 28.000000)">
                    <path d="M68.9218466,3.14064612 L57.3281242,3.14064612 C57.2369787,3.14064612 57.1595047,3.10874502 57.0957029,3.04494323 C57.0319011,2.98114143 57,2.90366738 57,2.8125219 L57,1.93752399 C57,1.84637851 57.0319011,1.76890446 57.0957029,1.70510267 C57.1595047,1.64130088 57.2369787,1.60939977 57.3281242,1.60939977 L68.9218466,1.60939977 C69.0129921,1.60939977 69.0904661,1.64130088 69.1542679,1.70510267 C69.2180697,1.76890446 69.2499708,1.84637851 69.2499708,1.93752399 L69.2499708,2.8125219 C69.2499708,2.90366738 69.2180697,2.98114143 69.1542679,3.04494323 C69.0904661,3.10874502 69.0129921,3.14064612 68.9218466,3.14064612 Z M68.9218466,7.51563569 L57.3281242,7.51563569 C57.2369787,7.51563569 57.1595047,7.48373459 57.0957029,7.41993279 C57.0319011,7.356131 57,7.27865695 57,7.18751147 L57,6.31251356 C57,6.22136808 57.0319011,6.14389403 57.0957029,6.08009224 C57.1595047,6.01629045 57.2369787,5.98438934 57.3281242,5.98438934 L68.9218466,5.98438934 C69.0129921,5.98438934 69.0904661,6.01629045 69.1542679,6.08009224 C69.2180697,6.14389403 69.2499708,6.22136808 69.2499708,6.31251356 L69.2499708,7.18751147 C69.2499708,7.27865695 69.2180697,7.356131 69.1542679,7.41993279 C69.0904661,7.48373459 69.0129921,7.51563569 68.9218466,7.51563569 Z M68.9218466,11.8906253 L57.3281242,11.8906253 C57.2369787,11.8906253 57.1595047,11.8587242 57.0957029,11.7949224 C57.0319011,11.7311206 57,11.6536465 57,11.562501 L57,10.6875031 C57,10.5963577 57.0319011,10.5188836 57.0957029,10.4550818 C57.1595047,10.39128 57.2369787,10.3593789 57.3281242,10.3593789 L68.9218466,10.3593789 C69.0129921,10.3593789 69.0904661,10.39128 69.1542679,10.4550818 C69.2180697,10.5188836 69.2499708,10.5963577 69.2499708,10.6875031 L69.2499708,11.562501 C69.2499708,11.6536465 69.2180697,11.7311206 69.1542679,11.7949224 C69.0904661,11.8587242 69.0129921,11.8906253 68.9218466,11.8906253 Z" id="icon-more-options"></path>
                </g>
            </g>
        </g>
    </g>
</svg>