<?xml version="1.0" encoding="UTF-8"?>
<svg width="14px" height="13px" viewBox="0 0 14 13" version="1.1" xmlns="http://www.w3.org/2000/svg" xmlns:xlink="http://www.w3.org/1999/xlink">
    <!-- Generator: Sketch 52.5 (67469) - http://www.bohemiancoding.com/sketch -->
    <title>icon-field-relay</title>
    <desc>Created with Sketch.</desc>
    <g id="rough" stroke="none" stroke-width="1" fill="none" fill-rule="evenodd">
        <g id="Artboard" transform="translate(-314.000000, -84.000000)" fill="#2B333D">
            <path d="M320.999983,85.500025 C319.888007,85.500025 318.862618,85.7142171 317.923819,86.1426016 C316.985019,86.5709862 316.242182,87.154318 315.695308,87.8925975 C315.148435,88.6308769 314.874998,89.4375156 314.874998,90.3125136 C314.874998,91.3515736 315.276039,92.2994881 316.07812,93.1562568 L316.460932,93.5664121 L316.269526,94.0859421 C316.032547,94.7057324 315.65885,95.3346371 315.148435,95.9726563 C316.132807,95.8815108 317.071607,95.5260429 317.964834,94.9062526 L318.320302,94.6328158 L318.730457,94.7695342 C319.459623,95.0065129 320.216131,95.1250021 320.999983,95.1250021 C322.11196,95.1250021 323.137348,94.91081 324.076148,94.4824255 C325.014948,94.054041 325.757784,93.4707092 326.304658,92.7324297 C326.851532,91.9941502 327.124969,91.1875115 327.124969,90.3125136 C327.124969,89.4375156 326.851532,88.6308769 326.304658,87.8925975 C325.757784,87.154318 325.014948,86.5709862 324.076148,86.1426016 C323.137348,85.7142171 322.11196,85.500025 320.999983,85.500025 Z M320.999983,84.6250271 C322.276022,84.6250271 323.447243,84.8802347 324.513647,85.3906503 C325.580051,85.9010659 326.427705,86.589215 327.056609,87.4550985 C327.685514,88.320982 327.999967,89.2734535 327.999967,90.3125136 C327.999967,91.3515736 327.685514,92.3040451 327.056609,93.1699286 C326.427705,94.0358121 325.580051,94.7239612 324.513647,95.2343768 C323.447243,95.7447924 322.276022,96 320.999983,96 C320.143215,96 319.29556,95.872396 318.457021,95.6171884 C317.272128,96.4557282 316.005203,96.8749979 314.656248,96.8749979 C314.528644,96.8749979 314.410155,96.8385398 314.300781,96.7656232 C314.191406,96.6927065 314.109375,96.5970036 314.054687,96.4785145 C314,96.3600253 313.986328,96.2369787 314.013672,96.1093747 C314.041016,95.9817707 314.095703,95.8769534 314.177734,95.7949224 C314.259765,95.7128913 314.41927,95.5078137 314.656248,95.1796895 C315.020831,94.6875031 315.285153,94.2135461 315.449215,93.7578178 C314.483072,92.7369871 314,91.5885523 314,90.3125136 C314,89.2734535 314.314452,88.320982 314.943357,87.4550985 C315.572262,86.589215 316.419916,85.9010659 317.48632,85.3906503 C318.552724,84.8802347 319.723945,84.6250271 320.999983,84.6250271 Z" id="icon-field-relay"></path>
        </g>
    </g>
</svg>