<?xml version="1.0" encoding="UTF-8"?>
<svg width="11px" height="15px" viewBox="0 0 11 15" version="1.1" xmlns="http://www.w3.org/2000/svg" xmlns:xlink="http://www.w3.org/1999/xlink">
    <!-- Generator: Sketch 52.5 (67469) - http://www.bohemiancoding.com/sketch -->
    <title>icon-field-department</title>
    <desc>Created with Sketch.</desc>
    <g id="rough" stroke="none" stroke-width="1" fill="none" fill-rule="evenodd">
        <g id="Artboard" transform="translate(-194.000000, -83.000000)" fill="#2B333D">
            <path d="M204.499975,87.6875198 C204.499975,88.1979354 204.34047,88.6536632 204.02146,89.0547041 C203.702451,89.4557449 203.287738,89.7109525 202.777323,89.8203272 C202.759094,90.4948049 202.585917,91.0371212 202.257793,91.4472765 C201.929669,91.8574318 201.47394,92.1445404 200.890609,92.3086026 C200.526026,92.4179773 199.951809,92.5091228 199.167956,92.5820394 C198.693999,92.6367268 198.347646,92.6822997 198.128896,92.7187578 C197.782543,92.7734452 197.495434,92.8554762 197.26757,92.964851 C197.039706,93.0742257 196.871087,93.2382878 196.761712,93.4570373 C197.235669,93.5846413 197.623038,93.8444063 197.923819,94.2363323 C198.224599,94.6282583 198.37499,95.0703147 198.37499,95.562501 C198.37499,96.1640621 198.160798,96.6790347 197.732413,97.1074192 C197.304028,97.5358038 196.789056,97.7499958 196.187495,97.7499958 C195.585934,97.7499958 195.070961,97.5358038 194.642577,97.1074192 C194.214192,96.6790347 194,96.1640621 194,95.562501 C194,95.0338566 194.164062,94.569014 194.492186,94.1679731 C194.820311,93.7669323 195.23958,93.5208391 195.749996,93.4296936 L195.749996,88.0703314 C195.23958,87.9791859 194.820311,87.7330928 194.492186,87.3320519 C194.164062,86.9310111 194,86.4661684 194,85.937524 C194,85.3359629 194.214192,84.8209903 194.642577,84.3926058 C195.070961,83.9642213 195.585934,83.7500292 196.187495,83.7500292 C196.789056,83.7500292 197.304028,83.9642213 197.732413,84.3926058 C198.160798,84.8209903 198.37499,85.3359629 198.37499,85.937524 C198.37499,86.4661684 198.210927,86.9310111 197.882803,87.3320519 C197.554679,87.7330928 197.135409,87.9791859 196.624994,88.0703314 L196.624994,92.3359462 C196.69791,92.2812589 196.789056,92.2265715 196.898431,92.1718841 C197.171867,92.0442801 197.518221,91.9440202 197.937491,91.8711036 C198.192698,91.8164162 198.57551,91.7617289 199.085925,91.7070415 C199.760403,91.6523541 200.243475,91.5885523 200.535141,91.5156357 C201.009098,91.3880317 201.350894,91.1920689 201.560529,90.9277465 C201.770164,90.663424 201.884096,90.3033991 201.902325,89.8476709 C201.391909,89.7382962 200.968082,89.4830886 200.630844,89.0820477 C200.293605,88.6810069 200.124985,88.2161643 200.124985,87.6875198 C200.124985,87.0859588 200.339177,86.5709862 200.767562,86.1426016 C201.195947,85.7142171 201.710919,85.500025 202.31248,85.500025 C202.914041,85.500025 203.429014,85.7142171 203.857398,86.1426016 C204.285783,86.5709862 204.499975,87.0859588 204.499975,87.6875198 Z M194.874998,85.937524 C194.874998,86.3021063 195.002602,86.6120017 195.25781,86.8672093 C195.513017,87.1224169 195.822912,87.2500209 196.187495,87.2500209 C196.552077,87.2500209 196.861972,87.1224169 197.11718,86.8672093 C197.372388,86.6120017 197.499992,86.3021063 197.499992,85.937524 C197.499992,85.5729417 197.372388,85.2630463 197.11718,85.0078387 C196.861972,84.7526311 196.552077,84.6250271 196.187495,84.6250271 C195.822912,84.6250271 195.513017,84.7526311 195.25781,85.0078387 C195.002602,85.2630463 194.874998,85.5729417 194.874998,85.937524 Z M197.499992,95.562501 C197.499992,95.1979187 197.372388,94.8880233 197.11718,94.6328158 C196.861972,94.3776082 196.552077,94.2500042 196.187495,94.2500042 C195.822912,94.2500042 195.513017,94.3776082 195.25781,94.6328158 C195.002602,94.8880233 194.874998,95.1979187 194.874998,95.562501 C194.874998,95.9270834 195.002602,96.2369787 195.25781,96.4921863 C195.513017,96.7473939 195.822912,96.8749979 196.187495,96.8749979 C196.552077,96.8749979 196.861972,96.7473939 197.11718,96.4921863 C197.372388,96.2369787 197.499992,95.9270834 197.499992,95.562501 Z M202.640604,88.9453293 L202.640604,88.972673 C202.932271,88.8815275 203.169249,88.7220224 203.35154,88.4941585 C203.533832,88.2662946 203.624977,87.9974148 203.624977,87.6875198 C203.624977,87.3229375 203.497373,87.0130421 203.242165,86.7578345 C202.986958,86.5026269 202.677063,86.3750229 202.31248,86.3750229 C201.947898,86.3750229 201.638002,86.5026269 201.382795,86.7578345 C201.127587,87.0130421 200.999983,87.3229375 200.999983,87.6875198 C200.999983,88.0521021 201.127587,88.3619975 201.382795,88.6172051 C201.638002,88.8724127 201.947898,89.0000167 202.31248,89.0000167 L202.640604,88.9453293 Z" id="icon-field-department" transform="translate(199.249987, 90.750013) scale(1, -1) translate(-199.249987, -90.750013) "></path>
        </g>
    </g>
</svg>