<?xml version="1.0" encoding="UTF-8"?>
<svg width="11px" height="14px" viewBox="0 0 11 14" version="1.1" xmlns="http://www.w3.org/2000/svg" xmlns:xlink="http://www.w3.org/1999/xlink">
    <!-- Generator: Sketch 52.5 (67469) - http://www.bohemiancoding.com/sketch -->
    <title>icon-field-script</title>
    <desc>Created with Sketch.</desc>
    <g id="experiment" stroke="none" stroke-width="1" fill="none" fill-rule="evenodd">
        <g id="initial-copy-6" transform="translate(-281.000000, -285.000000)" fill="#2B333D">
            <g id="Aside-content" transform="translate(90.000000, 90.000000)">
                <g id="drags" transform="translate(20.000000, 94.000000)">
                    <g id="drag-copy-5" transform="translate(161.000000, 90.000000)">
                        <path d="M20.5,11.1367194 L20.5,24.2617194 C20.5,24.444012 10,24.444012 10,24.2617194 L10,11.1367194 C10,10.9544269 20.5,10.9544269 20.5,11.1367194 Z M18.75,20.59375 L18.75,20.15625 C18.75,20.1015622 18.7272138,20.0514325 18.6816406,20.0058594 C18.6360675,19.9602862 18.5859378,19.9375 18.53125,19.9375 L11.96875,19.9375 C11.9140622,19.9375 11.8639325,19.9602862 11.8183594,20.0058594 C11.7727862,20.0514325 11.75,20.1015622 11.75,20.15625 L11.75,20.59375 C11.75,20.6484378 11.7727862,20.6985675 11.8183594,20.7441406 C11.8639325,20.7897138 11.9140622,20.8125 11.96875,20.8125 L18.53125,20.8125 C18.5859378,20.8125 18.6360675,20.7897138 18.6816406,20.7441406 C18.7272138,20.6985675 18.75,20.6484378 18.75,20.59375 Z M18.75,17.96875 L18.75,17.53125 C18.75,17.4765622 18.7272138,17.4264325 18.6816406,17.3808594 C18.6360675,17.3352862 18.5859378,17.3125 18.53125,17.3125 L11.96875,17.3125 C11.9140622,17.3125 11.8639325,17.3352862 11.8183594,17.3808594 C11.7727862,17.4264325 11.75,17.4765622 11.75,17.53125 L11.75,17.96875 C11.75,18.0234378 11.7727862,18.0735675 11.8183594,18.1191406 C11.8639325,18.1647138 11.9140622,18.1875 11.96875,18.1875 L18.53125,18.1875 C18.5859378,18.1875 18.6360675,18.1647138 18.6816406,18.1191406 C18.7272138,18.0735675 18.75,18.0234378 18.75,17.96875 Z M18.75,15.34375 L18.75,14.90625 C18.75,14.8515622 18.7272138,14.8014325 18.6816406,14.7558594 C18.6360675,14.7102862 18.5859378,14.6875 18.53125,14.6875 L11.96875,14.6875 C11.9140622,14.6875 11.8639325,14.7102862 11.8183594,14.7558594 C11.7727862,14.8014325 11.75,14.8515622 11.75,14.90625 L11.75,15.34375 C11.75,15.3984378 11.7727862,15.4485675 11.8183594,15.4941406 C11.8639325,15.5397138 11.9140622,15.5625 11.96875,15.5625 L18.53125,15.5625 C18.5859378,15.5625 18.6360675,15.5397138 18.6816406,15.4941406 C18.7272138,15.4485675 18.75,15.3984378 18.75,15.34375 Z" id="icon-field-script"></path>
                    </g>
                </g>
            </g>
        </g>
    </g>
</svg>