<?xml version="1.0" encoding="UTF-8"?>
<svg width="14px" height="15px" viewBox="0 0 14 15" version="1.1" xmlns="http://www.w3.org/2000/svg" xmlns:xlink="http://www.w3.org/1999/xlink">
    <!-- Generator: Sketch 52.5 (67469) - http://www.bohemiancoding.com/sketch -->
    <title>icon-field-else</title>
    <desc>Created with Sketch.</desc>
    <g id="rough" stroke="none" stroke-width="1" fill="none" fill-rule="evenodd">
        <g id="Artboard" transform="translate(-254.000000, -83.000000)" fill="#2B333D">
            <path d="M267.781217,88.1250188 C267.835905,88.1250188 267.886034,88.147805 267.931607,88.193378 C267.97718,88.2389509 267.999967,88.2890809 267.999967,88.3437683 L267.999967,88.7812672 C267.999967,88.8359546 267.97718,88.8860845 267.931607,88.9316575 C267.886034,88.9772304 267.835905,89.0000167 267.781217,89.0000167 L261.437482,89.0000167 L261.437482,90.7500125 L266.031221,90.7500125 C266.085909,90.7500125 266.136039,90.7727988 266.181612,90.8183717 C266.227185,90.8639447 266.249971,90.9140746 266.249971,90.968762 L266.249971,91.406261 C266.249971,91.4609483 266.227185,91.5110783 266.181612,91.5566512 C266.136039,91.6022242 266.085909,91.6250104 266.031221,91.6250104 L261.437482,91.6250104 L261.437482,93.3750063 L264.937474,93.3750063 C265.539035,93.3750063 266.054008,93.5891983 266.482392,94.0175829 C266.910777,94.4459674 267.124969,94.96094 267.124969,95.562501 C267.124969,96.1640621 266.910777,96.6790347 266.482392,97.1074192 C266.054008,97.5358038 265.539035,97.7499958 264.937474,97.7499958 C264.335913,97.7499958 263.82094,97.5358038 263.392556,97.1074192 C262.964171,96.6790347 262.749979,96.1640621 262.749979,95.562501 C262.749979,95.088544 262.895812,94.651045 263.187478,94.2500042 L258.812489,94.2500042 C259.104155,94.651045 259.249987,95.088544 259.249987,95.562501 C259.249987,96.1640621 259.035795,96.6790347 258.607411,97.1074192 C258.179026,97.5358038 257.664054,97.7499958 257.062493,97.7499958 C256.460932,97.7499958 255.945959,97.5358038 255.517575,97.1074192 C255.08919,96.6790347 254.874998,96.1640621 254.874998,95.562501 C254.874998,94.96094 255.08919,94.4459674 255.517575,94.0175829 C255.945959,93.5891983 256.460932,93.3750063 257.062493,93.3750063 L260.562484,93.3750063 L260.562484,91.6250104 L255.968745,91.6250104 C255.914058,91.6250104 255.863928,91.6022242 255.818355,91.5566512 C255.772782,91.5110783 255.749996,91.4609483 255.749996,91.406261 L255.749996,90.968762 C255.749996,90.9140746 255.772782,90.8639447 255.818355,90.8183717 C255.863928,90.7727988 255.914058,90.7500125 255.968745,90.7500125 L260.562484,90.7500125 L260.562484,89.0000167 L254.218749,89.0000167 C254.164062,89.0000167 254.113932,88.9772304 254.068359,88.9316575 C254.022786,88.8860845 254,88.8359546 254,88.7812672 L254,88.3437683 C254,88.2890809 254.022786,88.2389509 254.068359,88.193378 C254.113932,88.147805 254.164062,88.1250188 254.218749,88.1250188 L260.562484,88.1250188 L260.562484,86.3750229 L255.968745,86.3750229 C255.914058,86.3750229 255.863928,86.3522367 255.818355,86.3066637 C255.772782,86.2610908 255.749996,86.2109608 255.749996,86.1562735 L255.749996,85.7187745 C255.749996,85.6640871 255.772782,85.6139572 255.818355,85.5683842 C255.863928,85.5228113 255.914058,85.500025 255.968745,85.500025 L260.562484,85.500025 L260.562484,83.9687787 C260.562484,83.9140913 260.585271,83.8639614 260.630844,83.8183884 C260.676417,83.7728155 260.726546,83.7500292 260.781234,83.7500292 L261.218733,83.7500292 C261.27342,83.7500292 261.32355,83.7728155 261.369123,83.8183884 C261.414696,83.8639614 261.437482,83.9140913 261.437482,83.9687787 L261.437482,85.500025 L266.031221,85.500025 C266.085909,85.500025 266.136039,85.5228113 266.181612,85.5683842 C266.227185,85.6139572 266.249971,85.6640871 266.249971,85.7187745 L266.249971,86.1562735 C266.249971,86.2109608 266.227185,86.2610908 266.181612,86.3066637 C266.136039,86.3522367 266.085909,86.3750229 266.031221,86.3750229 L261.437482,86.3750229 L261.437482,88.1250188 L267.781217,88.1250188 Z M258.37499,95.562501 C258.37499,95.1979187 258.247386,94.8880233 257.992178,94.6328158 C257.73697,94.3776082 257.427075,94.2500042 257.062493,94.2500042 C256.69791,94.2500042 256.388015,94.3776082 256.132807,94.6328158 C255.8776,94.8880233 255.749996,95.1979187 255.749996,95.562501 C255.749996,95.9270834 255.8776,96.2369787 256.132807,96.4921863 C256.388015,96.7473939 256.69791,96.8749979 257.062493,96.8749979 C257.427075,96.8749979 257.73697,96.7473939 257.992178,96.4921863 C258.247386,96.2369787 258.37499,95.9270834 258.37499,95.562501 Z M266.249971,95.562501 C266.249971,95.1979187 266.122367,94.8880233 265.867159,94.6328158 C265.611952,94.3776082 265.302056,94.2500042 264.937474,94.2500042 C264.572892,94.2500042 264.262996,94.3776082 264.007789,94.6328158 C263.752581,94.8880233 263.624977,95.1979187 263.624977,95.562501 C263.624977,95.9270834 263.752581,96.2369787 264.007789,96.4921863 C264.262996,96.7473939 264.572892,96.8749979 264.937474,96.8749979 C265.302056,96.8749979 265.611952,96.7473939 265.867159,96.4921863 C266.122367,96.2369787 266.249971,95.9270834 266.249971,95.562501 Z" id="icon-field-else"></path>
        </g>
    </g>
</svg>