<?xml version="1.0" encoding="UTF-8"?>
<svg width="9px" height="8px" viewBox="0 0 9 8" version="1.1" xmlns="http://www.w3.org/2000/svg" xmlns:xlink="http://www.w3.org/1999/xlink">
    <!-- Generator: Sketch 52.6 (67491) - http://www.bohemiancoding.com/sketch -->
    <title></title>
    <desc>Created with Sketch.</desc>
    <g id="rough" stroke="none" stroke-width="1" fill="none" fill-rule="evenodd">
        <g id="oo-copy" transform="translate(-31.000000, -171.000000)" fill="#2B333D">
            <path d="M31.6249997,173.96876 L34.3749931,171.593765 C34.4583262,171.520849 34.549472,171.489599 34.64843,171.500015 C34.747388,171.510432 34.8307213,171.549495 34.8984294,171.617203 C34.9661375,171.684911 34.9999917,171.770848 34.9999917,171.875015 L34.9999917,173.125012 C36.4270715,173.145845 37.489569,173.338553 38.1874841,173.703135 C39.062482,174.161467 39.4999809,174.937507 39.4999809,176.031255 C39.4999809,176.489587 39.369773,176.947919 39.1093569,177.406251 C38.8697742,177.833334 38.5676914,178.177083 38.203109,178.437499 C38.1301924,178.489582 38.0546719,178.507811 37.9765471,178.492186 C37.8984222,178.476561 37.8359224,178.437499 37.7890475,178.374999 C37.7421726,178.312499 37.7343601,178.239583 37.7656101,178.15625 C37.9947763,177.416668 38.0416511,176.83594 37.9062347,176.414066 C37.7708183,175.992192 37.4531108,175.692714 36.953112,175.515631 C36.5051963,175.348965 35.8541564,175.260423 34.9999917,175.250007 L34.9999917,176.625003 C34.9999917,176.72917 34.9661375,176.815107 34.8984294,176.882815 C34.8307213,176.950523 34.747388,176.989586 34.64843,177.000002 C34.549472,177.010419 34.4583262,176.979169 34.3749931,176.906253 L31.6249997,174.531258 C31.5416666,174.458342 31.5,174.364592 31.5,174.250009 C31.5,174.135426 31.5416666,174.041676 31.6249997,173.96876 Z" id="" transform="translate(35.499990, 174.997829) scale(-1, 1) translate(-35.499990, -174.997829) "></path>
        </g>
    </g>
</svg>