<?xml version="1.0" encoding="UTF-8"?>
<svg width="12px" height="12px" viewBox="0 0 12 12" version="1.1" xmlns="http://www.w3.org/2000/svg" xmlns:xlink="http://www.w3.org/1999/xlink">
    <!-- Generator: Sketch 52.5 (67469) - http://www.bohemiancoding.com/sketch -->
    <title>icon-close</title>
    <desc>Created with Sketch.</desc>
    <g id="settings" stroke="none" stroke-width="1" fill="none" fill-rule="evenodd">
        <g id="initial-copy-5" transform="translate(-1408.000000, -29.000000)" fill="#2B333D">
            <g id="settings" transform="translate(1090.000000, 0.000000)">
                <path d="M325.249983,35.0000143 L329.312473,39.0625046 C329.374973,39.1458379 329.406223,39.2395877 329.406223,39.3437539 C329.406223,39.4479202 329.374973,39.5312535 329.312473,39.5937534 L328.593725,40.3125016 C328.531225,40.3750015 328.447892,40.4062514 328.343725,40.4062514 C328.239559,40.4062514 328.145809,40.3750015 328.062476,40.3125016 L323.999986,36.2500113 L319.937495,40.3125016 C319.854162,40.3750015 319.760412,40.4062514 319.656246,40.4062514 C319.55208,40.4062514 319.468746,40.3750015 319.406247,40.3125016 L318.687498,39.5937534 C318.624999,39.5312535 318.593749,39.4479202 318.593749,39.3437539 C318.593749,39.2395877 318.624999,39.1458379 318.687498,39.0625046 L322.749989,35.0000143 L318.687498,30.937524 C318.624999,30.8541907 318.593749,30.7604409 318.593749,30.6562747 C318.593749,30.5521084 318.624999,30.4687751 318.687498,30.4062753 L319.406247,29.687527 C319.468746,29.6250271 319.55208,29.5937772 319.656246,29.5937772 C319.760412,29.5937772 319.854162,29.6250271 319.937495,29.687527 L323.999986,33.7500173 L328.062476,29.687527 C328.145809,29.6250271 328.239559,29.5937772 328.343725,29.5937772 C328.447892,29.5937772 328.531225,29.6250271 328.593725,29.687527 L329.312473,30.4062753 C329.374973,30.4687751 329.406223,30.5521084 329.406223,30.6562747 C329.406223,30.7604409 329.374973,30.8541907 329.312473,30.937524 L325.249983,35.0000143 Z" id="icon-close"></path>
            </g>
        </g>
    </g>
</svg>