<?xml version="1.0" encoding="UTF-8"?>
<svg width="10px" height="11px" viewBox="0 0 10 11" version="1.1" xmlns="http://www.w3.org/2000/svg" xmlns:xlink="http://www.w3.org/1999/xlink">
    <!-- Generator: Sketch 52.5 (67469) - http://www.bohemiancoding.com/sketch -->
    <title>icon-check-circle</title>
    <desc>Created with Sketch.</desc>
    <g id="#" stroke="none" stroke-width="1" fill="none" fill-rule="evenodd">
        <g id="Desktop-HD" transform="translate(-350.000000, -166.000000)" fill="#85D280">
            <g id="Dropdown" transform="translate(60.000000, 40.000000)">
                <g id="dropdown---expand" transform="translate(160.000000, 47.000000)">
                    <g id="dropdown" transform="translate(0.000000, 41.000000)">
                        <g id="current" transform="translate(10.000000, 33.000000)">
                            <path d="M129.843727,10.2500089 C129.843727,11.1224028 129.625628,11.9296924 129.189431,12.6718782 C128.753234,13.4140639 128.164043,14.0032553 127.421857,14.4394521 C126.679672,14.8756489 125.872382,15.0937474 124.999988,15.0937474 C124.127594,15.0937474 123.320305,14.8756489 122.578119,14.4394521 C121.835933,14.0032553 121.246742,13.4140639 120.810545,12.6718782 C120.374348,11.9296924 120.15625,11.1224028 120.15625,10.2500089 C120.15625,9.37761509 120.374348,8.57032545 120.810545,7.82813971 C121.246742,7.08595398 121.835933,6.49676258 122.578119,6.0605658 C123.320305,5.62436903 124.127594,5.40627049 124.999988,5.40627049 C125.872382,5.40627049 126.679672,5.62436903 127.421857,6.0605658 C128.164043,6.49676258 128.753234,7.08595398 129.189431,7.82813971 C129.625628,8.57032545 129.843727,9.37761509 129.843727,10.2500089 Z M124.433583,12.8085966 L128.027325,9.21485516 C128.092429,9.16277185 128.124981,9.09115764 128.124981,9.00001192 C128.124981,8.90886621 128.092429,8.83725199 128.027325,8.78516868 L127.597638,8.335951 C127.532534,8.27084709 127.457664,8.23829499 127.373029,8.23829499 C127.288394,8.23829499 127.213524,8.27084709 127.14842,8.335951 L124.21874,11.2656315 L122.851556,9.89844728 C122.786452,9.83334337 122.711582,9.80079126 122.626947,9.80079126 C122.542312,9.80079126 122.467442,9.83334337 122.402338,9.89844728 L121.972652,10.347665 C121.907548,10.3997483 121.874996,10.4713625 121.874996,10.5625082 C121.874996,10.6536539 121.907548,10.7252681 121.972652,10.7773514 L124.003897,12.8085966 C124.05598,12.8737005 124.127594,12.9062526 124.21874,12.9062526 C124.309886,12.9062526 124.3815,12.8737005 124.433583,12.8085966 Z" id="icon-check-circle"></path>
                        </g>
                    </g>
                </g>
            </g>
        </g>
    </g>
</svg>