<?xml version="1.0" encoding="UTF-8"?>
<svg width="14px" height="13px" viewBox="0 0 14 13" version="1.1" xmlns="http://www.w3.org/2000/svg" xmlns:xlink="http://www.w3.org/1999/xlink">
    <!-- Generator: Sketch 52.5 (67469) - http://www.bohemiancoding.com/sketch -->
    <title>icon-field-web</title>
    <desc>Created with Sketch.</desc>
    <g id="experiment" stroke="none" stroke-width="1" fill="none" fill-rule="evenodd">
        <g id="initial-copy-6" transform="translate(-281.000000, -330.000000)" fill="#2B333D">
            <g id="Aside-content" transform="translate(90.000000, 90.000000)">
                <g id="drags" transform="translate(20.000000, 94.000000)">
                    <g id="drag-copy-8" transform="translate(161.000000, 135.000000)">
                        <path d="M22.6874698,11.6250271 C23.0520521,11.6250271 23.3619474,11.7526311 23.617155,12.0078387 C23.8723626,12.2630463 23.9999666,12.5729417 23.9999666,12.937524 L23.9999666,22.562501 C23.9999666,22.9270834 23.8723626,23.2369787 23.617155,23.4921863 C23.3619474,23.7473939 23.0520521,23.8749979 22.6874698,23.8749979 L11.3124969,23.8749979 C10.9479145,23.8749979 10.6380192,23.7473939 10.3828116,23.4921863 C10.127604,23.2369787 10,22.9270834 10,22.562501 L10,12.937524 C10,12.5729417 10.127604,12.2630463 10.3828116,12.0078387 C10.6380192,11.7526311 10.9479145,11.6250271 11.3124969,11.6250271 L22.6874698,11.6250271 Z M11.3124969,13.2656482 L11.3124969,13.9218966 C11.3124969,14.0130421 11.344398,14.0905162 11.4081998,14.154318 C11.4720016,14.2181198 11.5494756,14.2500209 11.6406211,14.2500209 L12.7343685,14.2500209 C12.825514,14.2500209 12.902988,14.2181198 12.9667898,14.154318 C13.0305916,14.0905162 13.0624927,14.0130421 13.0624927,13.9218966 L13.0624927,13.2656482 C13.0624927,13.1745027 13.0305916,13.0970287 12.9667898,13.0332269 C12.902988,12.9694251 12.825514,12.937524 12.7343685,12.937524 L11.6406211,12.937524 C11.5494756,12.937524 11.4720016,12.9694251 11.4081998,13.0332269 C11.344398,13.0970287 11.3124969,13.1745027 11.3124969,13.2656482 Z M22.6874698,22.3984389 L22.6874698,15.3437683 L11.3124969,15.3437683 L11.3124969,22.3984389 C11.3124969,22.434897 11.3307261,22.4713556 11.3671842,22.5078137 C11.4036423,22.5442718 11.4401009,22.562501 11.476559,22.562501 L22.5234076,22.562501 C22.5598657,22.562501 22.5963243,22.5442718 22.6327824,22.5078137 C22.6692405,22.4713556 22.6874698,22.434897 22.6874698,22.3984389 Z M22.6874698,13.9218966 L22.6874698,13.2656482 C22.6874698,13.1745027 22.6555686,13.0970287 22.5917669,13.0332269 C22.5279651,12.9694251 22.450491,12.937524 22.3593455,12.937524 L14.7031138,12.937524 C14.6119683,12.937524 14.5344943,12.9694251 14.4706925,13.0332269 C14.4068907,13.0970287 14.3749896,13.1745027 14.3749896,13.2656482 L14.3749896,13.9218966 C14.3749896,14.0130421 14.4068907,14.0905162 14.4706925,14.154318 C14.5344943,14.2181198 14.6119683,14.2500209 14.7031138,14.2500209 L22.3593455,14.2500209 C22.450491,14.2500209 22.5279651,14.2181198 22.5917669,14.154318 C22.6555686,14.0905162 22.6874698,14.0130421 22.6874698,13.9218966 Z" id="icon-field-web"></path>
                    </g>
                </g>
            </g>
        </g>
    </g>
</svg>