<?xml version="1.0" encoding="UTF-8"?>
<svg width="13px" height="13px" viewBox="0 0 13 13" version="1.1" xmlns="http://www.w3.org/2000/svg" xmlns:xlink="http://www.w3.org/1999/xlink">
    <!-- Generator: Sketch 52.5 (67469) - http://www.bohemiancoding.com/sketch -->
    <title>icon-field-multiple</title>
    <desc>Created with Sketch.</desc>
    <g id="rough" stroke="none" stroke-width="1" fill="none" fill-rule="evenodd">
        <g id="Artboard" transform="translate(-304.000000, -57.000000)" fill="#2B333D">
            <path d="M316.140596,61.3164246 C316.213513,61.3711119 316.249971,61.4440286 316.249971,61.535174 C316.249971,61.6263195 316.213513,61.7083506 316.140596,61.7812672 L308.128896,69.7929669 C308.074209,69.8476542 308.001292,69.8749979 307.910147,69.8749979 C307.819001,69.8749979 307.73697,69.8476542 307.664054,69.7929669 L304.109375,66.2109441 C304.036458,66.1562568 304,66.0833401 304,65.9921947 C304,65.9010492 304.036458,65.8190181 304.109375,65.7461015 L304.847654,65.007822 C304.920571,64.9349054 305.002602,64.8984473 305.093747,64.8984473 C305.184893,64.8984473 305.25781,64.9349054 305.312497,65.007822 L307.910147,67.6054721 L314.937474,60.5508014 C314.992161,60.496114 315.065078,60.4687703 315.156223,60.4687703 C315.247369,60.4687703 315.3294,60.496114 315.402317,60.5508014 L316.140596,61.3164246 Z M307.609366,64.5429794 L304.984373,61.890642 C304.911456,61.8359546 304.874998,61.7630379 304.874998,61.6718925 C304.874998,61.580747 304.911456,61.4987159 304.984373,61.4257993 L305.749996,60.6875198 C305.822912,60.6146032 305.900386,60.5781451 305.982417,60.5781451 C306.064448,60.5781451 306.132807,60.6146032 306.187495,60.6875198 L307.85546,62.3281409 L312.449199,57.7070582 C312.503886,57.6523708 312.576803,57.6250271 312.667948,57.6250271 C312.759094,57.6250271 312.841125,57.6523708 312.914041,57.7070582 L313.652321,58.500025 C313.725237,58.5547124 313.761695,58.6230716 313.761695,58.7051027 C313.761695,58.7871337 313.725237,58.8646074 313.652321,58.937524 L308.074209,64.5429794 C308.019522,64.5976667 307.946605,64.6250104 307.85546,64.6250104 C307.764314,64.6250104 307.682283,64.5976667 307.609366,64.5429794 Z" id="icon-field-multiple"></path>
        </g>
    </g>
</svg>