<?xml version="1.0" encoding="UTF-8"?>
<svg width="174px" height="25px" viewBox="0 0 174 25" version="1.1" xmlns="http://www.w3.org/2000/svg" xmlns:xlink="http://www.w3.org/1999/xlink">
    <!-- Generator: Sketch 52.5 (67469) - http://www.bohemiancoding.com/sketch -->
    <title>AnswerConnect-Logo-Original</title>
    <desc>Created with Sketch.</desc>
    <g id="experiment" stroke="none" stroke-width="1" fill="none" fill-rule="evenodd">
        <g id="initial-copy-6" transform="translate(-90.000000, -23.000000)">
            <g id="header-copy" transform="translate(70.000000, 0.000000)">
                <g id="AnswerConnect-Logo-Original" transform="translate(20.000000, 23.000000)">
                    <path d="M8.2192016,16.3263985 C8.2192016,14.6810982 7.52148681,13.9950806 5.50640845,13.9950806 C3.38886847,13.9950806 2.60170307,14.759407 1.87877947,14.759407 C1.25913067,14.759407 0.806998482,14.345023 0.806998482,13.5937481 C0.806998482,13.2046513 0.923284279,12.9199663 1.20708668,12.6352812 C1.77550467,12.0650953 3.67429724,11.3138204 6.29520022,11.3138204 C9.8968072,11.3138204 11.7045228,12.9069148 11.7045228,15.898963 L11.7045228,20.1341632 C11.7045228,22.4793482 12.1444572,22.8545778 12.1444572,23.5797498 C12.1444572,24.3049218 11.601248,24.8620562 10.5953352,24.8620562 C9.75937853,24.8620562 9.21454297,24.4378836 8.88601527,23.7959147 C8.7933119,23.6148256 7.36616802,24.9787037 4.66801224,24.9787037 C1.81453767,24.9787037 0.110096883,23.2559104 0.110096883,20.9506955 C0.110096883,18.4505243 2.39515347,17.1682179 5.85607903,17.1682179 C7.27590422,17.1682179 8.2192016,17.4015129 8.2192016,17.4015129 L8.2192016,16.3263985 L8.2192016,16.3263985 Z M8.2192016,19.6553376 C8.2192016,19.6553376 7.39300321,19.4089912 6.20493642,19.4089912 C4.50049564,19.4089912 3.66047306,19.9139197 3.66047306,20.834048 C3.66047306,21.7150218 4.34517684,22.4010394 5.60968325,22.4010394 C7.27590422,22.4010394 8.2192016,21.0020856 8.2192016,21.0020856 L8.2192016,19.6553376 L8.2192016,19.6553376 Z" id="Fill-1" fill="#455C64"></path>
                    <path d="M14.2042608,12.8938633 C14.2042608,11.9484479 14.7206348,11.4304679 15.663119,11.4304679 C16.5925922,11.4304679 17.0829442,11.8970577 17.2000432,12.6736199 C17.2000432,12.6736199 18.5157804,11.3138204 21.3960902,11.3138204 C24.4431033,11.3138204 26.3418959,13.2177028 26.3418959,16.7024438 L26.3418959,23.2689618 C26.3418959,24.2535317 25.7734779,24.8237175 24.5854111,24.8237175 C23.3973444,24.8237175 22.8297396,24.2535317 22.8297396,23.2689618 L22.8297396,17.1168278 C22.8297396,15.0049377 21.9514972,14.1247796 20.4658038,14.1247796 C18.6328794,14.1247796 17.7164172,16.0156105 17.7164172,16.0156105 L17.7164172,23.2689618 C17.7164172,24.2535317 17.1479992,24.8237175 15.9599324,24.8237175 C14.7718656,24.8237175 14.2042608,24.2535317 14.2042608,23.2689618 L14.2042608,12.8938633" id="Fill-2" fill="#455C64"></path>
                    <path d="M33.6573297,11.3138204 C35.5683201,11.3138204 36.6531121,11.7934617 37.0784091,12.2208972 C37.3882335,12.5316852 37.4915083,12.8424732 37.4915083,13.2951959 C37.4915083,13.9559263 37.0271783,14.4094646 36.3945185,14.4094646 C35.7228257,14.4094646 34.9608691,13.8653817 33.4889999,13.8653817 C32.1204056,13.8653817 31.5780096,14.3703102 31.5780096,15.0179892 C31.5780096,17.2073723 38.1241681,16.0156105 38.1241681,20.6529589 C38.1241681,23.0617698 36.2131777,24.9787037 32.339153,24.9787037 C30.1451734,24.9787037 29.0603814,24.4868266 28.5822272,24.0071853 C28.3106226,23.7355517 28.169128,23.4247637 28.169128,22.9320709 C28.169128,22.2591048 28.620447,21.7925149 29.266931,21.7925149 C29.9386238,21.7925149 30.6997672,22.4140909 32.5074828,22.4140909 C34.0704289,22.4140909 34.6900777,21.843905 34.6900777,21.0803944 C34.6900777,18.8004667 28.1553038,19.9791771 28.1553038,15.4323732 C28.1553038,13.1010553 29.9898546,11.3138204 33.6573297,11.3138204" id="Fill-3" fill="#455C64"></path>
                    <path d="M39.4220152,13.9820292 C39.2414876,13.3604532 39.2284766,13.1402097 39.2284766,12.9591207 C39.2284766,11.9484479 40.3262796,11.4304679 41.152478,11.4304679 C41.64283,11.4304679 42.0437314,11.585454 42.289314,11.8318004 C42.5470944,12.0911983 42.6503692,12.5055823 42.8178858,13.1402097 L44.5483485,19.6422861 C44.8451619,20.7687907 44.9484367,21.6114258 44.9484367,21.6114258 L44.9996675,21.6114258 C44.9996675,21.6114258 45.1167665,20.7565549 45.4127667,19.6422861 L47.0407679,13.4771007 C47.4270319,12.0128895 48.0222851,11.4304679 49.3900663,11.4304679 C50.7594739,11.4304679 51.3400897,12.0128895 51.7279801,13.4771007 L53.3673659,19.6422861 C53.6641793,20.7435035 53.8073002,21.6114258 53.8073002,21.6114258 L53.858531,21.6114258 C53.858531,21.6114258 54.0000256,20.7435035 54.2716302,19.6422861 L55.8858072,13.1271583 C56.0403128,12.5186337 56.1313898,12.0911983 56.3891702,11.8318004 C56.6209286,11.5985055 57.02183,11.4304679 57.512182,11.4304679 C58.3774134,11.4304679 59.3068866,11.9353964 59.3068866,12.8555247 C59.3068866,13.0496652 59.2938756,13.2307543 59.113348,13.8523303 L56.5957198,22.491584 C56.362335,23.3081162 56.1045546,23.8652506 55.7695214,24.2013258 C55.3434112,24.6287613 54.7489712,24.8237175 53.8837399,24.8237175 C53.0445305,24.8237175 52.4370795,24.6418127 52.0239803,24.2274287 C51.6629251,23.8652506 51.4433645,23.2428589 51.2246171,22.4271424 L49.7389237,17.0515705 C49.4169015,15.8728601 49.2998025,14.9013417 49.2998025,14.9013417 L49.2485717,14.9013417 C49.2485717,14.9013417 49.1452969,15.8728601 48.8216483,17.0515705 L47.3237571,22.4271424 C47.1050097,23.2175717 46.8862623,23.8521991 46.5243939,24.2143773 C46.1112947,24.6287613 45.5298657,24.8237175 44.6516233,24.8237175 C43.7481721,24.8237175 43.1407212,24.603474 42.740633,24.2013258 C42.4047866,23.8652506 42.159204,23.3211677 41.9274456,22.5176869 L39.4220152,13.9820292" id="Fill-4" fill="#455C64"></path>
                    <path d="M63.8460986,18.8779598 L63.8460986,18.9040627 C64.0396372,21.0281885 65.3952206,22.2460533 67.5648046,22.2460533 C69.345685,22.2460533 70.0686086,21.662816 70.7281036,21.662816 C71.3867854,21.662816 71.7730494,22.1677445 71.7730494,22.7509818 C71.7730494,23.1784173 71.645379,23.4761538 71.3355546,23.7869418 C70.8183674,24.3049218 69.3334872,24.9917551 66.9451558,24.9917551 C62.8377463,24.9917551 60.3461401,22.5046354 60.3461401,18.5802232 C60.3461401,13.9950806 63.0442959,11.300769 66.9061228,11.300769 C70.2117296,11.300769 72.3544784,13.4248948 72.3544784,16.9740774 C72.3544784,18.2563838 71.7348296,18.8779598 70.6370266,18.8779598 L63.8460986,18.8779598 L63.8460986,18.8779598 Z M69.0879046,16.624135 C68.868344,14.7072012 68.0543434,13.8009401 66.5702764,13.8009401 C65.3171546,13.8009401 64.2591978,14.6297081 63.8843185,16.624135 L69.0879046,16.624135 L69.0879046,16.624135 Z" id="Fill-5" fill="#455C64"></path>
                    <path d="M74.6476668,12.8938633 C74.6476668,11.9484479 75.1640408,11.4304679 76.1057118,11.4304679 C77.0359982,11.4304679 77.5003282,11.8970577 77.642636,12.6997228 L77.7223284,13.012958 C77.7223284,13.012958 79.3617142,11.3521591 80.9303527,11.3831563 C81.9118698,11.4035492 82.4689032,11.8326161 82.498178,12.9460692 C82.5266395,14.0415765 81.8427489,14.4991935 81.2727046,14.5848437 C80.9027043,14.6403124 80.588814,14.699044 80.1041543,14.8426101 C79.2999119,15.0799836 78.6371642,15.7439769 78.1598232,16.6632894 L78.1598232,23.2689618 C78.1598232,24.2535317 77.5914052,24.8237175 76.4033384,24.8237175 C75.2152716,24.8237175 74.6476668,24.2535317 74.6476668,23.2689618 L74.6476668,12.8938633" id="Fill-6" fill="#455C64"></path>
                    <path d="M90.174667,11.3138204 C91.762822,11.3138204 92.7183172,11.7934617 93.1053944,12.1947943 C93.4160319,12.4925308 93.5583397,12.8163703 93.5583397,13.3343503 C93.5583397,14.0211836 93.1053944,14.5391636 92.4467126,14.5391636 C91.7750198,14.5391636 91.4017668,14.0211836 90.1104252,14.0211836 C88.3149074,14.0211836 86.8690602,15.4715276 86.8690602,18.2694352 C86.8690602,20.8079451 88.3027096,22.2460533 90.3039638,22.2460533 C91.6335252,22.2460533 92.0466244,21.7533605 92.6020314,21.7533605 C93.2346912,21.7533605 93.6225815,22.2721562 93.6225815,22.8676293 C93.6225815,23.3081162 93.4672627,23.6450071 93.1696362,23.9557951 C92.6532622,24.4737751 91.4920306,24.9917551 89.5810402,24.9917551 C85.7590594,24.9917551 83.292662,22.5176869 83.292662,18.6446648 C83.292662,14.1117281 86.0810816,11.3138204 90.174667,11.3138204" id="Fill-7" fill="#455C64"></path>
                    <path d="M102.021181,11.300769 C105.973272,11.300769 108.594175,13.930639 108.594175,17.9194928 C108.594175,22.3496493 105.960261,24.9917551 101.699159,24.9917551 C97.7478812,24.9917551 95.1139672,22.3627008 95.1139672,18.3730312 C95.1139672,13.9428748 97.7617054,11.300769 102.021181,11.300769 L102.021181,11.300769 Z M101.893511,22.284392 C103.662193,22.284392 105.030788,20.9115411 105.030788,18.1658392 C105.030788,15.4454246 103.597951,14.0081321 101.841467,14.0081321 C100.05896,14.0081321 98.6911786,15.380983 98.6911786,18.1136334 C98.6911786,20.8601509 100.110191,22.284392 101.893511,22.284392 L101.893511,22.284392 Z" id="Fill-8" fill="#455C64"></path>
                    <path d="M110.414088,12.8938633 C110.414088,11.9484479 110.930462,11.4304679 111.872133,11.4304679 C112.802419,11.4304679 113.292771,11.8970577 113.409057,12.6736199 C113.409057,12.6736199 114.725608,11.3138204 117.605104,11.3138204 C120.652931,11.3138204 122.551723,13.2177028 122.551723,16.7024438 L122.551723,23.2689618 C122.551723,24.2535317 121.983305,24.8237175 120.795238,24.8237175 C119.607172,24.8237175 119.039567,24.2535317 119.039567,23.2689618 L119.039567,17.1168278 C119.039567,15.0049377 118.161324,14.1247796 116.675631,14.1247796 C114.841893,14.1247796 113.926244,16.0156105 113.926244,16.0156105 L113.926244,23.2689618 C113.926244,24.2535317 113.357826,24.8237175 112.16976,24.8237175 C110.981693,24.8237175 110.414088,24.2535317 110.414088,23.2689618 L110.414088,12.8938633" id="Fill-9" fill="#455C64"></path>
                    <path d="M136.878459,23.2689618 C136.878459,24.2535317 136.310854,24.8237175 135.122787,24.8237175 C133.93472,24.8237175 133.366302,24.2535317 133.366302,23.2689618 L133.366302,16.0156105 C133.366302,16.0156105 132.44984,14.1247796 130.616916,14.1247796 C129.131222,14.1247796 128.25298,15.0049377 128.25298,17.1168278 L128.25298,23.2689618 C128.25298,24.2535317 127.685375,24.8237175 126.497308,24.8237175 C125.309242,24.8237175 124.740824,24.2535317 124.740824,23.2689618 L124.740824,16.7024438 C124.740824,13.2177028 126.639616,11.3138204 129.686629,11.3138204 C132.566939,11.3138204 133.882676,12.6736199 133.882676,12.6736199 C133.999775,11.8970577 134.490127,11.4304679 135.420414,11.4304679 C136.362085,11.4304679 136.878459,11.9484479 136.878459,12.8938633 L136.878459,23.2689618" id="Fill-10" fill="#455C64" transform="translate(130.809641, 18.068769) scale(-1, 1) translate(-130.809641, -18.068769) "></path>
                    <path d="M142.544749,18.8779598 L142.544749,18.9040627 C142.7391,21.0281885 144.09387,22.2460533 146.263454,22.2460533 C148.045961,22.2460533 148.769698,21.662816 149.427567,21.662816 C150.085435,21.662816 150.474139,22.1677445 150.474139,22.7509818 C150.474139,23.1784173 150.344029,23.4761538 150.034204,23.7869418 C149.51783,24.3049218 148.03295,24.9917551 145.643806,24.9917551 C141.538023,24.9917551 139.045603,22.5046354 139.045603,18.5802232 C139.045603,13.9950806 141.745385,11.300769 145.605586,11.300769 C148.911193,11.300769 151.054755,13.4248948 151.054755,16.9740774 C151.054755,18.2563838 150.434293,18.8779598 149.337303,18.8779598 L142.544749,18.8779598 L142.544749,18.8779598 Z M147.788181,16.624135 C147.567807,14.7072012 146.75462,13.8009401 145.269739,13.8009401 C144.017431,13.8009401 142.957848,14.6297081 142.583781,16.624135 L147.788181,16.624135 L147.788181,16.624135 Z" id="Fill-11" fill="#455C64"></path>
                    <path d="M159.619244,11.3138204 C161.206586,11.3138204 162.162081,11.7934617 162.549158,12.1947943 C162.859796,12.4925308 163.001291,12.8163703 163.001291,13.3343503 C163.001291,14.0211836 162.549158,14.5391636 161.89129,14.5391636 C161.22041,14.5391636 160.844718,14.0211836 159.554189,14.0211836 C157.759485,14.0211836 156.313637,15.4715276 156.313637,18.2694352 C156.313637,20.8079451 157.746474,22.2460533 159.746915,22.2460533 C161.077289,22.2460533 161.490388,21.7533605 162.046609,21.7533605 C162.678455,21.7533605 163.066346,22.2721562 163.066346,22.8676293 C163.066346,23.3081162 162.911027,23.6450071 162.614213,23.9557951 C162.097839,24.4737751 160.934981,24.9917551 159.023991,24.9917551 C155.20201,24.9917551 152.736426,22.5176869 152.736426,18.6446648 C152.736426,14.1117281 155.524846,11.3138204 159.619244,11.3138204" id="Fill-12" fill="#455C64"></path>
                    <path d="M165.914128,14.1892212 C165.229424,14.1892212 164.764281,13.7226313 164.764281,12.8677604 C164.764281,12.025941 165.229424,11.5601668 165.914128,11.5601668 L167.050151,11.5601668 L167.46325,9.37078367 C167.643777,8.38621382 168.173162,7.93349115 169.051405,7.93349115 C169.942658,7.93349115 170.446021,8.43841968 170.446021,9.37078367 L170.446021,11.5601668 L172.628616,11.5601668 C173.312507,11.5601668 173.77765,12.025941 173.77765,12.8677604 C173.77765,13.7226313 173.312507,14.1892212 172.628616,14.1892212 L170.446021,14.1892212 L170.446021,20.419664 C170.446021,21.636713 170.85912,22.1163544 171.711341,22.1163544 C172.343187,22.1163544 172.601781,21.9352653 172.938441,21.9352653 C173.493034,21.9352653 173.880925,22.3627008 173.880925,22.9842767 C173.880925,23.4631023 173.725606,23.7738903 173.427979,24.0724426 C173.079935,24.4215693 172.227715,24.8751077 170.755846,24.8751077 C168.14714,24.8751077 166.933865,23.6450071 166.933865,21.0673429 L166.933865,14.1892212 L165.914128,14.1892212" id="Fill-13" fill="#455C64"></path>
                    <path d="M117.116379,7.8292472 C114.960619,7.8292472 113.213892,6.07708811 113.213892,3.9146236 C113.213892,1.75297481 114.960619,0 117.116379,0 C119.271325,0 121.018865,1.75297481 121.018865,3.9146236 C121.018865,6.07708811 119.271325,7.8292472 117.116379,7.8292472 Z" id="Fill-14" fill="#00BBE5"></path>
                    <path d="M134.39905,3.9146236 C134.39905,6.07708811 132.651511,7.8292472 130.496564,7.8292472 C128.340804,7.8292472 126.594078,6.07708811 126.594078,3.9146236 C126.594078,1.75297481 128.340804,0 130.496564,0 C132.651511,0 134.39905,1.75297481 134.39905,3.9146236" id="Fill-15" fill="#00BBE5"></path>
                </g>
            </g>
        </g>
    </g>
</svg>